<?xml version="1.0" encoding="UTF-8" standalone="no"?>
<!DOCTYPE svg PUBLIC "-//W3C//DTD SVG 1.1//EN"
 "http://www.w3.org/Graphics/SVG/1.1/DTD/svg11.dtd">
<!-- Generated by graphviz version 2.48.0 (20210717.1556)
 -->
<!-- Pages: 1 -->
<svg width="403pt" height="620pt"
 viewBox="0.00 0.00 402.57 620.00" xmlns="http://www.w3.org/2000/svg" xmlns:xlink="http://www.w3.org/1999/xlink">
<g id="graph0" class="graph" transform="scale(1 1) rotate(0) translate(4 616)">
<polygon fill="white" stroke="transparent" points="-4,4 -4,-616 398.57,-616 398.57,4 -4,4"/>
<!-- D0 -->
<g id="node1" class="node">
<title>D0</title>
<path fill="none" stroke="black" d="M127.75,-612C127.75,-612 97.75,-612 97.75,-612 91.75,-612 85.75,-606 85.75,-600 85.75,-600 85.75,-588 85.75,-588 85.75,-582 91.75,-576 97.75,-576 97.75,-576 127.75,-576 127.75,-576 133.75,-576 139.75,-582 139.75,-588 139.75,-588 139.75,-600 139.75,-600 139.75,-606 133.75,-612 127.75,-612"/>
<text text-anchor="middle" x="112.75" y="-590.3" font-family="Times,serif" font-size="14.00">Start</text>
</g>
<!-- D1 -->
<g id="node2" class="node">
<title>D1</title>
<polygon fill="none" stroke="black" points="172.75,-540 52.75,-540 52.75,-504 172.75,-504 172.75,-540"/>
<text text-anchor="middle" x="112.75" y="-518.3" font-family="Times,serif" font-size="14.00">char c = getchar();</text>
</g>
<!-- D0&#45;&gt;D1 -->
<g id="edge1" class="edge">
<title>D0:s&#45;&gt;D1:n</title>
<path fill="none" stroke="black" d="M112.75,-576C112.75,-564 112.75,-558.75 112.75,-550.12"/>
<polygon fill="black" stroke="black" points="116.25,-550 112.75,-540 109.25,-550 116.25,-550"/>
</g>
<!-- D2 -->
<g id="node3" class="node">
<title>D2</title>
<polygon fill="none" stroke="black" points="163.25,-468 62.25,-468 62.25,-432 163.25,-432 163.25,-468"/>
<text text-anchor="middle" x="112.75" y="-446.3" font-family="Times,serif" font-size="14.00">int x = 0, f = 1;</text>
</g>
<!-- D1&#45;&gt;D2 -->
<g id="edge2" class="edge">
<title>D1:s&#45;&gt;D2:n</title>
<path fill="none" stroke="black" d="M112.75,-504C112.75,-492 112.75,-486.75 112.75,-478.12"/>
<polygon fill="black" stroke="black" points="116.25,-478 112.75,-468 109.25,-478 116.25,-478"/>
</g>
<!-- D3 -->
<g id="node4" class="node">
<title>D3</title>
<polygon fill="none" stroke="black" points="112.75,-396 16.22,-378 112.75,-360 209.27,-378 112.75,-396"/>
<text text-anchor="middle" x="112.75" y="-374.3" font-family="Times,serif" font-size="14.00">(c &lt; &#39;0&#39; || c &gt; &#39;9&#39;)</text>
</g>
<!-- D2&#45;&gt;D3 -->
<g id="edge3" class="edge">
<title>D2:s&#45;&gt;D3:n</title>
<path fill="none" stroke="black" d="M112.75,-432C112.75,-420 112.75,-414.75 112.75,-406.12"/>
<polygon fill="black" stroke="black" points="116.25,-406 112.75,-396 109.25,-406 116.25,-406"/>
</g>
<!-- D4 -->
<g id="node5" class="node">
<title>D4</title>
<polygon fill="none" stroke="black" points="59.75,-324 -0.25,-306 59.75,-288 119.74,-306 59.75,-324"/>
<text text-anchor="middle" x="59.75" y="-302.3" font-family="Times,serif" font-size="14.00">(c == &#39;&#45;&#39;)</text>
</g>
<!-- D3&#45;&gt;D4 -->
<g id="edge4" class="edge">
<title>D3:s&#45;&gt;D4:n</title>
<path fill="none" stroke="black" d="M112.75,-360C112.75,-335.75 74.31,-347.34 62.9,-333.74"/>
<polygon fill="black" stroke="black" points="66.16,-332.43 59.75,-324 59.5,-334.59 66.16,-332.43"/>
<text text-anchor="middle" x="80.83" y="-345.81" font-family="Times,serif" font-size="14.00">Y</text>
</g>
<!-- D8 -->
<g id="node9" class="node">
<title>D8</title>
<polygon fill="none" stroke="black" points="263.75,-324 137.9,-306 263.75,-288 389.59,-306 263.75,-324"/>
<text text-anchor="middle" x="263.75" y="-302.3" font-family="Times,serif" font-size="14.00">(c &gt;= &#39;0&#39; &amp;&amp; c &lt;= &#39;9&#39;)</text>
</g>
<!-- D3&#45;&gt;D8 -->
<g id="edge5" class="edge">
<title>D3:e&#45;&gt;D8:n</title>
<path fill="none" stroke="black" d="M210.75,-378C240.83,-378 259.5,-361.7 263.1,-334.19"/>
<polygon fill="black" stroke="black" points="266.61,-334.2 263.75,-324 259.62,-333.76 266.61,-334.2"/>
<text text-anchor="middle" x="244.9" y="-366.84" font-family="Times,serif" font-size="14.00">N</text>
</g>
<!-- D5 -->
<g id="node6" class="node">
<title>D5</title>
<polygon fill="none" stroke="black" points="88.75,-252 34.75,-252 34.75,-216 88.75,-216 88.75,-252"/>
<text text-anchor="middle" x="61.75" y="-230.3" font-family="Times,serif" font-size="14.00">f = &#45;1;</text>
</g>
<!-- D4&#45;&gt;D5 -->
<g id="edge6" class="edge">
<title>D4:s&#45;&gt;D5:n</title>
<path fill="none" stroke="black" d="M59.75,-288C59.75,-275.98 60.87,-270.75 61.43,-262.13"/>
<polygon fill="black" stroke="black" points="64.94,-262.1 61.75,-252 57.94,-261.89 64.94,-262.1"/>
<text text-anchor="middle" x="55.22" y="-274.03" font-family="Times,serif" font-size="14.00">Y</text>
</g>
<!-- D6 -->
<g id="node7" class="node">
<title>D6</title>
<polygon fill="none" stroke="black" points="165.75,-180 73.75,-180 73.75,-144 165.75,-144 165.75,-180"/>
<text text-anchor="middle" x="119.75" y="-158.3" font-family="Times,serif" font-size="14.00">c = getchar();</text>
</g>
<!-- D4&#45;&gt;D6 -->
<g id="edge7" class="edge">
<title>D4:e&#45;&gt;D6:n</title>
<path fill="none" stroke="black" d="M120.75,-306C132.89,-306 123.22,-221.77 120.44,-190.27"/>
<polygon fill="black" stroke="black" points="123.91,-189.74 119.75,-180 116.92,-190.21 123.91,-189.74"/>
<text text-anchor="middle" x="119.59" y="-246.35" font-family="Times,serif" font-size="14.00">N</text>
</g>
<!-- D5&#45;&gt;D6 -->
<g id="edge8" class="edge">
<title>D5&#45;&gt;D6</title>
<path fill="none" stroke="black" d="M76.08,-215.7C83.04,-207.3 91.52,-197.07 99.15,-187.86"/>
<polygon fill="black" stroke="black" points="101.89,-190.04 105.57,-180.1 96.5,-185.57 101.89,-190.04"/>
</g>
<!-- D7 -->
<g id="node8" class="node">
<title>D7</title>
<polygon fill="none" stroke="black" points="230.75,-108 176.75,-108 176.75,-72 230.75,-72 230.75,-108"/>
<text text-anchor="middle" x="203.75" y="-86.3" font-family="Times,serif" font-size="14.00">return;</text>
</g>
<!-- D6&#45;&gt;D7 -->
<g id="edge9" class="edge">
<title>D6:s&#45;&gt;D7:n</title>
<path fill="none" stroke="black" d="M119.75,-144C119.75,-107.51 187.55,-140.31 201.32,-117.9"/>
<polygon fill="black" stroke="black" points="204.77,-118.55 203.75,-108 197.97,-116.88 204.77,-118.55"/>
</g>
<!-- D12 -->
<g id="node13" class="node">
<title>D12</title>
<path fill="none" stroke="black" d="M261.75,-36C261.75,-36 231.75,-36 231.75,-36 225.75,-36 219.75,-30 219.75,-24 219.75,-24 219.75,-12 219.75,-12 219.75,-6 225.75,0 231.75,0 231.75,0 261.75,0 261.75,0 267.75,0 273.75,-6 273.75,-12 273.75,-12 273.75,-24 273.75,-24 273.75,-30 267.75,-36 261.75,-36"/>
<text text-anchor="middle" x="246.75" y="-14.3" font-family="Times,serif" font-size="14.00">End</text>
</g>
<!-- D7&#45;&gt;D12 -->
<g id="edge10" class="edge">
<title>D7&#45;&gt;D12</title>
<path fill="none" stroke="black" d="M214.37,-71.7C219.37,-63.56 225.44,-53.69 230.96,-44.7"/>
<polygon fill="black" stroke="black" points="233.99,-46.46 236.24,-36.1 228.02,-42.79 233.99,-46.46"/>
</g>
<!-- D9 -->
<g id="node10" class="node">
<title>D9</title>
<polygon fill="none" stroke="black" points="296.75,-252 174.75,-252 174.75,-216 296.75,-216 296.75,-252"/>
<text text-anchor="middle" x="235.75" y="-230.3" font-family="Times,serif" font-size="14.00">x = x * 10 + c &#45; &#39;0&#39;;</text>
</g>
<!-- D8&#45;&gt;D9 -->
<g id="edge11" class="edge">
<title>D8:s&#45;&gt;D9:n</title>
<path fill="none" stroke="black" d="M263.75,-288C263.75,-271.85 245.96,-271.45 238.74,-261.7"/>
<polygon fill="black" stroke="black" points="242.04,-260.52 235.75,-252 235.35,-262.59 242.04,-260.52"/>
<text text-anchor="middle" x="244.07" y="-273.7" font-family="Times,serif" font-size="14.00">Y</text>
</g>
<!-- D11 -->
<g id="node12" class="node">
<title>D11</title>
<polygon fill="none" stroke="black" points="374.25,-108 291.25,-108 291.25,-72 374.25,-72 374.25,-108"/>
<text text-anchor="middle" x="332.75" y="-86.3" font-family="Times,serif" font-size="14.00">return x * f;</text>
</g>
<!-- D8&#45;&gt;D11 -->
<g id="edge12" class="edge">
<title>D8:e&#45;&gt;D11:n</title>
<path fill="none" stroke="black" d="M390.75,-306C398.76,-306 391.19,-295.88 389.75,-288 375.28,-209 336.3,-193.21 332.97,-118.44"/>
<polygon fill="black" stroke="black" points="336.46,-117.92 332.75,-108 329.46,-118.07 336.46,-117.92"/>
<text text-anchor="middle" x="354.79" y="-211.43" font-family="Times,serif" font-size="14.00">N</text>
</g>
<!-- D10 -->
<g id="node11" class="node">
<title>D10</title>
<polygon fill="none" stroke="black" points="314.75,-180 222.75,-180 222.75,-144 314.75,-144 314.75,-180"/>
<text text-anchor="middle" x="268.75" y="-158.3" font-family="Times,serif" font-size="14.00">c = getchar();</text>
</g>
<!-- D9&#45;&gt;D10 -->
<g id="edge13" class="edge">
<title>D9:s&#45;&gt;D10:n</title>
<path fill="none" stroke="black" d="M235.75,-216C235.75,-198.53 257.11,-199.92 265.46,-189.82"/>
<polygon fill="black" stroke="black" points="268.89,-190.59 268.75,-180 262.25,-188.37 268.89,-190.59"/>
</g>
<!-- D10&#45;&gt;D8 -->
<g id="edge14" class="edge">
<title>D10&#45;&gt;D8</title>
<path fill="none" stroke="black" d="M284.78,-180.15C292.76,-189.88 301.57,-202.73 305.75,-216 310.55,-231.26 311.01,-236.89 305.75,-252 301.84,-263.21 294.48,-273.82 286.99,-282.57"/>
<polygon fill="black" stroke="black" points="284.33,-280.3 280.17,-290.04 289.5,-285.01 284.33,-280.3"/>
</g>
<!-- D11&#45;&gt;D12 -->
<g id="edge15" class="edge">
<title>D11&#45;&gt;D12</title>
<path fill="none" stroke="black" d="M311.49,-71.7C300.66,-62.88 287.33,-52.03 275.58,-42.47"/>
<polygon fill="black" stroke="black" points="277.72,-39.7 267.76,-36.1 273.31,-45.13 277.72,-39.7"/>
</g>
</g>
</svg>
