<?xml version="1.0" encoding="UTF-8" standalone="no"?>
<!DOCTYPE svg PUBLIC "-//W3C//DTD SVG 1.1//EN"
 "http://www.w3.org/Graphics/SVG/1.1/DTD/svg11.dtd">
<!-- Generated by graphviz version 2.48.0 (20210717.1556)
 -->
<!-- Pages: 1 -->
<svg width="425pt" height="620pt"
 viewBox="0.00 0.00 425.11 620.00" xmlns="http://www.w3.org/2000/svg" xmlns:xlink="http://www.w3.org/1999/xlink">
<g id="graph0" class="graph" transform="scale(1 1) rotate(0) translate(4 616)">
<polygon fill="white" stroke="transparent" points="-4,4 -4,-616 421.11,-616 421.11,4 -4,4"/>
<!-- D0 -->
<g id="node1" class="node">
<title>D0</title>
<path fill="none" stroke="black" d="M136.26,-612C136.26,-612 106.26,-612 106.26,-612 100.26,-612 94.26,-606 94.26,-600 94.26,-600 94.26,-588 94.26,-588 94.26,-582 100.26,-576 106.26,-576 106.26,-576 136.26,-576 136.26,-576 142.26,-576 148.26,-582 148.26,-588 148.26,-588 148.26,-600 148.26,-600 148.26,-606 142.26,-612 136.26,-612"/>
<text text-anchor="middle" x="121.26" y="-590.3" font-family="Times,serif" font-size="14.00">Start</text>
</g>
<!-- D1 -->
<g id="node2" class="node">
<title>D1</title>
<polygon fill="none" stroke="black" points="181.26,-540 61.26,-540 61.26,-504 181.26,-504 181.26,-540"/>
<text text-anchor="middle" x="121.26" y="-518.3" font-family="Times,serif" font-size="14.00">char c = getchar();</text>
</g>
<!-- D0&#45;&gt;D1 -->
<g id="edge1" class="edge">
<title>D0:s&#45;&gt;D1:n</title>
<path fill="none" stroke="black" d="M121.26,-576C121.26,-564 121.26,-558.75 121.26,-550.12"/>
<polygon fill="black" stroke="black" points="124.76,-550 121.26,-540 117.76,-550 124.76,-550"/>
</g>
<!-- D2 -->
<g id="node3" class="node">
<title>D2</title>
<polygon fill="none" stroke="black" points="171.76,-468 70.76,-468 70.76,-432 171.76,-432 171.76,-468"/>
<text text-anchor="middle" x="121.26" y="-446.3" font-family="Times,serif" font-size="14.00">int x = 0, f = 1;</text>
</g>
<!-- D1&#45;&gt;D2 -->
<g id="edge2" class="edge">
<title>D1:s&#45;&gt;D2:n</title>
<path fill="none" stroke="black" d="M121.26,-504C121.26,-492 121.26,-486.75 121.26,-478.12"/>
<polygon fill="black" stroke="black" points="124.76,-478 121.26,-468 117.76,-478 124.76,-478"/>
</g>
<!-- D3 -->
<g id="node4" class="node">
<title>D3</title>
<polygon fill="none" stroke="black" points="121.26,-396 19.21,-378 121.26,-360 223.31,-378 121.26,-396"/>
<text text-anchor="middle" x="121.26" y="-374.3" font-family="Times,serif" font-size="14.00">(c &lt; &#39;0&#39; || c &gt; &#39;9&#39;)?</text>
</g>
<!-- D2&#45;&gt;D3 -->
<g id="edge3" class="edge">
<title>D2:s&#45;&gt;D3:n</title>
<path fill="none" stroke="black" d="M121.26,-432C121.26,-420 121.26,-414.75 121.26,-406.12"/>
<polygon fill="black" stroke="black" points="124.76,-406 121.26,-396 117.76,-406 124.76,-406"/>
</g>
<!-- D4 -->
<g id="node5" class="node">
<title>D4</title>
<polygon fill="none" stroke="black" points="65.26,-324 0.24,-306 65.26,-288 130.28,-306 65.26,-324"/>
<text text-anchor="middle" x="65.26" y="-302.3" font-family="Times,serif" font-size="14.00">(c == &#39;&#45;&#39;)?</text>
</g>
<!-- D3&#45;&gt;D4 -->
<g id="edge4" class="edge">
<title>D3:s&#45;&gt;D4:n</title>
<path fill="none" stroke="black" d="M121.26,-360C121.26,-334.57 79.9,-348.11 68.27,-333.65"/>
<polygon fill="black" stroke="black" points="71.58,-332.5 65.26,-324 64.9,-334.59 71.58,-332.5"/>
<text text-anchor="middle" x="87.46" y="-345.77" font-family="Times,serif" font-size="14.00">Y</text>
</g>
<!-- D8 -->
<g id="node9" class="node">
<title>D8</title>
<polygon fill="none" stroke="black" points="280.26,-324 148.88,-306 280.26,-288 411.64,-306 280.26,-324"/>
<text text-anchor="middle" x="280.26" y="-302.3" font-family="Times,serif" font-size="14.00">(c &gt;= &#39;0&#39; &amp;&amp; c &lt;= &#39;9&#39;)?</text>
</g>
<!-- D3&#45;&gt;D8 -->
<g id="edge5" class="edge">
<title>D3:e&#45;&gt;D8:n</title>
<path fill="none" stroke="black" d="M224.26,-378C255.32,-378 275.77,-362.32 279.61,-334.06"/>
<polygon fill="black" stroke="black" points="283.1,-334.21 280.26,-324 276.12,-333.75 283.1,-334.21"/>
<text text-anchor="middle" x="259.22" y="-368.24" font-family="Times,serif" font-size="14.00">N</text>
</g>
<!-- D5 -->
<g id="node6" class="node">
<title>D5</title>
<polygon fill="none" stroke="black" points="97.26,-252 43.26,-252 43.26,-216 97.26,-216 97.26,-252"/>
<text text-anchor="middle" x="70.26" y="-230.3" font-family="Times,serif" font-size="14.00">f = &#45;1;</text>
</g>
<!-- D4&#45;&gt;D5 -->
<g id="edge6" class="edge">
<title>D4:s&#45;&gt;D5:n</title>
<path fill="none" stroke="black" d="M65.26,-288C65.26,-275.88 68.07,-270.78 69.48,-262.17"/>
<polygon fill="black" stroke="black" points="72.98,-262.24 70.26,-252 66,-261.7 72.98,-262.24"/>
<text text-anchor="middle" x="62.2" y="-274.03" font-family="Times,serif" font-size="14.00">Y</text>
</g>
<!-- D6 -->
<g id="node7" class="node">
<title>D6</title>
<polygon fill="none" stroke="black" points="176.26,-180 84.26,-180 84.26,-144 176.26,-144 176.26,-180"/>
<text text-anchor="middle" x="130.26" y="-158.3" font-family="Times,serif" font-size="14.00">c = getchar();</text>
</g>
<!-- D4&#45;&gt;D6 -->
<g id="edge7" class="edge">
<title>D4:e&#45;&gt;D6:n</title>
<path fill="none" stroke="black" d="M131.26,-306C143.4,-306 133.73,-221.77 130.95,-190.27"/>
<polygon fill="black" stroke="black" points="134.42,-189.74 130.26,-180 127.44,-190.21 134.42,-189.74"/>
<text text-anchor="middle" x="130.11" y="-246.35" font-family="Times,serif" font-size="14.00">N</text>
</g>
<!-- D5&#45;&gt;D6 -->
<g id="edge8" class="edge">
<title>D5&#45;&gt;D6</title>
<path fill="none" stroke="black" d="M85.09,-215.7C92.28,-207.3 101.06,-197.07 108.95,-187.86"/>
<polygon fill="black" stroke="black" points="111.75,-189.97 115.6,-180.1 106.43,-185.42 111.75,-189.97"/>
</g>
<!-- D7 -->
<g id="node8" class="node">
<title>D7</title>
<polygon fill="none" stroke="black" points="245.26,-108 191.26,-108 191.26,-72 245.26,-72 245.26,-108"/>
<text text-anchor="middle" x="218.26" y="-86.3" font-family="Times,serif" font-size="14.00">return;</text>
</g>
<!-- D6&#45;&gt;D7 -->
<g id="edge9" class="edge">
<title>D6:s&#45;&gt;D7:n</title>
<path fill="none" stroke="black" d="M130.26,-144C130.26,-105.87 201.91,-141.65 215.91,-117.95"/>
<polygon fill="black" stroke="black" points="219.36,-118.54 218.26,-108 212.55,-116.93 219.36,-118.54"/>
</g>
<!-- D12 -->
<g id="node13" class="node">
<title>D12</title>
<path fill="none" stroke="black" d="M276.26,-36C276.26,-36 246.26,-36 246.26,-36 240.26,-36 234.26,-30 234.26,-24 234.26,-24 234.26,-12 234.26,-12 234.26,-6 240.26,0 246.26,0 246.26,0 276.26,0 276.26,0 282.26,0 288.26,-6 288.26,-12 288.26,-12 288.26,-24 288.26,-24 288.26,-30 282.26,-36 276.26,-36"/>
<text text-anchor="middle" x="261.26" y="-14.3" font-family="Times,serif" font-size="14.00">End</text>
</g>
<!-- D7&#45;&gt;D12 -->
<g id="edge10" class="edge">
<title>D7&#45;&gt;D12</title>
<path fill="none" stroke="black" d="M228.89,-71.7C233.89,-63.56 239.95,-53.69 245.47,-44.7"/>
<polygon fill="black" stroke="black" points="248.5,-46.46 250.75,-36.1 242.54,-42.79 248.5,-46.46"/>
</g>
<!-- D9 -->
<g id="node10" class="node">
<title>D9</title>
<polygon fill="none" stroke="black" points="310.26,-252 188.26,-252 188.26,-216 310.26,-216 310.26,-252"/>
<text text-anchor="middle" x="249.26" y="-230.3" font-family="Times,serif" font-size="14.00">x = x * 10 + c &#45; &#39;0&#39;;</text>
</g>
<!-- D8&#45;&gt;D9 -->
<g id="edge11" class="edge">
<title>D8:s&#45;&gt;D9:n</title>
<path fill="none" stroke="black" d="M280.26,-288C280.26,-271.01 260.19,-271.72 252.35,-261.65"/>
<polygon fill="black" stroke="black" points="255.64,-260.46 249.26,-252 248.97,-262.59 255.64,-260.46"/>
<text text-anchor="middle" x="259.42" y="-273.87" font-family="Times,serif" font-size="14.00">Y</text>
</g>
<!-- D11 -->
<g id="node12" class="node">
<title>D11</title>
<polygon fill="none" stroke="black" points="390.76,-108 307.76,-108 307.76,-72 390.76,-72 390.76,-108"/>
<text text-anchor="middle" x="349.26" y="-86.3" font-family="Times,serif" font-size="14.00">return x * f;</text>
</g>
<!-- D8&#45;&gt;D11 -->
<g id="edge12" class="edge">
<title>D8:e&#45;&gt;D11:n</title>
<path fill="none" stroke="black" d="M413.26,-306C421.27,-306 413.82,-295.86 412.26,-288 396.42,-208.28 353.02,-193.87 349.49,-118.07"/>
<polygon fill="black" stroke="black" points="352.99,-117.92 349.26,-108 345.99,-118.08 352.99,-117.92"/>
<text text-anchor="middle" x="374.21" y="-211.33" font-family="Times,serif" font-size="14.00">N</text>
</g>
<!-- D10 -->
<g id="node11" class="node">
<title>D10</title>
<polygon fill="none" stroke="black" points="331.26,-180 239.26,-180 239.26,-144 331.26,-144 331.26,-180"/>
<text text-anchor="middle" x="285.26" y="-158.3" font-family="Times,serif" font-size="14.00">c = getchar();</text>
</g>
<!-- D9&#45;&gt;D10 -->
<g id="edge13" class="edge">
<title>D9:s&#45;&gt;D10:n</title>
<path fill="none" stroke="black" d="M249.26,-216C249.26,-197.62 273.03,-200.28 281.94,-189.79"/>
<polygon fill="black" stroke="black" points="285.36,-190.59 285.26,-180 278.73,-188.34 285.36,-190.59"/>
</g>
<!-- D10&#45;&gt;D8 -->
<g id="edge14" class="edge">
<title>D10&#45;&gt;D8</title>
<path fill="none" stroke="black" d="M300.01,-180.37C307.35,-190.15 315.45,-202.99 319.26,-216 323.76,-231.35 324.25,-236.8 319.26,-252 315.7,-262.86 308.96,-273.32 302.08,-282.04"/>
<polygon fill="black" stroke="black" points="299.29,-279.92 295.54,-289.83 304.65,-284.43 299.29,-279.92"/>
</g>
<!-- D11&#45;&gt;D12 -->
<g id="edge15" class="edge">
<title>D11&#45;&gt;D12</title>
<path fill="none" stroke="black" d="M327.51,-71.7C316.42,-62.88 302.79,-52.03 290.77,-42.47"/>
<polygon fill="black" stroke="black" points="292.77,-39.59 282.76,-36.1 288.41,-45.07 292.77,-39.59"/>
</g>
</g>
</svg>
