<?xml version="1.0" encoding="UTF-8" standalone="no"?>
<!DOCTYPE svg PUBLIC "-//W3C//DTD SVG 1.1//EN"
 "http://www.w3.org/Graphics/SVG/1.1/DTD/svg11.dtd">
<!-- Generated by graphviz version 2.50.0 (0)
 -->
<!-- Pages: 1 -->
<svg width="499pt" height="548pt"
 viewBox="0.00 0.00 499.03 548.00" xmlns="http://www.w3.org/2000/svg" xmlns:xlink="http://www.w3.org/1999/xlink">
<g id="graph0" class="graph" transform="scale(1 1) rotate(0) translate(4 544)">
<polygon fill="white" stroke="transparent" points="-4,4 -4,-544 495.03,-544 495.03,4 -4,4"/>
<!-- D0 -->
<g id="node1" class="node">
<title>D0</title>
<path fill="none" stroke="black" d="M117.03,-540C117.03,-540 87.03,-540 87.03,-540 81.03,-540 75.03,-534 75.03,-528 75.03,-528 75.03,-516 75.03,-516 75.03,-510 81.03,-504 87.03,-504 87.03,-504 117.03,-504 117.03,-504 123.03,-504 129.03,-510 129.03,-516 129.03,-516 129.03,-528 129.03,-528 129.03,-534 123.03,-540 117.03,-540"/>
<text text-anchor="middle" x="102.03" y="-518.3" font-family="Times,serif" font-size="14.00">begin</text>
</g>
<!-- D4 -->
<g id="node3" class="node">
<title>D4</title>
<polygon fill="none" stroke="black" points="161.03,-468 43.03,-468 43.03,-432 161.03,-432 161.03,-468"/>
<text text-anchor="middle" x="102.03" y="-446.3" font-family="Times,serif" font-size="14.00">char c = getchar();</text>
</g>
<!-- D0&#45;&gt;D4 -->
<g id="edge14" class="edge">
<title>D0&#45;&gt;D4</title>
<path fill="none" stroke="black" d="M102.03,-503.7C102.03,-495.98 102.03,-486.71 102.03,-478.11"/>
<polygon fill="black" stroke="black" points="105.53,-478.1 102.03,-468.1 98.53,-478.1 105.53,-478.1"/>
</g>
<!-- D1 -->
<g id="node2" class="node">
<title>D1</title>
<path fill="none" stroke="black" d="M465.03,-36C465.03,-36 435.03,-36 435.03,-36 429.03,-36 423.03,-30 423.03,-24 423.03,-24 423.03,-12 423.03,-12 423.03,-6 429.03,0 435.03,0 435.03,0 465.03,0 465.03,0 471.03,0 477.03,-6 477.03,-12 477.03,-12 477.03,-24 477.03,-24 477.03,-30 471.03,-36 465.03,-36"/>
<text text-anchor="middle" x="450.03" y="-14.3" font-family="Times,serif" font-size="14.00">end</text>
</g>
<!-- D6 -->
<g id="node4" class="node">
<title>D6</title>
<polygon fill="none" stroke="black" points="153.03,-396 51.03,-396 51.03,-360 153.03,-360 153.03,-396"/>
<text text-anchor="middle" x="102.03" y="-374.3" font-family="Times,serif" font-size="14.00">int x = 0, f = 1;</text>
</g>
<!-- D4&#45;&gt;D6 -->
<g id="edge1" class="edge">
<title>D4&#45;&gt;D6</title>
<path fill="none" stroke="black" d="M102.03,-431.7C102.03,-423.98 102.03,-414.71 102.03,-406.11"/>
<polygon fill="black" stroke="black" points="105.53,-406.1 102.03,-396.1 98.53,-406.1 105.53,-406.1"/>
</g>
<!-- D8 -->
<g id="node5" class="node">
<title>D8</title>
<polygon fill="none" stroke="black" points="102.03,-324 -0.03,-306 102.03,-288 204.08,-306 102.03,-324"/>
<text text-anchor="middle" x="102.03" y="-302.3" font-family="Times,serif" font-size="14.00">(c &lt; &#39;0&#39; || c &gt; &#39;9&#39;)?</text>
</g>
<!-- D6&#45;&gt;D8 -->
<g id="edge2" class="edge">
<title>D6&#45;&gt;D8</title>
<path fill="none" stroke="black" d="M102.03,-359.7C102.03,-351.98 102.03,-342.71 102.03,-334.11"/>
<polygon fill="black" stroke="black" points="105.53,-334.1 102.03,-324.1 98.53,-334.1 105.53,-334.1"/>
</g>
<!-- D13 -->
<g id="node6" class="node">
<title>D13</title>
<polygon fill="none" stroke="black" points="102.03,-252 37.01,-234 102.03,-216 167.05,-234 102.03,-252"/>
<text text-anchor="middle" x="102.03" y="-230.3" font-family="Times,serif" font-size="14.00">(c == &#39;&#45;&#39;)?</text>
</g>
<!-- D8&#45;&gt;D13 -->
<g id="edge9" class="edge">
<title>D8:s&#45;&gt;D13:n</title>
<path fill="none" stroke="black" d="M102.03,-288C102.03,-276 102.03,-270.75 102.03,-262.12"/>
<polygon fill="black" stroke="black" points="105.53,-262 102.03,-252 98.53,-262 105.53,-262"/>
<text text-anchor="middle" x="97.03" y="-274.03" font-family="Times,serif" font-size="14.00">Y</text>
</g>
<!-- D20 -->
<g id="node9" class="node">
<title>D20</title>
<polygon fill="none" stroke="black" points="318.03,-252 185.81,-234 318.03,-216 450.24,-234 318.03,-252"/>
<text text-anchor="middle" x="318.03" y="-230.3" font-family="Times,serif" font-size="14.00">(c &gt;= &#39;0&#39; &amp;&amp; c &lt;= &#39;9&#39;)?</text>
</g>
<!-- D8&#45;&gt;D20 -->
<g id="edge3" class="edge">
<title>D8:e&#45;&gt;D20:n</title>
<path fill="none" stroke="black" d="M205.03,-306C229.6,-306 298.85,-285.61 314.75,-261.68"/>
<polygon fill="black" stroke="black" points="318.13,-262.59 318.03,-252 311.5,-260.35 318.13,-262.59"/>
<text text-anchor="middle" x="261.28" y="-295.45" font-family="Times,serif" font-size="14.00">N</text>
</g>
<!-- D16 -->
<g id="node7" class="node">
<title>D16</title>
<polygon fill="none" stroke="black" points="129.03,-180 75.03,-180 75.03,-144 129.03,-144 129.03,-180"/>
<text text-anchor="middle" x="102.03" y="-158.3" font-family="Times,serif" font-size="14.00">f = &#45;1;</text>
</g>
<!-- D13&#45;&gt;D16 -->
<g id="edge6" class="edge">
<title>D13:s&#45;&gt;D16:n</title>
<path fill="none" stroke="black" d="M102.03,-216C102.03,-204 102.03,-198.75 102.03,-190.12"/>
<polygon fill="black" stroke="black" points="105.53,-190 102.03,-180 98.53,-190 105.53,-190"/>
<text text-anchor="middle" x="97.03" y="-202.03" font-family="Times,serif" font-size="14.00">Y</text>
</g>
<!-- D18 -->
<g id="node8" class="node">
<title>D18</title>
<polygon fill="none" stroke="black" points="147.53,-108 56.53,-108 56.53,-72 147.53,-72 147.53,-108"/>
<text text-anchor="middle" x="102.03" y="-86.3" font-family="Times,serif" font-size="14.00">c = getchar();</text>
</g>
<!-- D13&#45;&gt;D18 -->
<g id="edge4" class="edge">
<title>D13:e&#45;&gt;D18:n</title>
<path fill="none" stroke="black" d="M168.03,-234C175.32,-234 162.52,-181.05 138.03,-144 127.89,-128.66 110.46,-129.42 104.28,-118.11"/>
<polygon fill="black" stroke="black" points="107.62,-117 102.03,-108 100.79,-118.52 107.62,-117"/>
<text text-anchor="middle" x="133.02" y="-132.79" font-family="Times,serif" font-size="14.00">N</text>
</g>
<!-- D16&#45;&gt;D18 -->
<g id="edge5" class="edge">
<title>D16&#45;&gt;D18</title>
<path fill="none" stroke="black" d="M102.03,-143.7C102.03,-135.98 102.03,-126.71 102.03,-118.11"/>
<polygon fill="black" stroke="black" points="105.53,-118.1 102.03,-108.1 98.53,-118.1 105.53,-118.1"/>
</g>
<!-- D18&#45;&gt;D8 -->
<g id="edge7" class="edge">
<title>D18&#45;&gt;D8</title>
<path fill="none" stroke="black" d="M87.36,-108.15C68.97,-130.97 38.58,-173.41 28.03,-216 24.18,-231.53 20.71,-237.77 28.03,-252 35.92,-267.36 50.57,-279.27 64.76,-287.87"/>
<polygon fill="black" stroke="black" points="63.04,-290.92 73.47,-292.8 66.49,-284.83 63.04,-290.92"/>
</g>
<!-- D25 -->
<g id="node10" class="node">
<title>D25</title>
<polygon fill="none" stroke="black" points="400.03,-180 278.03,-180 278.03,-144 400.03,-144 400.03,-180"/>
<text text-anchor="middle" x="339.03" y="-158.3" font-family="Times,serif" font-size="14.00">x = x * 10 + c &#45; &#39;0&#39;;</text>
</g>
<!-- D20&#45;&gt;D25 -->
<g id="edge12" class="edge">
<title>D20:s&#45;&gt;D25:n</title>
<path fill="none" stroke="black" d="M318.03,-216C318.03,-201.53 330.84,-199 336.45,-189.76"/>
<polygon fill="black" stroke="black" points="339.86,-190.56 339.03,-180 333.09,-188.78 339.86,-190.56"/>
<text text-anchor="middle" x="323.54" y="-201.79" font-family="Times,serif" font-size="14.00">Y</text>
</g>
<!-- D29 -->
<g id="node12" class="node">
<title>D29</title>
<polygon fill="none" stroke="black" points="491.03,-108 409.03,-108 409.03,-72 491.03,-72 491.03,-108"/>
<text text-anchor="middle" x="450.03" y="-86.3" font-family="Times,serif" font-size="14.00">return x * f;</text>
</g>
<!-- D20&#45;&gt;D29 -->
<g id="edge8" class="edge">
<title>D20:e&#45;&gt;D29:n</title>
<path fill="none" stroke="black" d="M451.03,-234C503.64,-234 456.51,-172.22 450.62,-118.31"/>
<polygon fill="black" stroke="black" points="454.09,-117.78 450.03,-108 447.1,-118.18 454.09,-117.78"/>
<text text-anchor="middle" x="458.19" y="-170.69" font-family="Times,serif" font-size="14.00">N</text>
</g>
<!-- D27 -->
<g id="node11" class="node">
<title>D27</title>
<polygon fill="none" stroke="black" points="339.53,-108 248.53,-108 248.53,-72 339.53,-72 339.53,-108"/>
<text text-anchor="middle" x="294.03" y="-86.3" font-family="Times,serif" font-size="14.00">c = getchar();</text>
</g>
<!-- D25&#45;&gt;D27 -->
<g id="edge10" class="edge">
<title>D25&#45;&gt;D27</title>
<path fill="none" stroke="black" d="M327.9,-143.7C322.67,-135.56 316.33,-125.69 310.55,-116.7"/>
<polygon fill="black" stroke="black" points="313.37,-114.62 305.02,-108.1 307.49,-118.41 313.37,-114.62"/>
</g>
<!-- D27&#45;&gt;D20 -->
<g id="edge11" class="edge">
<title>D27&#45;&gt;D20</title>
<path fill="none" stroke="black" d="M282.75,-108.06C272.23,-126.22 259.49,-155.64 269.03,-180 273.74,-192.03 282.6,-202.97 291.51,-211.75"/>
<polygon fill="black" stroke="black" points="289.2,-214.37 298.92,-218.58 293.95,-209.23 289.2,-214.37"/>
</g>
<!-- D29&#45;&gt;D1 -->
<g id="edge13" class="edge">
<title>D29&#45;&gt;D1</title>
<path fill="none" stroke="black" d="M450.03,-71.7C450.03,-63.98 450.03,-54.71 450.03,-46.11"/>
<polygon fill="black" stroke="black" points="453.53,-46.1 450.03,-36.1 446.53,-46.1 453.53,-46.1"/>
</g>
</g>
</svg>
