<?xml version="1.0" encoding="UTF-8" standalone="no"?>
<!DOCTYPE svg PUBLIC "-//W3C//DTD SVG 1.1//EN"
 "http://www.w3.org/Graphics/SVG/1.1/DTD/svg11.dtd">
<!-- Generated by graphviz version 2.48.0 (20210717.1556)
 -->
<!-- Pages: 1 -->
<svg width="853pt" height="1484pt"
 viewBox="0.00 0.00 853.00 1484.00" xmlns="http://www.w3.org/2000/svg" xmlns:xlink="http://www.w3.org/1999/xlink">
<g id="graph0" class="graph" transform="scale(1 1) rotate(0) translate(4 1480)">
<polygon fill="white" stroke="transparent" points="-4,4 -4,-1480 849,-1480 849,4 -4,4"/>
<!-- D0 -->
<g id="node1" class="node">
<title>D0</title>
<path fill="none" stroke="black" d="M279,-1476C279,-1476 249,-1476 249,-1476 243,-1476 237,-1470 237,-1464 237,-1464 237,-1452 237,-1452 237,-1446 243,-1440 249,-1440 249,-1440 279,-1440 279,-1440 285,-1440 291,-1446 291,-1452 291,-1452 291,-1464 291,-1464 291,-1470 285,-1476 279,-1476"/>
<text text-anchor="middle" x="264" y="-1454.3" font-family="Times,serif" font-size="14.00">Start</text>
</g>
<!-- D1 -->
<g id="node2" class="node">
<title>D1</title>
<polygon fill="none" stroke="black" points="322.5,-1404 205.5,-1404 205.5,-1368 322.5,-1368 322.5,-1404"/>
<text text-anchor="middle" x="264" y="-1382.3" font-family="Times,serif" font-size="14.00">const mint* c = a;</text>
</g>
<!-- D0&#45;&gt;D1 -->
<g id="edge1" class="edge">
<title>D0:s&#45;&gt;D1:n</title>
<path fill="none" stroke="black" d="M264,-1440C264,-1440 264,-1424.86 264,-1414.22"/>
<polygon fill="black" stroke="black" points="267.5,-1414 264,-1404 260.5,-1414 267.5,-1414"/>
</g>
<!-- D2 -->
<g id="node3" class="node">
<title>D2</title>
<polygon fill="none" stroke="black" points="264,-1332 154.74,-1314 264,-1296 373.26,-1314 264,-1332"/>
<text text-anchor="middle" x="264" y="-1310.3" font-family="Times,serif" font-size="14.00">(a&#45;&gt;len &gt; b&#45;&gt;len)?</text>
</g>
<!-- D1&#45;&gt;D2 -->
<g id="edge2" class="edge">
<title>D1:s&#45;&gt;D2:n</title>
<path fill="none" stroke="black" d="M264,-1368C264,-1368 264,-1352.86 264,-1342.22"/>
<polygon fill="black" stroke="black" points="267.5,-1342 264,-1332 260.5,-1342 267.5,-1342"/>
</g>
<!-- D3 -->
<g id="node4" class="node">
<title>D3</title>
<polygon fill="none" stroke="black" points="325,-1260 241,-1260 241,-1224 325,-1224 325,-1260"/>
<text text-anchor="middle" x="283" y="-1238.3" font-family="Times,serif" font-size="14.00">a = b, b = c;</text>
</g>
<!-- D2&#45;&gt;D3 -->
<g id="edge3" class="edge">
<title>D2:s&#45;&gt;D3:n</title>
<path fill="none" stroke="black" d="M264,-1296C264,-1296 272.58,-1279.75 278.21,-1269.08"/>
<polygon fill="black" stroke="black" points="281.43,-1270.48 283,-1260 275.24,-1267.21 281.43,-1270.48"/>
<text text-anchor="middle" x="265.6" y="-1271.34" font-family="Times,serif" font-size="14.00">Y</text>
</g>
<!-- D4 -->
<g id="node5" class="node">
<title>D4</title>
<polygon fill="none" stroke="black" points="364,-1188 310,-1188 310,-1152 364,-1152 364,-1188"/>
<text text-anchor="middle" x="337" y="-1166.3" font-family="Times,serif" font-size="14.00">mint t;</text>
</g>
<!-- D2&#45;&gt;D4 -->
<g id="edge4" class="edge">
<title>D2:e&#45;&gt;D4:n</title>
<path fill="none" stroke="black" d="M374,-1314C374,-1314 373,-1296 373,-1296 373,-1296 349.01,-1224.02 340.19,-1197.58"/>
<polygon fill="black" stroke="black" points="343.48,-1196.38 337,-1188 336.84,-1198.59 343.48,-1196.38"/>
<text text-anchor="middle" x="353.95" y="-1259.14" font-family="Times,serif" font-size="14.00">N</text>
</g>
<!-- D3&#45;&gt;D4 -->
<g id="edge5" class="edge">
<title>D3&#45;&gt;D4</title>
<path fill="none" stroke="black" d="M296.35,-1223.7C302.76,-1215.39 310.56,-1205.28 317.61,-1196.14"/>
<polygon fill="black" stroke="black" points="320.47,-1198.16 323.81,-1188.1 314.93,-1193.88 320.47,-1198.16"/>
</g>
<!-- D5 -->
<g id="node6" class="node">
<title>D5</title>
<polygon fill="none" stroke="black" points="415,-1116 259,-1116 259,-1080 415,-1080 415,-1116"/>
<text text-anchor="middle" x="337" y="-1094.3" font-family="Times,serif" font-size="14.00">memset(&amp;t, 0, sizeof(t));</text>
</g>
<!-- D4&#45;&gt;D5 -->
<g id="edge6" class="edge">
<title>D4:s&#45;&gt;D5:n</title>
<path fill="none" stroke="black" d="M337,-1152C337,-1152 337,-1136.86 337,-1126.22"/>
<polygon fill="black" stroke="black" points="340.5,-1126 337,-1116 333.5,-1126 340.5,-1126"/>
</g>
<!-- D6 -->
<g id="node7" class="node">
<title>D6</title>
<polygon fill="none" stroke="black" points="370.5,-1044 303.5,-1044 303.5,-1008 370.5,-1008 370.5,-1044"/>
<text text-anchor="middle" x="337" y="-1022.3" font-family="Times,serif" font-size="14.00">t.len = 1;</text>
</g>
<!-- D5&#45;&gt;D6 -->
<g id="edge7" class="edge">
<title>D5:s&#45;&gt;D6:n</title>
<path fill="none" stroke="black" d="M337,-1080C337,-1080 337,-1064.86 337,-1054.22"/>
<polygon fill="black" stroke="black" points="340.5,-1054 337,-1044 333.5,-1054 340.5,-1054"/>
</g>
<!-- D7 -->
<g id="node8" class="node">
<title>D7</title>
<polygon fill="none" stroke="black" points="369,-972 305,-972 305,-936 369,-936 369,-972"/>
<text text-anchor="middle" x="337" y="-950.3" font-family="Times,serif" font-size="14.00">int i = 0;</text>
</g>
<!-- D6&#45;&gt;D7 -->
<g id="edge8" class="edge">
<title>D6:s&#45;&gt;D7:n</title>
<path fill="none" stroke="black" d="M337,-1008C337,-1008 337,-992.86 337,-982.22"/>
<polygon fill="black" stroke="black" points="340.5,-982 337,-972 333.5,-982 340.5,-982"/>
</g>
<!-- D8 -->
<g id="node9" class="node">
<title>D8</title>
<polygon fill="none" stroke="black" points="337,-900 266.45,-882 337,-864 407.55,-882 337,-900"/>
<text text-anchor="middle" x="337" y="-878.3" font-family="Times,serif" font-size="14.00">i &lt; a&#45;&gt;len?</text>
</g>
<!-- D7&#45;&gt;D8 -->
<g id="edge9" class="edge">
<title>D7:s&#45;&gt;D8:n</title>
<path fill="none" stroke="black" d="M337,-936C337,-936 337,-920.86 337,-910.22"/>
<polygon fill="black" stroke="black" points="340.5,-910 337,-900 333.5,-910 340.5,-910"/>
</g>
<!-- D9 -->
<g id="node10" class="node">
<title>D9</title>
<polygon fill="none" stroke="black" points="255,-828 191,-828 191,-792 255,-792 255,-828"/>
<text text-anchor="middle" x="223" y="-806.3" font-family="Times,serif" font-size="14.00">int j = 0;</text>
</g>
<!-- D8&#45;&gt;D9 -->
<g id="edge10" class="edge">
<title>D8:s&#45;&gt;D9:n</title>
<path fill="none" stroke="black" d="M337,-864C337,-864 260.29,-839.78 232.72,-831.07"/>
<polygon fill="black" stroke="black" points="233.59,-827.67 223,-828 231.48,-834.35 233.59,-827.67"/>
<text text-anchor="middle" x="279.36" y="-851.33" font-family="Times,serif" font-size="14.00">Y</text>
</g>
<!-- D23 -->
<g id="node24" class="node">
<title>D23</title>
<polygon fill="none" stroke="black" points="449,-828 385,-828 385,-792 449,-792 449,-828"/>
<text text-anchor="middle" x="417" y="-806.3" font-family="Times,serif" font-size="14.00">int j = 0;</text>
</g>
<!-- D8&#45;&gt;D23 -->
<g id="edge11" class="edge">
<title>D8:e&#45;&gt;D23:n</title>
<path fill="none" stroke="black" d="M409,-882C409,-882 413.22,-853.49 415.53,-837.9"/>
<polygon fill="black" stroke="black" points="419,-838.4 417,-828 412.07,-837.38 419,-838.4"/>
<text text-anchor="middle" x="406.77" y="-848.75" font-family="Times,serif" font-size="14.00">N</text>
</g>
<!-- D10 -->
<g id="node11" class="node">
<title>D10</title>
<polygon fill="none" stroke="black" points="135,-756 63.11,-738 135,-720 206.89,-738 135,-756"/>
<text text-anchor="middle" x="135" y="-734.3" font-family="Times,serif" font-size="14.00">j &lt; b&#45;&gt;len?</text>
</g>
<!-- D9&#45;&gt;D10 -->
<g id="edge12" class="edge">
<title>D9:s&#45;&gt;D10:n</title>
<path fill="none" stroke="black" d="M223,-792C223,-792 167.12,-769.14 144.42,-759.85"/>
<polygon fill="black" stroke="black" points="145.58,-756.55 135,-756 142.93,-763.03 145.58,-756.55"/>
</g>
<!-- D11 -->
<g id="node12" class="node">
<title>D11</title>
<polygon fill="none" stroke="black" points="191,-684 9,-684 9,-648 191,-648 191,-684"/>
<text text-anchor="middle" x="100" y="-662.3" font-family="Times,serif" font-size="14.00">t.d[i + j] += a&#45;&gt;d[i] * b&#45;&gt;d[j];</text>
</g>
<!-- D10&#45;&gt;D11 -->
<g id="edge13" class="edge">
<title>D10:s&#45;&gt;D11:n</title>
<path fill="none" stroke="black" d="M135,-720C135,-720 117.31,-701.8 107.08,-691.29"/>
<polygon fill="black" stroke="black" points="109.48,-688.73 100,-684 104.46,-693.61 109.48,-688.73"/>
<text text-anchor="middle" x="115.54" y="-709.44" font-family="Times,serif" font-size="14.00">Y</text>
</g>
<!-- D13 -->
<g id="node14" class="node">
<title>D13</title>
<polygon fill="none" stroke="black" points="273,-684 209,-684 209,-648 273,-648 273,-684"/>
<text text-anchor="middle" x="241" y="-662.3" font-family="Times,serif" font-size="14.00">int j = 0;</text>
</g>
<!-- D10&#45;&gt;D13 -->
<g id="edge14" class="edge">
<title>D10:e&#45;&gt;D13:n</title>
<path fill="none" stroke="black" d="M208,-738C208,-738 226.18,-708.25 235.55,-692.92"/>
<polygon fill="black" stroke="black" points="238.77,-694.36 241,-684 232.8,-690.71 238.77,-694.36"/>
<text text-anchor="middle" x="216.28" y="-719.26" font-family="Times,serif" font-size="14.00">N</text>
</g>
<!-- D12 -->
<g id="node13" class="node">
<title>D12</title>
<polygon fill="none" stroke="black" points="103,-612 49,-612 49,-576 103,-576 103,-612"/>
<text text-anchor="middle" x="76" y="-590.3" font-family="Times,serif" font-size="14.00">++j</text>
</g>
<!-- D11&#45;&gt;D12 -->
<g id="edge15" class="edge">
<title>D11:s&#45;&gt;D12:n</title>
<path fill="none" stroke="black" d="M100,-648C100,-648 88.66,-630.98 81.57,-620.35"/>
<polygon fill="black" stroke="black" points="84.46,-618.38 76,-612 78.63,-622.26 84.46,-618.38"/>
</g>
<!-- D12&#45;&gt;D10 -->
<g id="edge16" class="edge">
<title>D12&#45;&gt;D10</title>
<path fill="none" stroke="black" d="M51.53,-612.06C29.32,-627.55 0,-648 0,-648 0,-648 0,-684 0,-684 0,-684 58.88,-707.11 98.87,-722.81"/>
<polygon fill="black" stroke="black" points="97.74,-726.13 108.33,-726.53 100.3,-719.62 97.74,-726.13"/>
</g>
<!-- D14 -->
<g id="node15" class="node">
<title>D14</title>
<polygon fill="none" stroke="black" points="222,-612 161.17,-594 222,-576 282.83,-594 222,-612"/>
<text text-anchor="middle" x="222" y="-590.3" font-family="Times,serif" font-size="14.00">j &lt; t.len?</text>
</g>
<!-- D13&#45;&gt;D14 -->
<g id="edge17" class="edge">
<title>D13:s&#45;&gt;D14:n</title>
<path fill="none" stroke="black" d="M241,-648C241,-648 232.42,-631.75 226.79,-621.08"/>
<polygon fill="black" stroke="black" points="229.76,-619.21 222,-612 223.57,-622.48 229.76,-619.21"/>
</g>
<!-- D15 -->
<g id="node16" class="node">
<title>D15</title>
<polygon fill="none" stroke="black" points="204,-540 115.52,-522 204,-504 292.48,-522 204,-540"/>
<text text-anchor="middle" x="204" y="-518.3" font-family="Times,serif" font-size="14.00">(t.d[j] &gt;= 10)?</text>
</g>
<!-- D14&#45;&gt;D15 -->
<g id="edge18" class="edge">
<title>D14:s&#45;&gt;D15:n</title>
<path fill="none" stroke="black" d="M222,-576C222,-576 213.87,-559.75 208.54,-549.08"/>
<polygon fill="black" stroke="black" points="211.6,-547.38 204,-540 205.34,-550.51 211.6,-547.38"/>
<text text-anchor="middle" x="209.77" y="-551.34" font-family="Times,serif" font-size="14.00">Y</text>
</g>
<!-- D22 -->
<g id="node23" class="node">
<title>D22</title>
<polygon fill="none" stroke="black" points="364,-540 310,-540 310,-504 364,-504 364,-540"/>
<text text-anchor="middle" x="337" y="-518.3" font-family="Times,serif" font-size="14.00">i++</text>
</g>
<!-- D14&#45;&gt;D22 -->
<g id="edge19" class="edge">
<title>D14:e&#45;&gt;D22:n</title>
<path fill="none" stroke="black" d="M284,-594C284,-594 315.07,-562.35 329.63,-547.51"/>
<polygon fill="black" stroke="black" points="332.49,-549.59 337,-540 327.5,-544.69 332.49,-549.59"/>
<text text-anchor="middle" x="301.32" y="-574.55" font-family="Times,serif" font-size="14.00">N</text>
</g>
<!-- D16 -->
<g id="node17" class="node">
<title>D16</title>
<polygon fill="none" stroke="black" points="260,-468 148,-468 148,-432 260,-432 260,-468"/>
<text text-anchor="middle" x="204" y="-446.3" font-family="Times,serif" font-size="14.00">int c = t.d[j] / 10;</text>
</g>
<!-- D15&#45;&gt;D16 -->
<g id="edge20" class="edge">
<title>D15:s&#45;&gt;D16:n</title>
<path fill="none" stroke="black" d="M204,-504C204,-504 204,-488.86 204,-478.22"/>
<polygon fill="black" stroke="black" points="207.5,-478 204,-468 200.5,-478 207.5,-478"/>
<text text-anchor="middle" x="198.5" y="-479.91" font-family="Times,serif" font-size="14.00">Y</text>
</g>
<!-- D21 -->
<g id="node22" class="node">
<title>D21</title>
<polygon fill="none" stroke="black" points="231,-108 177,-108 177,-72 231,-72 231,-108"/>
<text text-anchor="middle" x="204" y="-86.3" font-family="Times,serif" font-size="14.00">++j</text>
</g>
<!-- D15&#45;&gt;D21 -->
<g id="edge21" class="edge">
<title>D15:e&#45;&gt;D21:n</title>
<path fill="none" stroke="black" d="M294,-522C294,-522 326,-379 326,-379 326,-379 326,-379 326,-305 326,-305 326,-163 326,-163"/>
<text text-anchor="middle" x="320.5" y="-348.07" font-family="Times,serif" font-size="14.00">N</text>
</g>
<!-- D17 -->
<g id="node18" class="node">
<title>D17</title>
<polygon fill="none" stroke="black" points="248.5,-396 159.5,-396 159.5,-360 248.5,-360 248.5,-396"/>
<text text-anchor="middle" x="204" y="-374.3" font-family="Times,serif" font-size="14.00">t.d[j] %= 10;</text>
</g>
<!-- D16&#45;&gt;D17 -->
<g id="edge22" class="edge">
<title>D16:s&#45;&gt;D17:n</title>
<path fill="none" stroke="black" d="M204,-432C204,-432 204,-416.86 204,-406.22"/>
<polygon fill="black" stroke="black" points="207.5,-406 204,-396 200.5,-406 207.5,-406"/>
</g>
<!-- D18 -->
<g id="node19" class="node">
<title>D18</title>
<polygon fill="none" stroke="black" points="253.5,-324 154.5,-324 154.5,-288 253.5,-288 253.5,-324"/>
<text text-anchor="middle" x="204" y="-302.3" font-family="Times,serif" font-size="14.00">t.d[j + 1] += c;</text>
</g>
<!-- D17&#45;&gt;D18 -->
<g id="edge23" class="edge">
<title>D17:s&#45;&gt;D18:n</title>
<path fill="none" stroke="black" d="M204,-360C204,-360 204,-344.86 204,-334.22"/>
<polygon fill="black" stroke="black" points="207.5,-334 204,-324 200.5,-334 207.5,-334"/>
</g>
<!-- D19 -->
<g id="node20" class="node">
<title>D19</title>
<polygon fill="none" stroke="black" points="204,-252 110.49,-234 204,-216 297.51,-234 204,-252"/>
<text text-anchor="middle" x="204" y="-230.3" font-family="Times,serif" font-size="14.00">(j == t.len &#45; 1)?</text>
</g>
<!-- D18&#45;&gt;D19 -->
<g id="edge24" class="edge">
<title>D18:s&#45;&gt;D19:n</title>
<path fill="none" stroke="black" d="M204,-288C204,-288 204,-272.86 204,-262.22"/>
<polygon fill="black" stroke="black" points="207.5,-262 204,-252 200.5,-262 207.5,-262"/>
</g>
<!-- D20 -->
<g id="node21" class="node">
<title>D20</title>
<polygon fill="none" stroke="black" points="234.5,-180 173.5,-180 173.5,-144 234.5,-144 234.5,-180"/>
<text text-anchor="middle" x="204" y="-158.3" font-family="Times,serif" font-size="14.00">++t.len;</text>
</g>
<!-- D19&#45;&gt;D20 -->
<g id="edge25" class="edge">
<title>D19:s&#45;&gt;D20:n</title>
<path fill="none" stroke="black" d="M204,-216C204,-216 204,-200.86 204,-190.22"/>
<polygon fill="black" stroke="black" points="207.5,-190 204,-180 200.5,-190 207.5,-190"/>
<text text-anchor="middle" x="198.5" y="-191.91" font-family="Times,serif" font-size="14.00">Y</text>
</g>
<!-- D19&#45;&gt;D21 -->
<g id="edge26" class="edge">
<title>D19:e&#45;&gt;D21:n</title>
<path fill="none" stroke="black" d="M326,-161C326,-161 242.33,-124.65 213.57,-112.16"/>
<polygon fill="black" stroke="black" points="214.57,-108.77 204,-108 211.78,-115.19 214.57,-108.77"/>
<path fill="none" stroke="black" d="M299,-234C299,-234 326,-163 326,-163"/>
<text text-anchor="middle" x="229.45" y="-125.25" font-family="Times,serif" font-size="14.00">N</text>
</g>
<!-- D20&#45;&gt;D21 -->
<g id="edge27" class="edge">
<title>D20&#45;&gt;D21</title>
<path fill="none" stroke="black" d="M204,-143.7C204,-135.98 204,-126.71 204,-118.11"/>
<polygon fill="black" stroke="black" points="207.5,-118.1 204,-108.1 200.5,-118.1 207.5,-118.1"/>
</g>
<!-- D21&#45;&gt;D14 -->
<g id="edge28" class="edge">
<title>D21&#45;&gt;D14</title>
<path fill="none" stroke="black" d="M189.28,-108.13C156.84,-145.9 82,-233 82,-233 82,-451 82,-451 82,-451 82,-451 107,-540 107,-540 107,-540 156.1,-562.63 190.13,-578.31"/>
<polygon fill="black" stroke="black" points="188.73,-581.52 199.28,-582.53 191.66,-575.16 188.73,-581.52"/>
</g>
<!-- D22&#45;&gt;D8 -->
<g id="edge29" class="edge">
<title>D22&#45;&gt;D8</title>
<path fill="none" stroke="black" d="M337,-540.13C337,-577.9 337,-665 337,-665 337,-739 337,-739 337,-739 337,-739 337,-812.4 337,-853.66"/>
<polygon fill="black" stroke="black" points="333.5,-853.87 337,-863.87 340.5,-853.87 333.5,-853.87"/>
</g>
<!-- D24 -->
<g id="node25" class="node">
<title>D24</title>
<polygon fill="none" stroke="black" points="470,-756 409.17,-738 470,-720 530.83,-738 470,-756"/>
<text text-anchor="middle" x="470" y="-734.3" font-family="Times,serif" font-size="14.00">j &lt; t.len?</text>
</g>
<!-- D23&#45;&gt;D24 -->
<g id="edge30" class="edge">
<title>D23:s&#45;&gt;D24:n</title>
<path fill="none" stroke="black" d="M417,-792C417,-792 446.81,-771.75 461.72,-761.62"/>
<polygon fill="black" stroke="black" points="463.69,-764.51 470,-756 459.76,-758.72 463.69,-764.51"/>
</g>
<!-- D25 -->
<g id="node26" class="node">
<title>D25</title>
<polygon fill="none" stroke="black" points="514,-684 425.52,-666 514,-648 602.48,-666 514,-684"/>
<text text-anchor="middle" x="514" y="-662.3" font-family="Times,serif" font-size="14.00">(t.d[j] &gt;= 10)?</text>
</g>
<!-- D24&#45;&gt;D25 -->
<g id="edge31" class="edge">
<title>D24:s&#45;&gt;D25:n</title>
<path fill="none" stroke="black" d="M470,-720C470,-720 493.23,-701 505.93,-690.6"/>
<polygon fill="black" stroke="black" points="508.48,-693.04 514,-684 504.04,-687.62 508.48,-693.04"/>
<text text-anchor="middle" x="482.46" y="-709.1" font-family="Times,serif" font-size="14.00">Y</text>
</g>
<!-- D32 -->
<g id="node33" class="node">
<title>D32</title>
<polygon fill="none" stroke="black" points="728,-684 650,-684 650,-648 728,-648 728,-684"/>
<text text-anchor="middle" x="689" y="-662.3" font-family="Times,serif" font-size="14.00">int i = 499;</text>
</g>
<!-- D24&#45;&gt;D32 -->
<g id="edge32" class="edge">
<title>D24:e&#45;&gt;D32:n</title>
<path fill="none" stroke="black" d="M532,-738C532,-738 644.81,-699.2 679.18,-687.38"/>
<polygon fill="black" stroke="black" points="680.68,-690.56 689,-684 678.41,-683.94 680.68,-690.56"/>
<text text-anchor="middle" x="600.09" y="-716.49" font-family="Times,serif" font-size="14.00">N</text>
</g>
<!-- D26 -->
<g id="node27" class="node">
<title>D26</title>
<polygon fill="none" stroke="black" points="570,-612 458,-612 458,-576 570,-576 570,-612"/>
<text text-anchor="middle" x="514" y="-590.3" font-family="Times,serif" font-size="14.00">int c = t.d[j] / 10;</text>
</g>
<!-- D25&#45;&gt;D26 -->
<g id="edge33" class="edge">
<title>D25:s&#45;&gt;D26:n</title>
<path fill="none" stroke="black" d="M514,-648C514,-648 514,-632.86 514,-622.22"/>
<polygon fill="black" stroke="black" points="517.5,-622 514,-612 510.5,-622 517.5,-622"/>
<text text-anchor="middle" x="508.5" y="-623.91" font-family="Times,serif" font-size="14.00">Y</text>
</g>
<!-- D31 -->
<g id="node32" class="node">
<title>D31</title>
<polygon fill="none" stroke="black" points="541,-252 487,-252 487,-216 541,-216 541,-252"/>
<text text-anchor="middle" x="514" y="-230.3" font-family="Times,serif" font-size="14.00">++j</text>
</g>
<!-- D25&#45;&gt;D31 -->
<g id="edge34" class="edge">
<title>D25:e&#45;&gt;D31:n</title>
<path fill="none" stroke="black" d="M604,-666C604,-666 636,-523 636,-523 636,-523 636,-523 636,-449 636,-449 636,-307 636,-307"/>
<text text-anchor="middle" x="630.5" y="-492.07" font-family="Times,serif" font-size="14.00">N</text>
</g>
<!-- D27 -->
<g id="node28" class="node">
<title>D27</title>
<polygon fill="none" stroke="black" points="558.5,-540 469.5,-540 469.5,-504 558.5,-504 558.5,-540"/>
<text text-anchor="middle" x="514" y="-518.3" font-family="Times,serif" font-size="14.00">t.d[j] %= 10;</text>
</g>
<!-- D26&#45;&gt;D27 -->
<g id="edge35" class="edge">
<title>D26:s&#45;&gt;D27:n</title>
<path fill="none" stroke="black" d="M514,-576C514,-576 514,-560.86 514,-550.22"/>
<polygon fill="black" stroke="black" points="517.5,-550 514,-540 510.5,-550 517.5,-550"/>
</g>
<!-- D28 -->
<g id="node29" class="node">
<title>D28</title>
<polygon fill="none" stroke="black" points="563.5,-468 464.5,-468 464.5,-432 563.5,-432 563.5,-468"/>
<text text-anchor="middle" x="514" y="-446.3" font-family="Times,serif" font-size="14.00">t.d[j + 1] += c;</text>
</g>
<!-- D27&#45;&gt;D28 -->
<g id="edge36" class="edge">
<title>D27:s&#45;&gt;D28:n</title>
<path fill="none" stroke="black" d="M514,-504C514,-504 514,-488.86 514,-478.22"/>
<polygon fill="black" stroke="black" points="517.5,-478 514,-468 510.5,-478 517.5,-478"/>
</g>
<!-- D29 -->
<g id="node30" class="node">
<title>D29</title>
<polygon fill="none" stroke="black" points="514,-396 420.49,-378 514,-360 607.51,-378 514,-396"/>
<text text-anchor="middle" x="514" y="-374.3" font-family="Times,serif" font-size="14.00">(j == t.len &#45; 1)?</text>
</g>
<!-- D28&#45;&gt;D29 -->
<g id="edge37" class="edge">
<title>D28:s&#45;&gt;D29:n</title>
<path fill="none" stroke="black" d="M514,-432C514,-432 514,-416.86 514,-406.22"/>
<polygon fill="black" stroke="black" points="517.5,-406 514,-396 510.5,-406 517.5,-406"/>
</g>
<!-- D30 -->
<g id="node31" class="node">
<title>D30</title>
<polygon fill="none" stroke="black" points="544.5,-324 483.5,-324 483.5,-288 544.5,-288 544.5,-324"/>
<text text-anchor="middle" x="514" y="-302.3" font-family="Times,serif" font-size="14.00">++t.len;</text>
</g>
<!-- D29&#45;&gt;D30 -->
<g id="edge38" class="edge">
<title>D29:s&#45;&gt;D30:n</title>
<path fill="none" stroke="black" d="M514,-360C514,-360 514,-344.86 514,-334.22"/>
<polygon fill="black" stroke="black" points="517.5,-334 514,-324 510.5,-334 517.5,-334"/>
<text text-anchor="middle" x="508.5" y="-335.91" font-family="Times,serif" font-size="14.00">Y</text>
</g>
<!-- D29&#45;&gt;D31 -->
<g id="edge39" class="edge">
<title>D29:e&#45;&gt;D31:n</title>
<path fill="none" stroke="black" d="M636,-305C636,-305 552.33,-268.65 523.57,-256.16"/>
<polygon fill="black" stroke="black" points="524.57,-252.77 514,-252 521.78,-259.19 524.57,-252.77"/>
<path fill="none" stroke="black" d="M609,-378C609,-378 636,-307 636,-307"/>
<text text-anchor="middle" x="539.45" y="-269.25" font-family="Times,serif" font-size="14.00">N</text>
</g>
<!-- D30&#45;&gt;D31 -->
<g id="edge40" class="edge">
<title>D30&#45;&gt;D31</title>
<path fill="none" stroke="black" d="M514,-287.7C514,-279.98 514,-270.71 514,-262.11"/>
<polygon fill="black" stroke="black" points="517.5,-262.1 514,-252.1 510.5,-262.1 517.5,-262.1"/>
</g>
<!-- D31&#45;&gt;D24 -->
<g id="edge41" class="edge">
<title>D31&#45;&gt;D24</title>
<path fill="none" stroke="black" d="M499.28,-252.13C466.84,-289.9 392,-377 392,-377 392,-595 392,-595 392,-595 392,-595 417,-684 417,-684 417,-684 434.35,-701.35 449.2,-716.2"/>
<polygon fill="black" stroke="black" points="447.08,-719.03 456.63,-723.63 452.03,-714.08 447.08,-719.03"/>
</g>
<!-- D33 -->
<g id="node34" class="node">
<title>D33</title>
<polygon fill="none" stroke="black" points="760,-612 708.55,-594 760,-576 811.45,-594 760,-612"/>
<text text-anchor="middle" x="760" y="-590.3" font-family="Times,serif" font-size="14.00">i &gt;= 1?</text>
</g>
<!-- D32&#45;&gt;D33 -->
<g id="edge42" class="edge">
<title>D32:s&#45;&gt;D33:n</title>
<path fill="none" stroke="black" d="M689,-648C689,-648 731.9,-626.25 751.01,-616.56"/>
<polygon fill="black" stroke="black" points="752.66,-619.64 760,-612 749.5,-613.4 752.66,-619.64"/>
</g>
<!-- D34 -->
<g id="node35" class="node">
<title>D34</title>
<polygon fill="none" stroke="black" points="719,-540 663.7,-522 719,-504 774.3,-522 719,-540"/>
<text text-anchor="middle" x="719" y="-518.3" font-family="Times,serif" font-size="14.00">(t.d[i])?</text>
</g>
<!-- D33&#45;&gt;D34 -->
<g id="edge43" class="edge">
<title>D33:s&#45;&gt;D34:n</title>
<path fill="none" stroke="black" d="M760,-576C760,-576 738.36,-557 726.52,-546.6"/>
<polygon fill="black" stroke="black" points="728.82,-543.97 719,-540 724.21,-549.23 728.82,-543.97"/>
<text text-anchor="middle" x="737.76" y="-565.1" font-family="Times,serif" font-size="14.00">Y</text>
</g>
<!-- D38 -->
<g id="node39" class="node">
<title>D38</title>
<polygon fill="none" stroke="black" points="833.5,-324 772.5,-324 772.5,-288 833.5,-288 833.5,-324"/>
<text text-anchor="middle" x="803" y="-302.3" font-family="Times,serif" font-size="14.00">return t;</text>
</g>
<!-- D33&#45;&gt;D38 -->
<g id="edge44" class="edge">
<title>D33:e&#45;&gt;D38:n</title>
<path fill="none" stroke="black" d="M813,-594C813,-594 834,-468 834,-468 834,-468 834,-432 834,-432 834,-432 813.54,-360.7 805.86,-333.97"/>
<polygon fill="black" stroke="black" points="809.12,-332.65 803,-324 802.39,-334.58 809.12,-332.65"/>
<text text-anchor="middle" x="839.5" y="-466.67" font-family="Times,serif" font-size="14.00">N</text>
</g>
<!-- D35 -->
<g id="node36" class="node">
<title>D35</title>
<polygon fill="none" stroke="black" points="753,-468 667,-468 667,-432 753,-432 753,-468"/>
<text text-anchor="middle" x="710" y="-446.3" font-family="Times,serif" font-size="14.00">t.len = 1 + i;</text>
</g>
<!-- D34&#45;&gt;D35 -->
<g id="edge45" class="edge">
<title>D34:s&#45;&gt;D35:n</title>
<path fill="none" stroke="black" d="M719,-504C719,-504 715.12,-488.5 712.46,-477.84"/>
<polygon fill="black" stroke="black" points="715.82,-476.85 710,-468 709.03,-478.55 715.82,-476.85"/>
<text text-anchor="middle" x="710.23" y="-479.72" font-family="Times,serif" font-size="14.00">Y</text>
</g>
<!-- D37 -->
<g id="node38" class="node">
<title>D37</title>
<polygon fill="none" stroke="black" points="825,-468 771,-468 771,-432 825,-432 825,-468"/>
<text text-anchor="middle" x="798" y="-446.3" font-family="Times,serif" font-size="14.00">&#45;&#45;i</text>
</g>
<!-- D34&#45;&gt;D37 -->
<g id="edge46" class="edge">
<title>D34:e&#45;&gt;D37:n</title>
<path fill="none" stroke="black" d="M775,-522C775,-522 787.4,-492.88 793.99,-477.41"/>
<polygon fill="black" stroke="black" points="797.3,-478.57 798,-468 790.86,-475.83 797.3,-478.57"/>
<text text-anchor="middle" x="779" y="-488.5" font-family="Times,serif" font-size="14.00">N</text>
</g>
<!-- D36 -->
<g id="node37" class="node">
<title>D36</title>
<polygon fill="none" stroke="black" points="781,-396 727,-396 727,-360 781,-360 781,-396"/>
<text text-anchor="middle" x="754" y="-374.3" font-family="Times,serif" font-size="14.00">break</text>
</g>
<!-- D35&#45;&gt;D36 -->
<g id="edge47" class="edge">
<title>D35:s&#45;&gt;D36:n</title>
<path fill="none" stroke="black" d="M710,-432C710,-432 733.23,-413 745.93,-402.6"/>
<polygon fill="black" stroke="black" points="748.48,-405.04 754,-396 744.04,-399.62 748.48,-405.04"/>
</g>
<!-- D36&#45;&gt;D38 -->
<g id="edge48" class="edge">
<title>D36&#45;&gt;D38</title>
<path fill="none" stroke="black" d="M766.11,-359.7C771.87,-351.47 778.86,-341.48 785.21,-332.42"/>
<polygon fill="black" stroke="black" points="788.16,-334.3 791.03,-324.1 782.42,-330.29 788.16,-334.3"/>
</g>
<!-- D37&#45;&gt;D33 -->
<g id="edge49" class="edge">
<title>D37&#45;&gt;D33</title>
<path fill="none" stroke="black" d="M795.11,-468.16C790.75,-494.02 783,-540 783,-540 783,-540 776.54,-554.89 770.47,-568.88"/>
<polygon fill="black" stroke="black" points="767.18,-567.67 766.41,-578.24 773.6,-570.46 767.18,-567.67"/>
</g>
<!-- D39 -->
<g id="node40" class="node">
<title>D39</title>
<path fill="none" stroke="black" d="M818,-36C818,-36 788,-36 788,-36 782,-36 776,-30 776,-24 776,-24 776,-12 776,-12 776,-6 782,0 788,0 788,0 818,0 818,0 824,0 830,-6 830,-12 830,-12 830,-24 830,-24 830,-30 824,-36 818,-36"/>
<text text-anchor="middle" x="803" y="-14.3" font-family="Times,serif" font-size="14.00">End</text>
</g>
<!-- D38&#45;&gt;D39 -->
<g id="edge50" class="edge">
<title>D38&#45;&gt;D39</title>
<path fill="none" stroke="black" d="M803,-287.97C803,-240.29 803,-105.18 803,-46.63"/>
<polygon fill="black" stroke="black" points="806.5,-46.31 803,-36.31 799.5,-46.31 806.5,-46.31"/>
</g>
</g>
</svg>
