<?xml version="1.0" encoding="UTF-8" standalone="no"?>
<!DOCTYPE svg PUBLIC "-//W3C//DTD SVG 1.1//EN"
 "http://www.w3.org/Graphics/SVG/1.1/DTD/svg11.dtd">
<!-- Generated by graphviz version 2.50.0 (0)
 -->
<!-- Pages: 1 -->
<svg width="853pt" height="1484pt"
 viewBox="0.00 0.00 853.00 1484.00" xmlns="http://www.w3.org/2000/svg" xmlns:xlink="http://www.w3.org/1999/xlink">
<g id="graph0" class="graph" transform="scale(1 1) rotate(0) translate(4 1480)">
<polygon fill="white" stroke="transparent" points="-4,4 -4,-1480 849,-1480 849,4 -4,4"/>
<!-- D0 -->
<g id="node1" class="node">
<title>D0</title>
<path fill="none" stroke="black" d="M281,-1476C281,-1476 251,-1476 251,-1476 245,-1476 239,-1470 239,-1464 239,-1464 239,-1452 239,-1452 239,-1446 245,-1440 251,-1440 251,-1440 281,-1440 281,-1440 287,-1440 293,-1446 293,-1452 293,-1452 293,-1464 293,-1464 293,-1470 287,-1476 281,-1476"/>
<text text-anchor="middle" x="266" y="-1454.3" font-family="Times,serif" font-size="14.00">begin</text>
</g>
<!-- D4 -->
<g id="node3" class="node">
<title>D4</title>
<polygon fill="none" stroke="black" points="324,-1404 208,-1404 208,-1368 324,-1368 324,-1404"/>
<text text-anchor="middle" x="266" y="-1382.3" font-family="Times,serif" font-size="14.00">const mint* c = a;</text>
</g>
<!-- D0&#45;&gt;D4 -->
<g id="edge50" class="edge">
<title>D0&#45;&gt;D4</title>
<path fill="none" stroke="black" d="M266,-1439.7C266,-1431.98 266,-1422.71 266,-1414.11"/>
<polygon fill="black" stroke="black" points="269.5,-1414.1 266,-1404.1 262.5,-1414.1 269.5,-1414.1"/>
</g>
<!-- D1 -->
<g id="node2" class="node">
<title>D1</title>
<path fill="none" stroke="black" d="M819,-36C819,-36 789,-36 789,-36 783,-36 777,-30 777,-24 777,-24 777,-12 777,-12 777,-6 783,0 789,0 789,0 819,0 819,0 825,0 831,-6 831,-12 831,-12 831,-24 831,-24 831,-30 825,-36 819,-36"/>
<text text-anchor="middle" x="804" y="-14.3" font-family="Times,serif" font-size="14.00">end</text>
</g>
<!-- D6 -->
<g id="node4" class="node">
<title>D6</title>
<polygon fill="none" stroke="black" points="266,-1332 156.74,-1314 266,-1296 375.26,-1314 266,-1332"/>
<text text-anchor="middle" x="266" y="-1310.3" font-family="Times,serif" font-size="14.00">(a&#45;&gt;len &gt; b&#45;&gt;len)?</text>
</g>
<!-- D4&#45;&gt;D6 -->
<g id="edge1" class="edge">
<title>D4&#45;&gt;D6</title>
<path fill="none" stroke="black" d="M266,-1367.7C266,-1359.98 266,-1350.71 266,-1342.11"/>
<polygon fill="black" stroke="black" points="269.5,-1342.1 266,-1332.1 262.5,-1342.1 269.5,-1342.1"/>
</g>
<!-- D9 -->
<g id="node5" class="node">
<title>D9</title>
<polygon fill="none" stroke="black" points="327.5,-1260 242.5,-1260 242.5,-1224 327.5,-1224 327.5,-1260"/>
<text text-anchor="middle" x="285" y="-1238.3" font-family="Times,serif" font-size="14.00">a = b, b = c;</text>
</g>
<!-- D6&#45;&gt;D9 -->
<g id="edge4" class="edge">
<title>D6:s&#45;&gt;D9:n</title>
<path fill="none" stroke="black" d="M266,-1296C266,-1296 274.58,-1279.75 280.21,-1269.08"/>
<polygon fill="black" stroke="black" points="283.43,-1270.48 285,-1260 277.24,-1267.21 283.43,-1270.48"/>
<text text-anchor="middle" x="268.1" y="-1271.34" font-family="Times,serif" font-size="14.00">Y</text>
</g>
<!-- D11 -->
<g id="node6" class="node">
<title>D11</title>
<polygon fill="none" stroke="black" points="366,-1188 312,-1188 312,-1152 366,-1152 366,-1188"/>
<text text-anchor="middle" x="339" y="-1166.3" font-family="Times,serif" font-size="14.00">mint t;</text>
</g>
<!-- D6&#45;&gt;D11 -->
<g id="edge2" class="edge">
<title>D6:e&#45;&gt;D11:n</title>
<path fill="none" stroke="black" d="M376,-1314C376,-1314 375,-1296 375,-1296 375,-1296 351.01,-1224.02 342.19,-1197.58"/>
<polygon fill="black" stroke="black" points="345.48,-1196.38 339,-1188 338.84,-1198.59 345.48,-1196.38"/>
<text text-anchor="middle" x="356.45" y="-1259.14" font-family="Times,serif" font-size="14.00">N</text>
</g>
<!-- D9&#45;&gt;D11 -->
<g id="edge3" class="edge">
<title>D9&#45;&gt;D11</title>
<path fill="none" stroke="black" d="M298.35,-1223.7C304.76,-1215.39 312.56,-1205.28 319.61,-1196.14"/>
<polygon fill="black" stroke="black" points="322.47,-1198.16 325.81,-1188.1 316.93,-1193.88 322.47,-1198.16"/>
</g>
<!-- D13 -->
<g id="node7" class="node">
<title>D13</title>
<polygon fill="none" stroke="black" points="416.5,-1116 261.5,-1116 261.5,-1080 416.5,-1080 416.5,-1116"/>
<text text-anchor="middle" x="339" y="-1094.3" font-family="Times,serif" font-size="14.00">memset(&amp;t, 0, sizeof(t));</text>
</g>
<!-- D11&#45;&gt;D13 -->
<g id="edge5" class="edge">
<title>D11&#45;&gt;D13</title>
<path fill="none" stroke="black" d="M339,-1151.7C339,-1143.98 339,-1134.71 339,-1126.11"/>
<polygon fill="black" stroke="black" points="342.5,-1126.1 339,-1116.1 335.5,-1126.1 342.5,-1126.1"/>
</g>
<!-- D15 -->
<g id="node8" class="node">
<title>D15</title>
<polygon fill="none" stroke="black" points="372.5,-1044 305.5,-1044 305.5,-1008 372.5,-1008 372.5,-1044"/>
<text text-anchor="middle" x="339" y="-1022.3" font-family="Times,serif" font-size="14.00">t.len = 1;</text>
</g>
<!-- D13&#45;&gt;D15 -->
<g id="edge6" class="edge">
<title>D13&#45;&gt;D15</title>
<path fill="none" stroke="black" d="M339,-1079.7C339,-1071.98 339,-1062.71 339,-1054.11"/>
<polygon fill="black" stroke="black" points="342.5,-1054.1 339,-1044.1 335.5,-1054.1 342.5,-1054.1"/>
</g>
<!-- D20 -->
<g id="node10" class="node">
<title>D20</title>
<polygon fill="none" stroke="black" points="371.5,-972 306.5,-972 306.5,-936 371.5,-936 371.5,-972"/>
<text text-anchor="middle" x="339" y="-950.3" font-family="Times,serif" font-size="14.00">int i = 0;</text>
</g>
<!-- D15&#45;&gt;D20 -->
<g id="edge7" class="edge">
<title>D15&#45;&gt;D20</title>
<path fill="none" stroke="black" d="M339,-1007.7C339,-999.98 339,-990.71 339,-982.11"/>
<polygon fill="black" stroke="black" points="342.5,-982.1 339,-972.1 335.5,-982.1 342.5,-982.1"/>
</g>
<!-- D19 -->
<g id="node9" class="node">
<title>D19</title>
<polygon fill="none" stroke="black" points="339,-900 268.45,-882 339,-864 409.55,-882 339,-900"/>
<text text-anchor="middle" x="339" y="-878.3" font-family="Times,serif" font-size="14.00">i &lt; a&#45;&gt;len?</text>
</g>
<!-- D27 -->
<g id="node13" class="node">
<title>D27</title>
<polygon fill="none" stroke="black" points="256.5,-828 191.5,-828 191.5,-792 256.5,-792 256.5,-828"/>
<text text-anchor="middle" x="224" y="-806.3" font-family="Times,serif" font-size="14.00">int j = 0;</text>
</g>
<!-- D19&#45;&gt;D27 -->
<g id="edge29" class="edge">
<title>D19:s&#45;&gt;D27:n</title>
<path fill="none" stroke="black" d="M339,-864C339,-864 261.62,-839.78 233.8,-831.07"/>
<polygon fill="black" stroke="black" points="234.59,-827.65 224,-828 232.5,-834.33 234.59,-827.65"/>
<text text-anchor="middle" x="281.4" y="-851.33" font-family="Times,serif" font-size="14.00">Y</text>
</g>
<!-- D59 -->
<g id="node26" class="node">
<title>D59</title>
<polygon fill="none" stroke="black" points="451.5,-828 386.5,-828 386.5,-792 451.5,-792 451.5,-828"/>
<text text-anchor="middle" x="419" y="-806.3" font-family="Times,serif" font-size="14.00">int j = 0;</text>
</g>
<!-- D19&#45;&gt;D59 -->
<g id="edge8" class="edge">
<title>D19:e&#45;&gt;D59:n</title>
<path fill="none" stroke="black" d="M411,-882C411,-882 415.22,-853.49 417.53,-837.9"/>
<polygon fill="black" stroke="black" points="421,-838.4 419,-828 414.07,-837.38 421,-838.4"/>
<text text-anchor="middle" x="409.27" y="-848.75" font-family="Times,serif" font-size="14.00">N</text>
</g>
<!-- D20&#45;&gt;D19 -->
<g id="edge9" class="edge">
<title>D20&#45;&gt;D19</title>
<path fill="none" stroke="black" d="M339,-935.7C339,-927.98 339,-918.71 339,-910.11"/>
<polygon fill="black" stroke="black" points="342.5,-910.1 339,-900.1 335.5,-910.1 342.5,-910.1"/>
</g>
<!-- D21 -->
<g id="node11" class="node">
<title>D21</title>
<polygon fill="none" stroke="black" points="366,-540 312,-540 312,-504 366,-504 366,-540"/>
<text text-anchor="middle" x="339" y="-518.3" font-family="Times,serif" font-size="14.00">i++</text>
</g>
<!-- D21&#45;&gt;D19 -->
<g id="edge11" class="edge">
<title>D21&#45;&gt;D19</title>
<path fill="none" stroke="black" d="M339,-540.13C339,-577.9 339,-665 339,-665 339,-739 339,-739 339,-739 339,-739 339,-812.4 339,-853.66"/>
<polygon fill="black" stroke="black" points="335.5,-853.87 339,-863.87 342.5,-853.87 335.5,-853.87"/>
</g>
<!-- D26 -->
<g id="node12" class="node">
<title>D26</title>
<polygon fill="none" stroke="black" points="135,-756 63.11,-738 135,-720 206.89,-738 135,-756"/>
<text text-anchor="middle" x="135" y="-734.3" font-family="Times,serif" font-size="14.00">j &lt; b&#45;&gt;len?</text>
</g>
<!-- D31 -->
<g id="node15" class="node">
<title>D31</title>
<polygon fill="none" stroke="black" points="191,-684 9,-684 9,-648 191,-648 191,-684"/>
<text text-anchor="middle" x="100" y="-662.3" font-family="Times,serif" font-size="14.00">t.d[i + j] += a&#45;&gt;d[i] * b&#45;&gt;d[j];</text>
</g>
<!-- D26&#45;&gt;D31 -->
<g id="edge16" class="edge">
<title>D26:s&#45;&gt;D31:n</title>
<path fill="none" stroke="black" d="M135,-720C135,-720 117.31,-701.8 107.08,-691.29"/>
<polygon fill="black" stroke="black" points="109.48,-688.73 100,-684 104.46,-693.61 109.48,-688.73"/>
<text text-anchor="middle" x="116.04" y="-709.44" font-family="Times,serif" font-size="14.00">Y</text>
</g>
<!-- D36 -->
<g id="node17" class="node">
<title>D36</title>
<polygon fill="none" stroke="black" points="274.5,-684 209.5,-684 209.5,-648 274.5,-648 274.5,-684"/>
<text text-anchor="middle" x="242" y="-662.3" font-family="Times,serif" font-size="14.00">int j = 0;</text>
</g>
<!-- D26&#45;&gt;D36 -->
<g id="edge10" class="edge">
<title>D26:e&#45;&gt;D36:n</title>
<path fill="none" stroke="black" d="M208,-738C208,-738 226.73,-708.25 236.39,-692.92"/>
<polygon fill="black" stroke="black" points="239.63,-694.33 242,-684 233.71,-690.6 239.63,-694.33"/>
<text text-anchor="middle" x="217.19" y="-719.26" font-family="Times,serif" font-size="14.00">N</text>
</g>
<!-- D27&#45;&gt;D26 -->
<g id="edge12" class="edge">
<title>D27&#45;&gt;D26</title>
<path fill="none" stroke="black" d="M202,-791.7C189.16,-781.6 172.94,-768.84 159.67,-758.4"/>
<polygon fill="black" stroke="black" points="161.46,-755.36 151.44,-751.93 157.14,-760.86 161.46,-755.36"/>
</g>
<!-- D28 -->
<g id="node14" class="node">
<title>D28</title>
<polygon fill="none" stroke="black" points="104,-612 50,-612 50,-576 104,-576 104,-612"/>
<text text-anchor="middle" x="77" y="-590.3" font-family="Times,serif" font-size="14.00">++j</text>
</g>
<!-- D28&#45;&gt;D26 -->
<g id="edge14" class="edge">
<title>D28&#45;&gt;D26</title>
<path fill="none" stroke="black" d="M52.21,-612.06C29.7,-627.55 0,-648 0,-648 0,-648 0,-684 0,-684 0,-684 58.88,-707.11 98.87,-722.81"/>
<polygon fill="black" stroke="black" points="97.74,-726.13 108.33,-726.53 100.3,-719.62 97.74,-726.13"/>
</g>
<!-- D31&#45;&gt;D28 -->
<g id="edge13" class="edge">
<title>D31&#45;&gt;D28</title>
<path fill="none" stroke="black" d="M94.31,-647.7C91.75,-639.9 88.67,-630.51 85.82,-621.83"/>
<polygon fill="black" stroke="black" points="89.07,-620.51 82.62,-612.1 82.42,-622.7 89.07,-620.51"/>
</g>
<!-- D35 -->
<g id="node16" class="node">
<title>D35</title>
<polygon fill="none" stroke="black" points="224,-612 163.17,-594 224,-576 284.83,-594 224,-612"/>
<text text-anchor="middle" x="224" y="-590.3" font-family="Times,serif" font-size="14.00">j &lt; t.len?</text>
</g>
<!-- D35&#45;&gt;D21 -->
<g id="edge15" class="edge">
<title>D35:e&#45;&gt;D21:n</title>
<path fill="none" stroke="black" d="M286,-594C286,-594 317.07,-562.35 331.63,-547.51"/>
<polygon fill="black" stroke="black" points="334.49,-549.59 339,-540 329.5,-544.69 334.49,-549.59"/>
<text text-anchor="middle" x="303.82" y="-574.55" font-family="Times,serif" font-size="14.00">N</text>
</g>
<!-- D40 -->
<g id="node19" class="node">
<title>D40</title>
<polygon fill="none" stroke="black" points="206,-540 117.52,-522 206,-504 294.48,-522 206,-540"/>
<text text-anchor="middle" x="206" y="-518.3" font-family="Times,serif" font-size="14.00">(t.d[j] &gt;= 10)?</text>
</g>
<!-- D35&#45;&gt;D40 -->
<g id="edge28" class="edge">
<title>D35:s&#45;&gt;D40:n</title>
<path fill="none" stroke="black" d="M224,-576C224,-576 215.87,-559.75 210.54,-549.08"/>
<polygon fill="black" stroke="black" points="213.6,-547.38 206,-540 207.34,-550.51 213.6,-547.38"/>
<text text-anchor="middle" x="212.27" y="-551.34" font-family="Times,serif" font-size="14.00">Y</text>
</g>
<!-- D36&#45;&gt;D35 -->
<g id="edge17" class="edge">
<title>D36&#45;&gt;D35</title>
<path fill="none" stroke="black" d="M237.55,-647.7C235.49,-639.67 232.99,-629.95 230.7,-621.05"/>
<polygon fill="black" stroke="black" points="234.03,-619.96 228.15,-611.14 227.25,-621.7 234.03,-619.96"/>
</g>
<!-- D37 -->
<g id="node18" class="node">
<title>D37</title>
<polygon fill="none" stroke="black" points="269,-108 215,-108 215,-72 269,-72 269,-108"/>
<text text-anchor="middle" x="242" y="-86.3" font-family="Times,serif" font-size="14.00">++j</text>
</g>
<!-- D37&#45;&gt;D35 -->
<g id="edge19" class="edge">
<title>D37&#45;&gt;D35</title>
<path fill="none" stroke="black" d="M219.79,-108.06C199.62,-123.55 173,-144 173,-144 173,-144 84,-233 84,-233 84,-451 84,-451 84,-451 84,-451 109,-540 109,-540 109,-540 158.1,-562.63 192.13,-578.31"/>
<polygon fill="black" stroke="black" points="190.73,-581.52 201.28,-582.53 193.66,-575.16 190.73,-581.52"/>
</g>
<!-- D40&#45;&gt;D37 -->
<g id="edge18" class="edge">
<title>D40:e&#45;&gt;D37:n</title>
<path fill="none" stroke="black" d="M296,-522C296,-522 328,-379 328,-379 328,-379 328,-379 328,-233 328,-233 285,-144 285,-144 285,-144 262.3,-125 249.89,-114.6"/>
<polygon fill="black" stroke="black" points="251.91,-111.74 242,-108 247.42,-117.1 251.91,-111.74"/>
<text text-anchor="middle" x="323" y="-310.75" font-family="Times,serif" font-size="14.00">N</text>
</g>
<!-- D45 -->
<g id="node20" class="node">
<title>D45</title>
<polygon fill="none" stroke="black" points="262,-468 150,-468 150,-432 262,-432 262,-468"/>
<text text-anchor="middle" x="206" y="-446.3" font-family="Times,serif" font-size="14.00">int c = t.d[j] / 10;</text>
</g>
<!-- D40&#45;&gt;D45 -->
<g id="edge27" class="edge">
<title>D40:s&#45;&gt;D45:n</title>
<path fill="none" stroke="black" d="M206,-504C206,-504 206,-488.86 206,-478.22"/>
<polygon fill="black" stroke="black" points="209.5,-478 206,-468 202.5,-478 209.5,-478"/>
<text text-anchor="middle" x="201" y="-479.91" font-family="Times,serif" font-size="14.00">Y</text>
</g>
<!-- D47 -->
<g id="node21" class="node">
<title>D47</title>
<polygon fill="none" stroke="black" points="250.5,-396 161.5,-396 161.5,-360 250.5,-360 250.5,-396"/>
<text text-anchor="middle" x="206" y="-374.3" font-family="Times,serif" font-size="14.00">t.d[j] %= 10;</text>
</g>
<!-- D45&#45;&gt;D47 -->
<g id="edge20" class="edge">
<title>D45&#45;&gt;D47</title>
<path fill="none" stroke="black" d="M206,-431.7C206,-423.98 206,-414.71 206,-406.11"/>
<polygon fill="black" stroke="black" points="209.5,-406.1 206,-396.1 202.5,-406.1 209.5,-406.1"/>
</g>
<!-- D49 -->
<g id="node22" class="node">
<title>D49</title>
<polygon fill="none" stroke="black" points="256,-324 156,-324 156,-288 256,-288 256,-324"/>
<text text-anchor="middle" x="206" y="-302.3" font-family="Times,serif" font-size="14.00">t.d[j + 1] += c;</text>
</g>
<!-- D47&#45;&gt;D49 -->
<g id="edge21" class="edge">
<title>D47&#45;&gt;D49</title>
<path fill="none" stroke="black" d="M206,-359.7C206,-351.98 206,-342.71 206,-334.11"/>
<polygon fill="black" stroke="black" points="209.5,-334.1 206,-324.1 202.5,-334.1 209.5,-334.1"/>
</g>
<!-- D51 -->
<g id="node23" class="node">
<title>D51</title>
<polygon fill="none" stroke="black" points="206,-252 112.49,-234 206,-216 299.51,-234 206,-252"/>
<text text-anchor="middle" x="206" y="-230.3" font-family="Times,serif" font-size="14.00">(j == t.len &#45; 1)?</text>
</g>
<!-- D49&#45;&gt;D51 -->
<g id="edge22" class="edge">
<title>D49&#45;&gt;D51</title>
<path fill="none" stroke="black" d="M206,-287.7C206,-279.98 206,-270.71 206,-262.11"/>
<polygon fill="black" stroke="black" points="209.5,-262.1 206,-252.1 202.5,-262.1 209.5,-262.1"/>
</g>
<!-- D51&#45;&gt;D37 -->
<g id="edge23" class="edge">
<title>D51:e&#45;&gt;D37:n</title>
<path fill="none" stroke="black" d="M301,-234C301,-234 300,-216 300,-216 300,-216 260.6,-142.63 246.75,-116.84"/>
<polygon fill="black" stroke="black" points="249.81,-115.15 242,-108 243.65,-118.47 249.81,-115.15"/>
<text text-anchor="middle" x="272.64" y="-178.16" font-family="Times,serif" font-size="14.00">N</text>
</g>
<!-- D54 -->
<g id="node24" class="node">
<title>D54</title>
<polygon fill="none" stroke="black" points="243.5,-180 182.5,-180 182.5,-144 243.5,-144 243.5,-180"/>
<text text-anchor="middle" x="213" y="-158.3" font-family="Times,serif" font-size="14.00">++t.len;</text>
</g>
<!-- D51&#45;&gt;D54 -->
<g id="edge25" class="edge">
<title>D51:s&#45;&gt;D54:n</title>
<path fill="none" stroke="black" d="M206,-216C206,-216 209.01,-200.5 211.09,-189.84"/>
<polygon fill="black" stroke="black" points="214.53,-190.48 213,-180 207.66,-189.15 214.53,-190.48"/>
<text text-anchor="middle" x="203.54" y="-191.72" font-family="Times,serif" font-size="14.00">Y</text>
</g>
<!-- D54&#45;&gt;D37 -->
<g id="edge24" class="edge">
<title>D54&#45;&gt;D37</title>
<path fill="none" stroke="black" d="M220.17,-143.7C223.43,-135.81 227.37,-126.3 231,-117.55"/>
<polygon fill="black" stroke="black" points="234.32,-118.68 234.91,-108.1 227.85,-116 234.32,-118.68"/>
</g>
<!-- D58 -->
<g id="node25" class="node">
<title>D58</title>
<polygon fill="none" stroke="black" points="472,-756 411.17,-738 472,-720 532.83,-738 472,-756"/>
<text text-anchor="middle" x="472" y="-734.3" font-family="Times,serif" font-size="14.00">j &lt; t.len?</text>
</g>
<!-- D63 -->
<g id="node28" class="node">
<title>D63</title>
<polygon fill="none" stroke="black" points="516,-684 427.52,-666 516,-648 604.48,-666 516,-684"/>
<text text-anchor="middle" x="516" y="-662.3" font-family="Times,serif" font-size="14.00">(t.d[j] &gt;= 10)?</text>
</g>
<!-- D58&#45;&gt;D63 -->
<g id="edge42" class="edge">
<title>D58:s&#45;&gt;D63:n</title>
<path fill="none" stroke="black" d="M472,-720C472,-720 495.23,-701 507.93,-690.6"/>
<polygon fill="black" stroke="black" points="510.48,-693.04 516,-684 506.04,-687.62 510.48,-693.04"/>
<text text-anchor="middle" x="484.96" y="-709.1" font-family="Times,serif" font-size="14.00">Y</text>
</g>
<!-- D82 -->
<g id="node35" class="node">
<title>D82</title>
<polygon fill="none" stroke="black" points="729,-684 651,-684 651,-648 729,-648 729,-684"/>
<text text-anchor="middle" x="690" y="-662.3" font-family="Times,serif" font-size="14.00">int i = 499;</text>
</g>
<!-- D58&#45;&gt;D82 -->
<g id="edge26" class="edge">
<title>D58:e&#45;&gt;D82:n</title>
<path fill="none" stroke="black" d="M534,-738C534,-738 646.09,-699.2 680.24,-687.38"/>
<polygon fill="black" stroke="black" points="681.7,-690.58 690,-684 679.41,-683.96 681.7,-690.58"/>
<text text-anchor="middle" x="602.12" y="-716.49" font-family="Times,serif" font-size="14.00">N</text>
</g>
<!-- D59&#45;&gt;D58 -->
<g id="edge30" class="edge">
<title>D59&#45;&gt;D58</title>
<path fill="none" stroke="black" d="M432.1,-791.7C439.02,-782.55 447.6,-771.22 455.03,-761.41"/>
<polygon fill="black" stroke="black" points="457.94,-763.36 461.19,-753.28 452.36,-759.14 457.94,-763.36"/>
</g>
<!-- D60 -->
<g id="node27" class="node">
<title>D60</title>
<polygon fill="none" stroke="black" points="573,-252 519,-252 519,-216 573,-216 573,-252"/>
<text text-anchor="middle" x="546" y="-230.3" font-family="Times,serif" font-size="14.00">++j</text>
</g>
<!-- D60&#45;&gt;D58 -->
<g id="edge32" class="edge">
<title>D60&#45;&gt;D58</title>
<path fill="none" stroke="black" d="M525.4,-252.06C506.69,-267.55 482,-288 482,-288 482,-288 394,-377 394,-377 394,-595 394,-595 394,-595 394,-595 419,-684 419,-684 419,-684 436.35,-701.35 451.2,-716.2"/>
<polygon fill="black" stroke="black" points="449.08,-719.03 458.63,-723.63 454.03,-714.08 449.08,-719.03"/>
</g>
<!-- D63&#45;&gt;D60 -->
<g id="edge31" class="edge">
<title>D63:e&#45;&gt;D60:n</title>
<path fill="none" stroke="black" d="M606,-666C606,-666 638,-523 638,-523 638,-523 638,-523 638,-377 638,-377 592,-288 592,-288 592,-288 567.19,-268.58 554.01,-258.27"/>
<polygon fill="black" stroke="black" points="556.03,-255.41 546,-252 551.72,-260.92 556.03,-255.41"/>
<text text-anchor="middle" x="633" y="-452.86" font-family="Times,serif" font-size="14.00">N</text>
</g>
<!-- D68 -->
<g id="node29" class="node">
<title>D68</title>
<polygon fill="none" stroke="black" points="572,-612 460,-612 460,-576 572,-576 572,-612"/>
<text text-anchor="middle" x="516" y="-590.3" font-family="Times,serif" font-size="14.00">int c = t.d[j] / 10;</text>
</g>
<!-- D63&#45;&gt;D68 -->
<g id="edge41" class="edge">
<title>D63:s&#45;&gt;D68:n</title>
<path fill="none" stroke="black" d="M516,-648C516,-648 516,-632.86 516,-622.22"/>
<polygon fill="black" stroke="black" points="519.5,-622 516,-612 512.5,-622 519.5,-622"/>
<text text-anchor="middle" x="511" y="-623.91" font-family="Times,serif" font-size="14.00">Y</text>
</g>
<!-- D70 -->
<g id="node30" class="node">
<title>D70</title>
<polygon fill="none" stroke="black" points="560.5,-540 471.5,-540 471.5,-504 560.5,-504 560.5,-540"/>
<text text-anchor="middle" x="516" y="-518.3" font-family="Times,serif" font-size="14.00">t.d[j] %= 10;</text>
</g>
<!-- D68&#45;&gt;D70 -->
<g id="edge33" class="edge">
<title>D68&#45;&gt;D70</title>
<path fill="none" stroke="black" d="M516,-575.7C516,-567.98 516,-558.71 516,-550.11"/>
<polygon fill="black" stroke="black" points="519.5,-550.1 516,-540.1 512.5,-550.1 519.5,-550.1"/>
</g>
<!-- D72 -->
<g id="node31" class="node">
<title>D72</title>
<polygon fill="none" stroke="black" points="566,-468 466,-468 466,-432 566,-432 566,-468"/>
<text text-anchor="middle" x="516" y="-446.3" font-family="Times,serif" font-size="14.00">t.d[j + 1] += c;</text>
</g>
<!-- D70&#45;&gt;D72 -->
<g id="edge34" class="edge">
<title>D70&#45;&gt;D72</title>
<path fill="none" stroke="black" d="M516,-503.7C516,-495.98 516,-486.71 516,-478.11"/>
<polygon fill="black" stroke="black" points="519.5,-478.1 516,-468.1 512.5,-478.1 519.5,-478.1"/>
</g>
<!-- D74 -->
<g id="node32" class="node">
<title>D74</title>
<polygon fill="none" stroke="black" points="516,-396 422.49,-378 516,-360 609.51,-378 516,-396"/>
<text text-anchor="middle" x="516" y="-374.3" font-family="Times,serif" font-size="14.00">(j == t.len &#45; 1)?</text>
</g>
<!-- D72&#45;&gt;D74 -->
<g id="edge35" class="edge">
<title>D72&#45;&gt;D74</title>
<path fill="none" stroke="black" d="M516,-431.7C516,-423.98 516,-414.71 516,-406.11"/>
<polygon fill="black" stroke="black" points="519.5,-406.1 516,-396.1 512.5,-406.1 519.5,-406.1"/>
</g>
<!-- D74&#45;&gt;D60 -->
<g id="edge36" class="edge">
<title>D74:e&#45;&gt;D60:n</title>
<path fill="none" stroke="black" d="M611,-378C611,-378 610,-360 610,-360 610,-360 566.52,-286.63 551.24,-260.84"/>
<polygon fill="black" stroke="black" points="554.11,-258.82 546,-252 548.09,-262.39 554.11,-258.82"/>
<text text-anchor="middle" x="580.21" y="-321.97" font-family="Times,serif" font-size="14.00">N</text>
</g>
<!-- D77 -->
<g id="node33" class="node">
<title>D77</title>
<polygon fill="none" stroke="black" points="552.5,-324 491.5,-324 491.5,-288 552.5,-288 552.5,-324"/>
<text text-anchor="middle" x="522" y="-302.3" font-family="Times,serif" font-size="14.00">++t.len;</text>
</g>
<!-- D74&#45;&gt;D77 -->
<g id="edge39" class="edge">
<title>D74:s&#45;&gt;D77:n</title>
<path fill="none" stroke="black" d="M516,-360C516,-360 518.52,-344.86 520.3,-334.22"/>
<polygon fill="black" stroke="black" points="523.81,-334.44 522,-324 516.9,-333.29 523.81,-334.44"/>
<text text-anchor="middle" x="513.15" y="-335.91" font-family="Times,serif" font-size="14.00">Y</text>
</g>
<!-- D77&#45;&gt;D60 -->
<g id="edge38" class="edge">
<title>D77&#45;&gt;D60</title>
<path fill="none" stroke="black" d="M527.93,-287.7C530.61,-279.9 533.83,-270.51 536.8,-261.83"/>
<polygon fill="black" stroke="black" points="540.2,-262.7 540.14,-252.1 533.58,-260.43 540.2,-262.7"/>
</g>
<!-- D81 -->
<g id="node34" class="node">
<title>D81</title>
<polygon fill="none" stroke="black" points="761,-612 708.72,-594 761,-576 813.28,-594 761,-612"/>
<text text-anchor="middle" x="761" y="-590.3" font-family="Times,serif" font-size="14.00">i &gt;= 1?</text>
</g>
<!-- D86 -->
<g id="node37" class="node">
<title>D86</title>
<polygon fill="none" stroke="black" points="720,-540 665.54,-522 720,-504 774.46,-522 720,-540"/>
<text text-anchor="middle" x="720" y="-518.3" font-family="Times,serif" font-size="14.00">(t.d[i])?</text>
</g>
<!-- D81&#45;&gt;D86 -->
<g id="edge48" class="edge">
<title>D81:s&#45;&gt;D86:n</title>
<path fill="none" stroke="black" d="M761,-576C761,-576 739.36,-557 727.52,-546.6"/>
<polygon fill="black" stroke="black" points="729.82,-543.97 720,-540 725.21,-549.23 729.82,-543.97"/>
<text text-anchor="middle" x="739.26" y="-565.1" font-family="Times,serif" font-size="14.00">Y</text>
</g>
<!-- D95 -->
<g id="node40" class="node">
<title>D95</title>
<polygon fill="none" stroke="black" points="834,-324 774,-324 774,-288 834,-288 834,-324"/>
<text text-anchor="middle" x="804" y="-302.3" font-family="Times,serif" font-size="14.00">return t;</text>
</g>
<!-- D81&#45;&gt;D95 -->
<g id="edge37" class="edge">
<title>D81:e&#45;&gt;D95:n</title>
<path fill="none" stroke="black" d="M814,-594C814,-594 835,-468 835,-468 835,-468 835,-432 835,-432 835,-432 814.54,-360.7 806.86,-333.97"/>
<polygon fill="black" stroke="black" points="810.12,-332.65 804,-324 803.39,-334.58 810.12,-332.65"/>
<text text-anchor="middle" x="840" y="-466.67" font-family="Times,serif" font-size="14.00">N</text>
</g>
<!-- D82&#45;&gt;D81 -->
<g id="edge43" class="edge">
<title>D82&#45;&gt;D81</title>
<path fill="none" stroke="black" d="M707.55,-647.7C717.6,-637.79 730.24,-625.32 740.71,-615"/>
<polygon fill="black" stroke="black" points="743.22,-617.44 747.88,-607.93 738.31,-612.46 743.22,-617.44"/>
</g>
<!-- D83 -->
<g id="node36" class="node">
<title>D83</title>
<polygon fill="none" stroke="black" points="826,-468 772,-468 772,-432 826,-432 826,-468"/>
<text text-anchor="middle" x="799" y="-446.3" font-family="Times,serif" font-size="14.00">&#45;&#45;i</text>
</g>
<!-- D83&#45;&gt;D81 -->
<g id="edge45" class="edge">
<title>D83&#45;&gt;D81</title>
<path fill="none" stroke="black" d="M795.92,-468.16C791.27,-494.02 783,-540 783,-540 783,-540 776.89,-554.71 771.11,-568.63"/>
<polygon fill="black" stroke="black" points="767.85,-567.38 767.25,-577.95 774.31,-570.06 767.85,-567.38"/>
</g>
<!-- D86&#45;&gt;D83 -->
<g id="edge44" class="edge">
<title>D86:e&#45;&gt;D83:n</title>
<path fill="none" stroke="black" d="M775,-522C775,-522 787.94,-492.88 794.82,-477.41"/>
<polygon fill="black" stroke="black" points="798.14,-478.56 799,-468 791.74,-475.72 798.14,-478.56"/>
<text text-anchor="middle" x="779.91" y="-503.5" font-family="Times,serif" font-size="14.00">N</text>
</g>
<!-- D91 -->
<g id="node38" class="node">
<title>D91</title>
<polygon fill="none" stroke="black" points="754,-468 668,-468 668,-432 754,-432 754,-468"/>
<text text-anchor="middle" x="711" y="-446.3" font-family="Times,serif" font-size="14.00">t.len = 1 + i;</text>
</g>
<!-- D86&#45;&gt;D91 -->
<g id="edge46" class="edge">
<title>D86:s&#45;&gt;D91:n</title>
<path fill="none" stroke="black" d="M720,-504C720,-504 716.12,-488.5 713.46,-477.84"/>
<polygon fill="black" stroke="black" points="716.82,-476.85 711,-468 710.03,-478.55 716.82,-476.85"/>
<text text-anchor="middle" x="711.73" y="-479.72" font-family="Times,serif" font-size="14.00">Y</text>
</g>
<!-- D93 -->
<g id="node39" class="node">
<title>D93</title>
<polygon fill="none" stroke="black" points="782,-396 728,-396 728,-360 782,-360 782,-396"/>
<text text-anchor="middle" x="755" y="-374.3" font-family="Times,serif" font-size="14.00">break</text>
</g>
<!-- D91&#45;&gt;D93 -->
<g id="edge47" class="edge">
<title>D91&#45;&gt;D93</title>
<path fill="none" stroke="black" d="M721.88,-431.7C726.99,-423.56 733.2,-413.69 738.84,-404.7"/>
<polygon fill="black" stroke="black" points="741.89,-406.43 744.25,-396.1 735.96,-402.71 741.89,-406.43"/>
</g>
<!-- D93&#45;&gt;D95 -->
<g id="edge40" class="edge">
<title>D93&#45;&gt;D95</title>
<path fill="none" stroke="black" d="M767.11,-359.7C772.87,-351.47 779.86,-341.48 786.21,-332.42"/>
<polygon fill="black" stroke="black" points="789.16,-334.3 792.03,-324.1 783.42,-330.29 789.16,-334.3"/>
</g>
<!-- D95&#45;&gt;D1 -->
<g id="edge49" class="edge">
<title>D95&#45;&gt;D1</title>
<path fill="none" stroke="black" d="M804,-287.97C804,-240.29 804,-105.18 804,-46.63"/>
<polygon fill="black" stroke="black" points="807.5,-46.31 804,-36.31 800.5,-46.31 807.5,-46.31"/>
</g>
</g>
</svg>
