<?xml version="1.0" encoding="UTF-8" standalone="no"?>
<!DOCTYPE svg PUBLIC "-//W3C//DTD SVG 1.1//EN"
 "http://www.w3.org/Graphics/SVG/1.1/DTD/svg11.dtd">
<!-- Generated by graphviz version 2.50.0 (0)
 -->
<!-- Pages: 1 -->
<svg width="658pt" height="1268pt"
 viewBox="0.00 0.00 658.24 1268.00" xmlns="http://www.w3.org/2000/svg" xmlns:xlink="http://www.w3.org/1999/xlink">
<g id="graph0" class="graph" transform="scale(1 1) rotate(0) translate(4 1264)">
<polygon fill="white" stroke="transparent" points="-4,4 -4,-1264 654.24,-1264 654.24,4 -4,4"/>
<!-- D0 -->
<g id="node1" class="node">
<title>D0</title>
<path fill="none" stroke="black" d="M208.94,-1260C208.94,-1260 178.94,-1260 178.94,-1260 172.94,-1260 166.94,-1254 166.94,-1248 166.94,-1248 166.94,-1236 166.94,-1236 166.94,-1230 172.94,-1224 178.94,-1224 178.94,-1224 208.94,-1224 208.94,-1224 214.94,-1224 220.94,-1230 220.94,-1236 220.94,-1236 220.94,-1248 220.94,-1248 220.94,-1254 214.94,-1260 208.94,-1260"/>
<text text-anchor="middle" x="193.94" y="-1238.3" font-family="Times,serif" font-size="14.00">begin</text>
</g>
<!-- D4 -->
<g id="node3" class="node">
<title>D4</title>
<polygon fill="none" stroke="black" points="193.94,-1188 0.06,-1170 193.94,-1152 387.83,-1170 193.94,-1188"/>
<text text-anchor="middle" x="193.94" y="-1166.3" font-family="Times,serif" font-size="14.00">(s == NULL || s&#45;&gt;next == NULL)?</text>
</g>
<!-- D0&#45;&gt;D4 -->
<g id="edge32" class="edge">
<title>D0&#45;&gt;D4</title>
<path fill="none" stroke="black" d="M193.94,-1223.7C193.94,-1215.98 193.94,-1206.71 193.94,-1198.11"/>
<polygon fill="black" stroke="black" points="197.44,-1198.1 193.94,-1188.1 190.44,-1198.1 197.44,-1198.1"/>
</g>
<!-- D1 -->
<g id="node2" class="node">
<title>D1</title>
<path fill="none" stroke="black" d="M241.94,-36C241.94,-36 211.94,-36 211.94,-36 205.94,-36 199.94,-30 199.94,-24 199.94,-24 199.94,-12 199.94,-12 199.94,-6 205.94,0 211.94,0 211.94,0 241.94,0 241.94,0 247.94,0 253.94,-6 253.94,-12 253.94,-12 253.94,-24 253.94,-24 253.94,-30 247.94,-36 241.94,-36"/>
<text text-anchor="middle" x="226.94" y="-14.3" font-family="Times,serif" font-size="14.00">end</text>
</g>
<!-- D7 -->
<g id="node4" class="node">
<title>D7</title>
<polygon fill="none" stroke="black" points="224.94,-1044 162.94,-1044 162.94,-1008 224.94,-1008 224.94,-1044"/>
<text text-anchor="middle" x="193.94" y="-1022.3" font-family="Times,serif" font-size="14.00">return s;</text>
</g>
<!-- D4&#45;&gt;D7 -->
<g id="edge4" class="edge">
<title>D4:s&#45;&gt;D7:n</title>
<path fill="none" stroke="black" d="M193.94,-1152C193.94,-1107.56 193.94,-1093.98 193.94,-1054.12"/>
<polygon fill="black" stroke="black" points="197.44,-1054 193.94,-1044 190.44,-1054 197.44,-1054"/>
<text text-anchor="middle" x="188.94" y="-1101.89" font-family="Times,serif" font-size="14.00">Y</text>
</g>
<!-- D9 -->
<g id="node5" class="node">
<title>D9</title>
<polygon fill="none" stroke="black" points="506.94,-1116 268.94,-1116 268.94,-1080 506.94,-1080 506.94,-1116"/>
<text text-anchor="middle" x="387.94" y="-1094.3" font-family="Times,serif" font-size="14.00">node* head, *leq = NULL, *g = NULL;</text>
</g>
<!-- D4&#45;&gt;D9 -->
<g id="edge1" class="edge">
<title>D4:e&#45;&gt;D9:n</title>
<path fill="none" stroke="black" d="M388.94,-1170C409.66,-1170 393.86,-1147.65 389.16,-1126.09"/>
<polygon fill="black" stroke="black" points="392.61,-1125.51 387.94,-1116 385.66,-1126.35 392.61,-1125.51"/>
<text text-anchor="middle" x="389.06" y="-1130.96" font-family="Times,serif" font-size="14.00">N</text>
</g>
<!-- D7&#45;&gt;D1 -->
<g id="edge3" class="edge">
<title>D7&#45;&gt;D1</title>
<path fill="none" stroke="black" d="M194.14,-1007.95C194.43,-981.29 194.94,-928.12 194.94,-883 194.94,-883 194.94,-883 194.94,-161 194.94,-120.04 207.77,-74.02 217.18,-45.77"/>
<polygon fill="black" stroke="black" points="220.53,-46.8 220.47,-36.21 213.91,-44.53 220.53,-46.8"/>
</g>
<!-- D11 -->
<g id="node6" class="node">
<title>D11</title>
<polygon fill="none" stroke="black" points="447.44,-1044 326.44,-1044 326.44,-1008 447.44,-1008 447.44,-1044"/>
<text text-anchor="middle" x="386.94" y="-1022.3" font-family="Times,serif" font-size="14.00">node* p = s&#45;&gt;next;</text>
</g>
<!-- D9&#45;&gt;D11 -->
<g id="edge2" class="edge">
<title>D9&#45;&gt;D11</title>
<path fill="none" stroke="black" d="M387.69,-1079.7C387.58,-1071.98 387.45,-1062.71 387.33,-1054.11"/>
<polygon fill="black" stroke="black" points="390.83,-1054.05 387.19,-1044.1 383.83,-1054.15 390.83,-1054.05"/>
</g>
<!-- D13 -->
<g id="node7" class="node">
<title>D13</title>
<polygon fill="none" stroke="black" points="425.94,-972 347.94,-972 347.94,-936 425.94,-936 425.94,-972"/>
<text text-anchor="middle" x="386.94" y="-950.3" font-family="Times,serif" font-size="14.00">head &#160;&#160;&#160;= s;</text>
</g>
<!-- D11&#45;&gt;D13 -->
<g id="edge5" class="edge">
<title>D11&#45;&gt;D13</title>
<path fill="none" stroke="black" d="M386.94,-1007.7C386.94,-999.98 386.94,-990.71 386.94,-982.11"/>
<polygon fill="black" stroke="black" points="390.44,-982.1 386.94,-972.1 383.44,-982.1 390.44,-982.1"/>
</g>
<!-- D15 -->
<g id="node8" class="node">
<title>D15</title>
<polygon fill="none" stroke="black" points="443.44,-900 330.44,-900 330.44,-864 443.44,-864 443.44,-900"/>
<text text-anchor="middle" x="386.94" y="-878.3" font-family="Times,serif" font-size="14.00">s&#45;&gt;next = NULL;</text>
</g>
<!-- D13&#45;&gt;D15 -->
<g id="edge6" class="edge">
<title>D13&#45;&gt;D15</title>
<path fill="none" stroke="black" d="M386.94,-935.7C386.94,-927.98 386.94,-918.71 386.94,-910.11"/>
<polygon fill="black" stroke="black" points="390.44,-910.1 386.94,-900.1 383.44,-910.1 390.44,-910.1"/>
</g>
<!-- D19 -->
<g id="node9" class="node">
<title>D19</title>
<polygon fill="none" stroke="black" points="386.94,-828 359.94,-810 386.94,-792 413.94,-810 386.94,-828"/>
<text text-anchor="middle" x="386.94" y="-806.3" font-family="Times,serif" font-size="14.00">p?</text>
</g>
<!-- D15&#45;&gt;D19 -->
<g id="edge30" class="edge">
<title>D15&#45;&gt;D19</title>
<path fill="none" stroke="black" d="M386.94,-863.7C386.94,-855.98 386.94,-846.71 386.94,-838.11"/>
<polygon fill="black" stroke="black" points="390.44,-838.1 386.94,-828.1 383.44,-838.1 390.44,-838.1"/>
</g>
<!-- D24 -->
<g id="node10" class="node">
<title>D24</title>
<polygon fill="none" stroke="black" points="455.94,-756 317.94,-756 317.94,-720 455.94,-720 455.94,-756"/>
<text text-anchor="middle" x="386.94" y="-734.3" font-family="Times,serif" font-size="14.00">node* t &#160;&#160;&#160;&#160;&#160;= p&#45;&gt;next;</text>
</g>
<!-- D19&#45;&gt;D24 -->
<g id="edge18" class="edge">
<title>D19:s&#45;&gt;D24:n</title>
<path fill="none" stroke="black" d="M386.94,-792C386.94,-780 386.94,-774.75 386.94,-766.12"/>
<polygon fill="black" stroke="black" points="390.44,-766 386.94,-756 383.44,-766 390.44,-766"/>
<text text-anchor="middle" x="381.94" y="-778.03" font-family="Times,serif" font-size="14.00">Y</text>
</g>
<!-- D45 -->
<g id="node18" class="node">
<title>D45</title>
<polygon fill="none" stroke="black" points="630.44,-756 499.44,-756 499.44,-720 630.44,-720 630.44,-756"/>
<text text-anchor="middle" x="564.94" y="-734.3" font-family="Times,serif" font-size="14.00">leq = sort_node(leq);</text>
</g>
<!-- D19&#45;&gt;D45 -->
<g id="edge8" class="edge">
<title>D19:e&#45;&gt;D45:n</title>
<path fill="none" stroke="black" d="M414.94,-810C446.91,-810 543.32,-794.88 561.84,-765.9"/>
<polygon fill="black" stroke="black" points="565.29,-766.59 564.94,-756 558.61,-764.5 565.29,-766.59"/>
<text text-anchor="middle" x="488.79" y="-802.53" font-family="Times,serif" font-size="14.00">N</text>
</g>
<!-- D26 -->
<g id="node11" class="node">
<title>D26</title>
<polygon fill="none" stroke="black" points="512.44,-684 261.44,-684 261.44,-648 512.44,-648 512.44,-684"/>
<text text-anchor="middle" x="386.94" y="-662.3" font-family="Times,serif" font-size="14.00">student* stu = p&#45;&gt;data, *piv = head&#45;&gt;data;</text>
</g>
<!-- D24&#45;&gt;D26 -->
<g id="edge9" class="edge">
<title>D24&#45;&gt;D26</title>
<path fill="none" stroke="black" d="M386.94,-719.7C386.94,-711.98 386.94,-702.71 386.94,-694.11"/>
<polygon fill="black" stroke="black" points="390.44,-694.1 386.94,-684.1 383.44,-694.1 390.44,-694.1"/>
</g>
<!-- D28 -->
<g id="node12" class="node">
<title>D28</title>
<polygon fill="none" stroke="black" points="372.94,-612 274.74,-594 372.94,-576 471.14,-594 372.94,-612"/>
<text text-anchor="middle" x="372.94" y="-590.3" font-family="Times,serif" font-size="14.00">(isleq(stu, piv))?</text>
</g>
<!-- D26&#45;&gt;D28 -->
<g id="edge10" class="edge">
<title>D26&#45;&gt;D28</title>
<path fill="none" stroke="black" d="M383.48,-647.7C381.9,-639.78 379.99,-630.23 378.23,-621.44"/>
<polygon fill="black" stroke="black" points="381.66,-620.74 376.27,-611.62 374.8,-622.11 381.66,-620.74"/>
</g>
<!-- D33 -->
<g id="node13" class="node">
<title>D33</title>
<polygon fill="none" stroke="black" points="409.44,-540 314.44,-540 314.44,-504 409.44,-504 409.44,-540"/>
<text text-anchor="middle" x="361.94" y="-518.3" font-family="Times,serif" font-size="14.00">p&#45;&gt;next = leq;</text>
</g>
<!-- D28&#45;&gt;D33 -->
<g id="edge14" class="edge">
<title>D28:s&#45;&gt;D33:n</title>
<path fill="none" stroke="black" d="M372.94,-576C372.94,-563.32 366.63,-558.79 363.57,-550.06"/>
<polygon fill="black" stroke="black" points="366.99,-549.31 361.94,-540 360.08,-550.43 366.99,-549.31"/>
<text text-anchor="middle" x="362.49" y="-561.88" font-family="Times,serif" font-size="14.00">Y</text>
</g>
<!-- D39 -->
<g id="node15" class="node">
<title>D39</title>
<polygon fill="none" stroke="black" points="513.94,-540 427.94,-540 427.94,-504 513.94,-504 513.94,-540"/>
<text text-anchor="middle" x="470.94" y="-518.3" font-family="Times,serif" font-size="14.00">p&#45;&gt;next = g;</text>
</g>
<!-- D28&#45;&gt;D39 -->
<g id="edge15" class="edge">
<title>D28:e&#45;&gt;D39:n</title>
<path fill="none" stroke="black" d="M471.94,-594C492.66,-594 476.86,-571.65 472.16,-550.09"/>
<polygon fill="black" stroke="black" points="475.61,-549.51 470.94,-540 468.66,-550.35 475.61,-549.51"/>
<text text-anchor="middle" x="472.06" y="-554.96" font-family="Times,serif" font-size="14.00">N</text>
</g>
<!-- D35 -->
<g id="node14" class="node">
<title>D35</title>
<polygon fill="none" stroke="black" points="398.94,-468 324.94,-468 324.94,-432 398.94,-432 398.94,-468"/>
<text text-anchor="middle" x="361.94" y="-446.3" font-family="Times,serif" font-size="14.00">leq &#160;&#160;&#160;&#160;= p;</text>
</g>
<!-- D33&#45;&gt;D35 -->
<g id="edge11" class="edge">
<title>D33&#45;&gt;D35</title>
<path fill="none" stroke="black" d="M361.94,-503.7C361.94,-495.98 361.94,-486.71 361.94,-478.11"/>
<polygon fill="black" stroke="black" points="365.44,-478.1 361.94,-468.1 358.44,-478.1 365.44,-478.1"/>
</g>
<!-- D43 -->
<g id="node17" class="node">
<title>D43</title>
<polygon fill="none" stroke="black" points="388.94,-396 334.94,-396 334.94,-360 388.94,-360 388.94,-396"/>
<text text-anchor="middle" x="361.94" y="-374.3" font-family="Times,serif" font-size="14.00">p = t;</text>
</g>
<!-- D35&#45;&gt;D43 -->
<g id="edge12" class="edge">
<title>D35&#45;&gt;D43</title>
<path fill="none" stroke="black" d="M361.94,-431.7C361.94,-423.98 361.94,-414.71 361.94,-406.11"/>
<polygon fill="black" stroke="black" points="365.44,-406.1 361.94,-396.1 358.44,-406.1 365.44,-406.1"/>
</g>
<!-- D41 -->
<g id="node16" class="node">
<title>D41</title>
<polygon fill="none" stroke="black" points="493.94,-468 421.94,-468 421.94,-432 493.94,-432 493.94,-468"/>
<text text-anchor="middle" x="457.94" y="-446.3" font-family="Times,serif" font-size="14.00">g &#160;&#160;&#160;&#160;&#160;&#160;= p;</text>
</g>
<!-- D39&#45;&gt;D41 -->
<g id="edge13" class="edge">
<title>D39&#45;&gt;D41</title>
<path fill="none" stroke="black" d="M467.73,-503.7C466.3,-495.98 464.57,-486.71 462.98,-478.11"/>
<polygon fill="black" stroke="black" points="466.39,-477.3 461.12,-468.1 459.5,-478.58 466.39,-477.3"/>
</g>
<!-- D41&#45;&gt;D43 -->
<g id="edge16" class="edge">
<title>D41&#45;&gt;D43</title>
<path fill="none" stroke="black" d="M434.21,-431.7C422.01,-422.8 406.96,-411.82 393.76,-402.2"/>
<polygon fill="black" stroke="black" points="395.54,-399.17 385.4,-396.1 391.42,-404.82 395.54,-399.17"/>
</g>
<!-- D43&#45;&gt;D19 -->
<g id="edge7" class="edge">
<title>D43&#45;&gt;D19</title>
<path fill="none" stroke="black" d="M334.9,-393.08C297.07,-414.95 232.94,-460.88 232.94,-521 232.94,-667 232.94,-667 232.94,-667 232.94,-735.83 317.11,-780.5 361,-799.11"/>
<polygon fill="black" stroke="black" points="359.88,-802.44 370.46,-802.99 362.53,-795.96 359.88,-802.44"/>
</g>
<!-- D47 -->
<g id="node19" class="node">
<title>D47</title>
<polygon fill="none" stroke="black" points="649.44,-684 530.44,-684 530.44,-648 649.44,-648 649.44,-684"/>
<text text-anchor="middle" x="589.94" y="-662.3" font-family="Times,serif" font-size="14.00">g &#160;&#160;= sort_node(g);</text>
</g>
<!-- D45&#45;&gt;D47 -->
<g id="edge17" class="edge">
<title>D45&#45;&gt;D47</title>
<path fill="none" stroke="black" d="M571.12,-719.7C573.94,-711.81 577.33,-702.3 580.46,-693.55"/>
<polygon fill="black" stroke="black" points="583.77,-694.7 583.83,-684.1 577.17,-692.34 583.77,-694.7"/>
</g>
<!-- D49 -->
<g id="node20" class="node">
<title>D49</title>
<polygon fill="none" stroke="black" points="639.94,-612 525.94,-612 525.94,-576 639.94,-576 639.94,-612"/>
<text text-anchor="middle" x="582.94" y="-590.3" font-family="Times,serif" font-size="14.00">node* res = head;</text>
</g>
<!-- D47&#45;&gt;D49 -->
<g id="edge19" class="edge">
<title>D47&#45;&gt;D49</title>
<path fill="none" stroke="black" d="M588.21,-647.7C587.44,-639.98 586.51,-630.71 585.65,-622.11"/>
<polygon fill="black" stroke="black" points="589.13,-621.71 584.65,-612.1 582.17,-622.4 589.13,-621.71"/>
</g>
<!-- D51 -->
<g id="node21" class="node">
<title>D51</title>
<polygon fill="none" stroke="black" points="575.94,-540 531.7,-522 575.94,-504 620.18,-522 575.94,-540"/>
<text text-anchor="middle" x="575.94" y="-518.3" font-family="Times,serif" font-size="14.00">(leq)?</text>
</g>
<!-- D49&#45;&gt;D51 -->
<g id="edge20" class="edge">
<title>D49&#45;&gt;D51</title>
<path fill="none" stroke="black" d="M581.21,-575.7C580.43,-567.87 579.49,-558.44 578.61,-549.73"/>
<polygon fill="black" stroke="black" points="582.08,-549.22 577.6,-539.62 575.12,-549.92 582.08,-549.22"/>
</g>
<!-- D56 -->
<g id="node22" class="node">
<title>D56</title>
<polygon fill="none" stroke="black" points="588.94,-468 520.94,-468 520.94,-432 588.94,-432 588.94,-468"/>
<text text-anchor="middle" x="554.94" y="-446.3" font-family="Times,serif" font-size="14.00">res = leq;</text>
</g>
<!-- D51&#45;&gt;D56 -->
<g id="edge29" class="edge">
<title>D51:s&#45;&gt;D56:n</title>
<path fill="none" stroke="black" d="M575.94,-504C575.94,-489.53 563.12,-487 557.52,-477.76"/>
<polygon fill="black" stroke="black" points="560.88,-476.78 554.94,-468 554.11,-478.56 560.88,-476.78"/>
<text text-anchor="middle" x="560.43" y="-489.79" font-family="Times,serif" font-size="14.00">Y</text>
</g>
<!-- D67 -->
<g id="node27" class="node">
<title>D67</title>
<polygon fill="none" stroke="black" points="592.94,-180 488.94,-180 488.94,-144 592.94,-144 592.94,-180"/>
<text text-anchor="middle" x="540.94" y="-158.3" font-family="Times,serif" font-size="14.00">head&#45;&gt;next = g;</text>
</g>
<!-- D51&#45;&gt;D67 -->
<g id="edge21" class="edge">
<title>D51:e&#45;&gt;D67:n</title>
<path fill="none" stroke="black" d="M621.94,-522C685.5,-522 620.94,-442.56 620.94,-379 620.94,-379 620.94,-379 620.94,-305 620.94,-264.55 625.57,-248.82 601.94,-216 585.99,-193.84 551.83,-206.72 543.04,-190"/>
<polygon fill="black" stroke="black" points="546.42,-189.07 540.94,-180 539.57,-190.51 546.42,-189.07"/>
<text text-anchor="middle" x="615.94" y="-373.56" font-family="Times,serif" font-size="14.00">N</text>
</g>
<!-- D58 -->
<g id="node23" class="node">
<title>D58</title>
<polygon fill="none" stroke="black" points="532.44,-396 473.44,-396 473.44,-360 532.44,-360 532.44,-396"/>
<text text-anchor="middle" x="502.94" y="-374.3" font-family="Times,serif" font-size="14.00">p = leq;</text>
</g>
<!-- D56&#45;&gt;D58 -->
<g id="edge22" class="edge">
<title>D56&#45;&gt;D58</title>
<path fill="none" stroke="black" d="M542.09,-431.7C535.92,-423.39 528.41,-413.28 521.62,-404.14"/>
<polygon fill="black" stroke="black" points="524.42,-402.04 515.65,-396.1 518.8,-406.22 524.42,-402.04"/>
</g>
<!-- D60 -->
<g id="node24" class="node">
<title>D60</title>
<polygon fill="none" stroke="black" points="450.94,-324 382.91,-306 450.94,-288 518.98,-306 450.94,-324"/>
<text text-anchor="middle" x="450.94" y="-302.3" font-family="Times,serif" font-size="14.00">(p&#45;&gt;next)?</text>
</g>
<!-- D58&#45;&gt;D60 -->
<g id="edge23" class="edge">
<title>D58&#45;&gt;D60</title>
<path fill="none" stroke="black" d="M490.09,-359.7C483.3,-350.55 474.88,-339.22 467.59,-329.41"/>
<polygon fill="black" stroke="black" points="470.32,-327.22 461.55,-321.28 464.7,-331.39 470.32,-327.22"/>
</g>
<!-- D63 -->
<g id="node25" class="node">
<title>D63</title>
<polygon fill="none" stroke="black" points="470.94,-252 384.94,-252 384.94,-216 470.94,-216 470.94,-252"/>
<text text-anchor="middle" x="427.94" y="-230.3" font-family="Times,serif" font-size="14.00">p = p&#45;&gt;next;</text>
</g>
<!-- D60&#45;&gt;D63 -->
<g id="edge26" class="edge">
<title>D60:s&#45;&gt;D63:n</title>
<path fill="none" stroke="black" d="M450.94,-288C450.94,-273.17 436.9,-271.13 430.76,-261.89"/>
<polygon fill="black" stroke="black" points="434.05,-260.66 427.94,-252 427.32,-262.58 434.05,-260.66"/>
<text text-anchor="middle" x="434.43" y="-273.79" font-family="Times,serif" font-size="14.00">Y</text>
</g>
<!-- D65 -->
<g id="node26" class="node">
<title>D65</title>
<polygon fill="none" stroke="black" points="592.94,-252 488.94,-252 488.94,-216 592.94,-216 592.94,-252"/>
<text text-anchor="middle" x="540.94" y="-230.3" font-family="Times,serif" font-size="14.00">p&#45;&gt;next = head;</text>
</g>
<!-- D60&#45;&gt;D65 -->
<g id="edge24" class="edge">
<title>D60:e&#45;&gt;D65:n</title>
<path fill="none" stroke="black" d="M519.94,-306C542.37,-306 541.66,-284.56 541.1,-262.02"/>
<polygon fill="black" stroke="black" points="544.6,-261.94 540.94,-252 537.6,-262.06 544.6,-261.94"/>
<text text-anchor="middle" x="536.14" y="-283.17" font-family="Times,serif" font-size="14.00">N</text>
</g>
<!-- D63&#45;&gt;D60 -->
<g id="edge25" class="edge">
<title>D63&#45;&gt;D60</title>
<path fill="none" stroke="black" d="M433.62,-252.29C436.31,-260.48 439.58,-270.42 442.55,-279.45"/>
<polygon fill="black" stroke="black" points="439.28,-280.71 445.72,-289.12 445.93,-278.52 439.28,-280.71"/>
</g>
<!-- D65&#45;&gt;D67 -->
<g id="edge27" class="edge">
<title>D65&#45;&gt;D67</title>
<path fill="none" stroke="black" d="M540.94,-215.7C540.94,-207.98 540.94,-198.71 540.94,-190.11"/>
<polygon fill="black" stroke="black" points="544.44,-190.1 540.94,-180.1 537.44,-190.1 544.44,-190.1"/>
</g>
<!-- D69 -->
<g id="node28" class="node">
<title>D69</title>
<polygon fill="none" stroke="black" points="435.94,-108 363.94,-108 363.94,-72 435.94,-72 435.94,-108"/>
<text text-anchor="middle" x="399.94" y="-86.3" font-family="Times,serif" font-size="14.00">return res;</text>
</g>
<!-- D67&#45;&gt;D69 -->
<g id="edge28" class="edge">
<title>D67&#45;&gt;D69</title>
<path fill="none" stroke="black" d="M506.45,-143.88C487.5,-134.47 463.81,-122.71 443.59,-112.67"/>
<polygon fill="black" stroke="black" points="445.08,-109.5 434.57,-108.19 441.97,-115.77 445.08,-109.5"/>
</g>
<!-- D69&#45;&gt;D1 -->
<g id="edge31" class="edge">
<title>D69&#45;&gt;D1</title>
<path fill="none" stroke="black" d="M363.68,-74.33C334.3,-62.44 293.1,-45.77 263.61,-33.84"/>
<polygon fill="black" stroke="black" points="264.68,-30.49 254.1,-29.99 262.05,-36.98 264.68,-30.49"/>
</g>
</g>
</svg>
