<?xml version="1.0" encoding="UTF-8" standalone="no"?>
<!DOCTYPE svg PUBLIC "-//W3C//DTD SVG 1.1//EN"
 "http://www.w3.org/Graphics/SVG/1.1/DTD/svg11.dtd">
<!-- Generated by graphviz version 2.48.0 (20210717.1556)
 -->
<!-- Pages: 1 -->
<svg width="663pt" height="1268pt"
 viewBox="0.00 0.00 663.36 1268.00" xmlns="http://www.w3.org/2000/svg" xmlns:xlink="http://www.w3.org/1999/xlink">
<g id="graph0" class="graph" transform="scale(1 1) rotate(0) translate(4 1264)">
<polygon fill="white" stroke="transparent" points="-4,4 -4,-1264 659.36,-1264 659.36,4 -4,4"/>
<!-- D0 -->
<g id="node1" class="node">
<title>D0</title>
<path fill="none" stroke="black" d="M209.86,-1260C209.86,-1260 179.86,-1260 179.86,-1260 173.86,-1260 167.86,-1254 167.86,-1248 167.86,-1248 167.86,-1236 167.86,-1236 167.86,-1230 173.86,-1224 179.86,-1224 179.86,-1224 209.86,-1224 209.86,-1224 215.86,-1224 221.86,-1230 221.86,-1236 221.86,-1236 221.86,-1248 221.86,-1248 221.86,-1254 215.86,-1260 209.86,-1260"/>
<text text-anchor="middle" x="194.86" y="-1238.3" font-family="Times,serif" font-size="14.00">Start</text>
</g>
<!-- D1 -->
<g id="node2" class="node">
<title>D1</title>
<polygon fill="none" stroke="black" points="194.86,-1188 0.14,-1170 194.86,-1152 389.58,-1170 194.86,-1188"/>
<text text-anchor="middle" x="194.86" y="-1166.3" font-family="Times,serif" font-size="14.00">(s == NULL || s&#45;&gt;next == NULL)?</text>
</g>
<!-- D0&#45;&gt;D1 -->
<g id="edge1" class="edge">
<title>D0:s&#45;&gt;D1:n</title>
<path fill="none" stroke="black" d="M194.86,-1224C194.86,-1224 194.86,-1208.86 194.86,-1198.22"/>
<polygon fill="black" stroke="black" points="198.36,-1198 194.86,-1188 191.36,-1198 198.36,-1198"/>
</g>
<!-- D2 -->
<g id="node3" class="node">
<title>D2</title>
<polygon fill="none" stroke="black" points="226.36,-1044 163.36,-1044 163.36,-1008 226.36,-1008 226.36,-1044"/>
<text text-anchor="middle" x="194.86" y="-1022.3" font-family="Times,serif" font-size="14.00">return s;</text>
</g>
<!-- D1&#45;&gt;D2 -->
<g id="edge2" class="edge">
<title>D1:s&#45;&gt;D2:n</title>
<path fill="none" stroke="black" d="M194.86,-1152C194.86,-1152 194.86,-1081.39 194.86,-1054.36"/>
<polygon fill="black" stroke="black" points="198.36,-1054 194.86,-1044 191.36,-1054 198.36,-1054"/>
<text text-anchor="middle" x="189.36" y="-1106.98" font-family="Times,serif" font-size="14.00">Y</text>
</g>
<!-- D3 -->
<g id="node4" class="node">
<title>D3</title>
<polygon fill="none" stroke="black" points="510.36,-1116 269.36,-1116 269.36,-1080 510.36,-1080 510.36,-1116"/>
<text text-anchor="middle" x="389.86" y="-1094.3" font-family="Times,serif" font-size="14.00">node* head, *leq = NULL, *g = NULL;</text>
</g>
<!-- D1&#45;&gt;D3 -->
<g id="edge3" class="edge">
<title>D1:e&#45;&gt;D3:n</title>
<path fill="none" stroke="black" d="M390.86,-1170C390.86,-1170 390.34,-1142.1 390.05,-1126.41"/>
<polygon fill="black" stroke="black" points="393.55,-1125.93 389.86,-1116 386.55,-1126.06 393.55,-1125.93"/>
<text text-anchor="middle" x="384.96" y="-1137.01" font-family="Times,serif" font-size="14.00">N</text>
</g>
<!-- D27 -->
<g id="node28" class="node">
<title>D27</title>
<path fill="none" stroke="black" d="M241.86,-36C241.86,-36 211.86,-36 211.86,-36 205.86,-36 199.86,-30 199.86,-24 199.86,-24 199.86,-12 199.86,-12 199.86,-6 205.86,0 211.86,0 211.86,0 241.86,0 241.86,0 247.86,0 253.86,-6 253.86,-12 253.86,-12 253.86,-24 253.86,-24 253.86,-30 247.86,-36 241.86,-36"/>
<text text-anchor="middle" x="226.86" y="-14.3" font-family="Times,serif" font-size="14.00">End</text>
</g>
<!-- D2&#45;&gt;D27 -->
<g id="edge4" class="edge">
<title>D2&#45;&gt;D27</title>
<path fill="none" stroke="black" d="M194.86,-1007.87C194.86,-970.1 194.86,-883 194.86,-883 194.86,-883 194.86,-883 194.86,-161 194.86,-161 211.47,-87.29 220.76,-46.08"/>
<polygon fill="black" stroke="black" points="224.22,-46.65 223,-36.13 217.39,-45.11 224.22,-46.65"/>
</g>
<!-- D4 -->
<g id="node5" class="node">
<title>D4</title>
<polygon fill="none" stroke="black" points="449.86,-1044 327.86,-1044 327.86,-1008 449.86,-1008 449.86,-1044"/>
<text text-anchor="middle" x="388.86" y="-1022.3" font-family="Times,serif" font-size="14.00">node* p = s&#45;&gt;next;</text>
</g>
<!-- D3&#45;&gt;D4 -->
<g id="edge5" class="edge">
<title>D3:s&#45;&gt;D4:n</title>
<path fill="none" stroke="black" d="M389.86,-1080C389.86,-1080 389.44,-1064.86 389.15,-1054.22"/>
<polygon fill="black" stroke="black" points="392.64,-1053.9 388.86,-1044 385.64,-1054.09 392.64,-1053.9"/>
</g>
<!-- D5 -->
<g id="node6" class="node">
<title>D5</title>
<polygon fill="none" stroke="black" points="427.86,-972 349.86,-972 349.86,-936 427.86,-936 427.86,-972"/>
<text text-anchor="middle" x="388.86" y="-950.3" font-family="Times,serif" font-size="14.00">head &#160;&#160;&#160;= s;</text>
</g>
<!-- D4&#45;&gt;D5 -->
<g id="edge6" class="edge">
<title>D4:s&#45;&gt;D5:n</title>
<path fill="none" stroke="black" d="M388.86,-1008C388.86,-1008 388.86,-992.86 388.86,-982.22"/>
<polygon fill="black" stroke="black" points="392.36,-982 388.86,-972 385.36,-982 392.36,-982"/>
</g>
<!-- D6 -->
<g id="node7" class="node">
<title>D6</title>
<polygon fill="none" stroke="black" points="446.36,-900 331.36,-900 331.36,-864 446.36,-864 446.36,-900"/>
<text text-anchor="middle" x="388.86" y="-878.3" font-family="Times,serif" font-size="14.00">s&#45;&gt;next = NULL;</text>
</g>
<!-- D5&#45;&gt;D6 -->
<g id="edge7" class="edge">
<title>D5:s&#45;&gt;D6:n</title>
<path fill="none" stroke="black" d="M388.86,-936C388.86,-936 388.86,-920.86 388.86,-910.22"/>
<polygon fill="black" stroke="black" points="392.36,-910 388.86,-900 385.36,-910 392.36,-910"/>
</g>
<!-- D7 -->
<g id="node8" class="node">
<title>D7</title>
<polygon fill="none" stroke="black" points="388.86,-828 361.21,-810 388.86,-792 416.51,-810 388.86,-828"/>
<text text-anchor="middle" x="388.86" y="-806.3" font-family="Times,serif" font-size="14.00">p?</text>
</g>
<!-- D6&#45;&gt;D7 -->
<g id="edge8" class="edge">
<title>D6:s&#45;&gt;D7:n</title>
<path fill="none" stroke="black" d="M388.86,-864C388.86,-864 388.86,-848.86 388.86,-838.22"/>
<polygon fill="black" stroke="black" points="392.36,-838 388.86,-828 385.36,-838 392.36,-838"/>
</g>
<!-- D8 -->
<g id="node9" class="node">
<title>D8</title>
<polygon fill="none" stroke="black" points="457.86,-756 319.86,-756 319.86,-720 457.86,-720 457.86,-756"/>
<text text-anchor="middle" x="388.86" y="-734.3" font-family="Times,serif" font-size="14.00">node* t &#160;&#160;&#160;&#160;&#160;= p&#45;&gt;next;</text>
</g>
<!-- D7&#45;&gt;D8 -->
<g id="edge9" class="edge">
<title>D7:s&#45;&gt;D8:n</title>
<path fill="none" stroke="black" d="M388.86,-792C388.86,-792 388.86,-776.86 388.86,-766.22"/>
<polygon fill="black" stroke="black" points="392.36,-766 388.86,-756 385.36,-766 392.36,-766"/>
<text text-anchor="middle" x="383.36" y="-767.91" font-family="Times,serif" font-size="14.00">Y</text>
</g>
<!-- D16 -->
<g id="node17" class="node">
<title>D16</title>
<polygon fill="none" stroke="black" points="635.86,-756 501.86,-756 501.86,-720 635.86,-720 635.86,-756"/>
<text text-anchor="middle" x="568.86" y="-734.3" font-family="Times,serif" font-size="14.00">leq = sort_node(leq);</text>
</g>
<!-- D7&#45;&gt;D16 -->
<g id="edge10" class="edge">
<title>D7:e&#45;&gt;D16:n</title>
<path fill="none" stroke="black" d="M417.86,-810C417.86,-810 526.36,-771.2 559.42,-759.38"/>
<polygon fill="black" stroke="black" points="560.62,-762.66 568.86,-756 558.27,-756.07 560.62,-762.66"/>
<text text-anchor="middle" x="483.14" y="-788.49" font-family="Times,serif" font-size="14.00">N</text>
</g>
<!-- D9 -->
<g id="node10" class="node">
<title>D9</title>
<polygon fill="none" stroke="black" points="516.36,-684 261.36,-684 261.36,-648 516.36,-648 516.36,-684"/>
<text text-anchor="middle" x="388.86" y="-662.3" font-family="Times,serif" font-size="14.00">student* stu = p&#45;&gt;data, *piv = head&#45;&gt;data;</text>
</g>
<!-- D8&#45;&gt;D9 -->
<g id="edge11" class="edge">
<title>D8:s&#45;&gt;D9:n</title>
<path fill="none" stroke="black" d="M388.86,-720C388.86,-720 388.86,-704.86 388.86,-694.22"/>
<polygon fill="black" stroke="black" points="392.36,-694 388.86,-684 385.36,-694 392.36,-694"/>
</g>
<!-- D10 -->
<g id="node11" class="node">
<title>D10</title>
<polygon fill="none" stroke="black" points="374.86,-612 274.48,-594 374.86,-576 475.24,-594 374.86,-612"/>
<text text-anchor="middle" x="374.86" y="-590.3" font-family="Times,serif" font-size="14.00">(isleq(stu, piv))?</text>
</g>
<!-- D9&#45;&gt;D10 -->
<g id="edge12" class="edge">
<title>D9:s&#45;&gt;D10:n</title>
<path fill="none" stroke="black" d="M388.86,-648C388.86,-648 382.69,-632.12 378.54,-621.46"/>
<polygon fill="black" stroke="black" points="381.75,-620.05 374.86,-612 375.22,-622.59 381.75,-620.05"/>
</g>
<!-- D11 -->
<g id="node12" class="node">
<title>D11</title>
<polygon fill="none" stroke="black" points="413.86,-540 317.86,-540 317.86,-504 413.86,-504 413.86,-540"/>
<text text-anchor="middle" x="365.86" y="-518.3" font-family="Times,serif" font-size="14.00">p&#45;&gt;next = leq;</text>
</g>
<!-- D10&#45;&gt;D11 -->
<g id="edge13" class="edge">
<title>D10:s&#45;&gt;D11:n</title>
<path fill="none" stroke="black" d="M374.86,-576C374.86,-576 370.99,-560.5 368.32,-549.84"/>
<polygon fill="black" stroke="black" points="371.68,-548.85 365.86,-540 364.89,-550.55 371.68,-548.85"/>
<text text-anchor="middle" x="366.09" y="-551.72" font-family="Times,serif" font-size="14.00">Y</text>
</g>
<!-- D13 -->
<g id="node14" class="node">
<title>D13</title>
<polygon fill="none" stroke="black" points="517.86,-540 431.86,-540 431.86,-504 517.86,-504 517.86,-540"/>
<text text-anchor="middle" x="474.86" y="-518.3" font-family="Times,serif" font-size="14.00">p&#45;&gt;next = g;</text>
</g>
<!-- D10&#45;&gt;D13 -->
<g id="edge14" class="edge">
<title>D10:e&#45;&gt;D13:n</title>
<path fill="none" stroke="black" d="M475.86,-594C475.86,-594 475.34,-566.1 475.05,-550.41"/>
<polygon fill="black" stroke="black" points="478.55,-549.93 474.86,-540 471.55,-550.06 478.55,-549.93"/>
<text text-anchor="middle" x="469.96" y="-561.01" font-family="Times,serif" font-size="14.00">N</text>
</g>
<!-- D12 -->
<g id="node13" class="node">
<title>D12</title>
<polygon fill="none" stroke="black" points="402.36,-468 329.36,-468 329.36,-432 402.36,-432 402.36,-468"/>
<text text-anchor="middle" x="365.86" y="-446.3" font-family="Times,serif" font-size="14.00">leq &#160;&#160;&#160;&#160;= p;</text>
</g>
<!-- D11&#45;&gt;D12 -->
<g id="edge15" class="edge">
<title>D11:s&#45;&gt;D12:n</title>
<path fill="none" stroke="black" d="M365.86,-504C365.86,-504 365.86,-488.86 365.86,-478.22"/>
<polygon fill="black" stroke="black" points="369.36,-478 365.86,-468 362.36,-478 369.36,-478"/>
</g>
<!-- D15 -->
<g id="node16" class="node">
<title>D15</title>
<polygon fill="none" stroke="black" points="392.86,-396 338.86,-396 338.86,-360 392.86,-360 392.86,-396"/>
<text text-anchor="middle" x="365.86" y="-374.3" font-family="Times,serif" font-size="14.00">p = t;</text>
</g>
<!-- D12&#45;&gt;D15 -->
<g id="edge16" class="edge">
<title>D12&#45;&gt;D15</title>
<path fill="none" stroke="black" d="M365.86,-431.7C365.86,-423.98 365.86,-414.71 365.86,-406.11"/>
<polygon fill="black" stroke="black" points="369.36,-406.1 365.86,-396.1 362.36,-406.1 369.36,-406.1"/>
</g>
<!-- D14 -->
<g id="node15" class="node">
<title>D14</title>
<polygon fill="none" stroke="black" points="495.86,-468 425.86,-468 425.86,-432 495.86,-432 495.86,-468"/>
<text text-anchor="middle" x="460.86" y="-446.3" font-family="Times,serif" font-size="14.00">g &#160;&#160;&#160;&#160;&#160;&#160;= p;</text>
</g>
<!-- D13&#45;&gt;D14 -->
<g id="edge17" class="edge">
<title>D13:s&#45;&gt;D14:n</title>
<path fill="none" stroke="black" d="M474.86,-504C474.86,-504 468.69,-488.12 464.54,-477.46"/>
<polygon fill="black" stroke="black" points="467.75,-476.05 460.86,-468 461.22,-478.59 467.75,-476.05"/>
</g>
<!-- D14&#45;&gt;D15 -->
<g id="edge18" class="edge">
<title>D14&#45;&gt;D15</title>
<path fill="none" stroke="black" d="M437.38,-431.7C425.3,-422.8 410.41,-411.82 397.35,-402.2"/>
<polygon fill="black" stroke="black" points="399.2,-399.22 389.07,-396.1 395.05,-404.85 399.2,-399.22"/>
</g>
<!-- D15&#45;&gt;D7 -->
<g id="edge19" class="edge">
<title>D15&#45;&gt;D7</title>
<path fill="none" stroke="black" d="M349.82,-396.13C314.44,-433.9 232.86,-521 232.86,-521 232.86,-667 232.86,-667 232.86,-667 232.86,-667 310.86,-756 310.86,-756 310.86,-756 344.35,-778.75 367.44,-794.44"/>
<polygon fill="black" stroke="black" points="365.74,-797.52 375.98,-800.25 369.68,-791.73 365.74,-797.52"/>
</g>
<!-- D17 -->
<g id="node18" class="node">
<title>D17</title>
<polygon fill="none" stroke="black" points="655.36,-684 534.36,-684 534.36,-648 655.36,-648 655.36,-684"/>
<text text-anchor="middle" x="594.86" y="-662.3" font-family="Times,serif" font-size="14.00">g &#160;&#160;= sort_node(g);</text>
</g>
<!-- D16&#45;&gt;D17 -->
<g id="edge20" class="edge">
<title>D16:s&#45;&gt;D17:n</title>
<path fill="none" stroke="black" d="M568.86,-720C568.86,-720 581.15,-702.98 588.83,-692.35"/>
<polygon fill="black" stroke="black" points="591.84,-694.16 594.86,-684 586.17,-690.06 591.84,-694.16"/>
</g>
<!-- D18 -->
<g id="node19" class="node">
<title>D18</title>
<polygon fill="none" stroke="black" points="645.86,-612 529.86,-612 529.86,-576 645.86,-576 645.86,-612"/>
<text text-anchor="middle" x="587.86" y="-590.3" font-family="Times,serif" font-size="14.00">node* res = head;</text>
</g>
<!-- D17&#45;&gt;D18 -->
<g id="edge21" class="edge">
<title>D17:s&#45;&gt;D18:n</title>
<path fill="none" stroke="black" d="M594.86,-648C594.86,-648 591.85,-632.5 589.77,-621.84"/>
<polygon fill="black" stroke="black" points="593.21,-621.15 587.86,-612 586.33,-622.48 593.21,-621.15"/>
</g>
<!-- D19 -->
<g id="node20" class="node">
<title>D19</title>
<polygon fill="none" stroke="black" points="580.86,-540 535.78,-522 580.86,-504 625.94,-522 580.86,-540"/>
<text text-anchor="middle" x="580.86" y="-518.3" font-family="Times,serif" font-size="14.00">(leq)?</text>
</g>
<!-- D18&#45;&gt;D19 -->
<g id="edge22" class="edge">
<title>D18:s&#45;&gt;D19:n</title>
<path fill="none" stroke="black" d="M587.86,-576C587.86,-576 584.85,-560.5 582.77,-549.84"/>
<polygon fill="black" stroke="black" points="586.21,-549.15 580.86,-540 579.33,-550.48 586.21,-549.15"/>
</g>
<!-- D20 -->
<g id="node21" class="node">
<title>D20</title>
<polygon fill="none" stroke="black" points="592.36,-468 523.36,-468 523.36,-432 592.36,-432 592.36,-468"/>
<text text-anchor="middle" x="557.86" y="-446.3" font-family="Times,serif" font-size="14.00">res = leq;</text>
</g>
<!-- D19&#45;&gt;D20 -->
<g id="edge23" class="edge">
<title>D19:s&#45;&gt;D20:n</title>
<path fill="none" stroke="black" d="M580.86,-504C580.86,-504 570.24,-487.37 563.43,-476.71"/>
<polygon fill="black" stroke="black" points="566.19,-474.54 557.86,-468 560.3,-478.31 566.19,-474.54"/>
<text text-anchor="middle" x="566.65" y="-479.16" font-family="Times,serif" font-size="14.00">Y</text>
</g>
<!-- D25 -->
<g id="node26" class="node">
<title>D25</title>
<polygon fill="none" stroke="black" points="597.36,-180 492.36,-180 492.36,-144 597.36,-144 597.36,-180"/>
<text text-anchor="middle" x="544.86" y="-158.3" font-family="Times,serif" font-size="14.00">head&#45;&gt;next = g;</text>
</g>
<!-- D19&#45;&gt;D25 -->
<g id="edge24" class="edge">
<title>D19:e&#45;&gt;D25:n</title>
<path fill="none" stroke="black" d="M626.86,-522C626.86,-522 625.86,-379 625.86,-379 625.86,-379 625.86,-379 625.86,-305 625.86,-305 606.86,-216 606.86,-216 606.86,-216 570.89,-195.11 553.74,-185.16"/>
<polygon fill="black" stroke="black" points="555.27,-181.99 544.86,-180 551.75,-188.05 555.27,-181.99"/>
<text text-anchor="middle" x="620.36" y="-341.09" font-family="Times,serif" font-size="14.00">N</text>
</g>
<!-- D21 -->
<g id="node22" class="node">
<title>D21</title>
<polygon fill="none" stroke="black" points="535.36,-396 476.36,-396 476.36,-360 535.36,-360 535.36,-396"/>
<text text-anchor="middle" x="505.86" y="-374.3" font-family="Times,serif" font-size="14.00">p = leq;</text>
</g>
<!-- D20&#45;&gt;D21 -->
<g id="edge25" class="edge">
<title>D20:s&#45;&gt;D21:n</title>
<path fill="none" stroke="black" d="M557.86,-432C557.86,-432 529.22,-412.17 514.45,-401.94"/>
<polygon fill="black" stroke="black" points="516.08,-398.81 505.86,-396 512.09,-404.57 516.08,-398.81"/>
</g>
<!-- D22 -->
<g id="node23" class="node">
<title>D22</title>
<polygon fill="none" stroke="black" points="452.86,-324 383.15,-306 452.86,-288 522.57,-306 452.86,-324"/>
<text text-anchor="middle" x="452.86" y="-302.3" font-family="Times,serif" font-size="14.00">(p&#45;&gt;next)?</text>
</g>
<!-- D21&#45;&gt;D22 -->
<g id="edge26" class="edge">
<title>D21:s&#45;&gt;D22:n</title>
<path fill="none" stroke="black" d="M505.86,-360C505.86,-360 476.05,-339.75 461.14,-329.62"/>
<polygon fill="black" stroke="black" points="463.1,-326.72 452.86,-324 459.17,-332.51 463.1,-326.72"/>
</g>
<!-- D23 -->
<g id="node24" class="node">
<title>D23</title>
<polygon fill="none" stroke="black" points="473.86,-252 387.86,-252 387.86,-216 473.86,-216 473.86,-252"/>
<text text-anchor="middle" x="430.86" y="-230.3" font-family="Times,serif" font-size="14.00">p = p&#45;&gt;next;</text>
</g>
<!-- D22&#45;&gt;D23 -->
<g id="edge27" class="edge">
<title>D22:s&#45;&gt;D23:n</title>
<path fill="none" stroke="black" d="M452.86,-288C452.86,-288 442.7,-271.37 436.19,-260.71"/>
<polygon fill="black" stroke="black" points="439.06,-258.71 430.86,-252 433.09,-262.36 439.06,-258.71"/>
<text text-anchor="middle" x="439.02" y="-263.16" font-family="Times,serif" font-size="14.00">Y</text>
</g>
<!-- D24 -->
<g id="node25" class="node">
<title>D24</title>
<polygon fill="none" stroke="black" points="597.36,-252 492.36,-252 492.36,-216 597.36,-216 597.36,-252"/>
<text text-anchor="middle" x="544.86" y="-230.3" font-family="Times,serif" font-size="14.00">p&#45;&gt;next = head;</text>
</g>
<!-- D22&#45;&gt;D24 -->
<g id="edge28" class="edge">
<title>D22:e&#45;&gt;D24:n</title>
<path fill="none" stroke="black" d="M523.86,-306C523.86,-306 535.19,-276.88 541.2,-261.41"/>
<polygon fill="black" stroke="black" points="544.5,-262.59 544.86,-252 537.97,-260.05 544.5,-262.59"/>
<text text-anchor="middle" x="527.03" y="-272.5" font-family="Times,serif" font-size="14.00">N</text>
</g>
<!-- D23&#45;&gt;D22 -->
<g id="edge29" class="edge">
<title>D23&#45;&gt;D22</title>
<path fill="none" stroke="black" d="M436.3,-252.29C438.87,-260.48 441.99,-270.42 444.83,-279.45"/>
<polygon fill="black" stroke="black" points="441.53,-280.63 447.87,-289.12 448.21,-278.53 441.53,-280.63"/>
</g>
<!-- D24&#45;&gt;D25 -->
<g id="edge30" class="edge">
<title>D24&#45;&gt;D25</title>
<path fill="none" stroke="black" d="M544.86,-215.7C544.86,-207.98 544.86,-198.71 544.86,-190.11"/>
<polygon fill="black" stroke="black" points="548.36,-190.1 544.86,-180.1 541.36,-190.1 548.36,-190.1"/>
</g>
<!-- D26 -->
<g id="node27" class="node">
<title>D26</title>
<polygon fill="none" stroke="black" points="438.86,-108 364.86,-108 364.86,-72 438.86,-72 438.86,-108"/>
<text text-anchor="middle" x="401.86" y="-86.3" font-family="Times,serif" font-size="14.00">return res;</text>
</g>
<!-- D25&#45;&gt;D26 -->
<g id="edge31" class="edge">
<title>D25:s&#45;&gt;D26:n</title>
<path fill="none" stroke="black" d="M544.86,-144C544.86,-144 444,-118.61 411.69,-110.47"/>
<polygon fill="black" stroke="black" points="412.41,-107.05 401.86,-108 410.7,-113.84 412.41,-107.05"/>
</g>
<!-- D26&#45;&gt;D27 -->
<g id="edge32" class="edge">
<title>D26&#45;&gt;D27</title>
<path fill="none" stroke="black" d="M364.75,-74.15C334.91,-62.22 293.22,-45.54 263.51,-33.66"/>
<polygon fill="black" stroke="black" points="264.51,-30.29 253.92,-29.82 261.91,-36.79 264.51,-30.29"/>
</g>
</g>
</svg>
