<?xml version="1.0" encoding="UTF-8" standalone="no"?>
<!DOCTYPE svg PUBLIC "-//W3C//DTD SVG 1.1//EN"
 "http://www.w3.org/Graphics/SVG/1.1/DTD/svg11.dtd">
<!-- Generated by graphviz version 2.48.0 (20210717.1556)
 -->
<!-- Pages: 1 -->
<svg width="2075pt" height="1236pt"
 viewBox="0.00 0.00 2075.00 1236.00" xmlns="http://www.w3.org/2000/svg" xmlns:xlink="http://www.w3.org/1999/xlink">
<g id="graph0" class="graph" transform="scale(1 1) rotate(0) translate(4 1232)">
<polygon fill="white" stroke="transparent" points="-4,4 -4,-1232 2071,-1232 2071,4 -4,4"/>
<!-- D0 -->
<g id="node1" class="node">
<title>D0</title>
<path fill="none" stroke="black" d="M1707.5,-1228C1707.5,-1228 1677.5,-1228 1677.5,-1228 1671.5,-1228 1665.5,-1222 1665.5,-1216 1665.5,-1216 1665.5,-1204 1665.5,-1204 1665.5,-1198 1671.5,-1192 1677.5,-1192 1677.5,-1192 1707.5,-1192 1707.5,-1192 1713.5,-1192 1719.5,-1198 1719.5,-1204 1719.5,-1204 1719.5,-1216 1719.5,-1216 1719.5,-1222 1713.5,-1228 1707.5,-1228"/>
<text text-anchor="middle" x="1692.5" y="-1206.3" font-family="Times,serif" font-size="14.00">Start</text>
</g>
<!-- D1 -->
<g id="node2" class="node">
<title>D1</title>
<polygon fill="none" stroke="black" points="1769.5,-1156 1615.5,-1156 1615.5,-1120 1769.5,-1120 1769.5,-1156"/>
<text text-anchor="middle" x="1692.5" y="-1134.3" font-family="Times,serif" font-size="14.00">single_list s = init_list();</text>
</g>
<!-- D0&#45;&gt;D1 -->
<g id="edge1" class="edge">
<title>D0:s&#45;&gt;D1:n</title>
<path fill="none" stroke="black" d="M1692.5,-1192C1692.5,-1192 1692.5,-1176.86 1692.5,-1166.22"/>
<polygon fill="black" stroke="black" points="1696,-1166 1692.5,-1156 1689,-1166 1696,-1166"/>
</g>
<!-- D2 -->
<g id="node3" class="node">
<title>D2</title>
<polygon fill="none" stroke="black" points="1746.5,-1084 1638.5,-1084 1638.5,-1048 1746.5,-1048 1746.5,-1084"/>
<text text-anchor="middle" x="1692.5" y="-1062.3" font-family="Times,serif" font-size="14.00">int choice &#160;&#160;&#160;= 0;</text>
</g>
<!-- D1&#45;&gt;D2 -->
<g id="edge2" class="edge">
<title>D1:s&#45;&gt;D2:n</title>
<path fill="none" stroke="black" d="M1692.5,-1120C1692.5,-1120 1692.5,-1104.86 1692.5,-1094.22"/>
<polygon fill="black" stroke="black" points="1696,-1094 1692.5,-1084 1689,-1094 1696,-1094"/>
</g>
<!-- D3 -->
<g id="node4" class="node">
<title>D3</title>
<polygon fill="none" stroke="black" points="1692.5,-1012 1518.56,-994 1692.5,-976 1866.44,-994 1692.5,-1012"/>
<text text-anchor="middle" x="1692.5" y="-990.3" font-family="Times,serif" font-size="14.00">((choice = get_choice()) != 7)?</text>
</g>
<!-- D2&#45;&gt;D3 -->
<g id="edge3" class="edge">
<title>D2:s&#45;&gt;D3:n</title>
<path fill="none" stroke="black" d="M1692.5,-1048C1692.5,-1048 1692.5,-1032.86 1692.5,-1022.22"/>
<polygon fill="black" stroke="black" points="1696,-1022 1692.5,-1012 1689,-1022 1696,-1022"/>
</g>
<!-- D4 -->
<g id="node5" class="node">
<title>D4</title>
<polygon fill="none" stroke="black" points="622.5,-940 532.35,-922 622.5,-904 712.65,-922 622.5,-940"/>
<text text-anchor="middle" x="622.5" y="-918.3" font-family="Times,serif" font-size="14.00">(choice == 1)?</text>
</g>
<!-- D3&#45;&gt;D4 -->
<g id="edge4" class="edge">
<title>D3:s&#45;&gt;D4:n</title>
<path fill="none" stroke="black" d="M1692.5,-976C1692.5,-976 742.25,-944.03 632.75,-940.34"/>
<polygon fill="black" stroke="black" points="632.61,-936.84 622.5,-940 632.38,-943.83 632.61,-936.84"/>
<text text-anchor="middle" x="1157.12" y="-961.97" font-family="Times,serif" font-size="14.00">Y</text>
</g>
<!-- D44 -->
<g id="node45" class="node">
<title>D44</title>
<polygon fill="none" stroke="black" points="2067,-181 1982,-181 1982,-145 2067,-145 2067,-181"/>
<text text-anchor="middle" x="2024.5" y="-159.3" font-family="Times,serif" font-size="14.00">drop_list(s);</text>
</g>
<!-- D3&#45;&gt;D44 -->
<g id="edge5" class="edge">
<title>D3:e&#45;&gt;D44:n</title>
<path fill="none" stroke="black" d="M1867.5,-994C1867.5,-994 1949.5,-940 1949.5,-940 1949.5,-940 2024.5,-842.5 2024.5,-842.5 2024.5,-842.5 2024.5,-842.5 2024.5,-307 2024.5,-307 2024.5,-222.08 2024.5,-192.23"/>
<polygon fill="black" stroke="black" points="2028,-192 2024.5,-182 2021,-192 2028,-192"/>
<text text-anchor="middle" x="2019" y="-631.76" font-family="Times,serif" font-size="14.00">N</text>
</g>
<!-- D5 -->
<g id="node6" class="node">
<title>D5</title>
<polygon fill="none" stroke="black" points="566.5,-868 106.5,-868 106.5,-815 566.5,-815 566.5,-868"/>
<text text-anchor="middle" x="336.5" y="-852.8" font-family="Times,serif" font-size="14.00">printf(&quot;Input n and &lt;id&gt; &lt;name&gt; &lt;eng&gt; &lt;mat&gt; &lt;phy&gt; &lt;cpl&gt;, one student per &quot;</text>
<text text-anchor="middle" x="336.5" y="-837.8" font-family="Times,serif" font-size="14.00"> &#160;&#160;&#160;&#160;&#160;&#160;&#160;&#160;&#160;&#160;&#160;&#160;&quot;line</text>
<text text-anchor="middle" x="336.5" y="-822.8" font-family="Times,serif" font-size="14.00">&quot;);</text>
</g>
<!-- D4&#45;&gt;D5 -->
<g id="edge6" class="edge">
<title>D4:s&#45;&gt;D5:n</title>
<path fill="none" stroke="black" d="M622.5,-904C622.5,-904 397.63,-875.69 346.68,-869.28"/>
<polygon fill="black" stroke="black" points="346.86,-865.78 336.5,-868 345.98,-872.72 346.86,-865.78"/>
<text text-anchor="middle" x="479.09" y="-890.44" font-family="Times,serif" font-size="14.00">Y</text>
</g>
<!-- D12 -->
<g id="node13" class="node">
<title>D12</title>
<polygon fill="none" stroke="black" points="712.5,-859.5 622.35,-841.5 712.5,-823.5 802.65,-841.5 712.5,-859.5"/>
<text text-anchor="middle" x="712.5" y="-837.8" font-family="Times,serif" font-size="14.00">(choice == 2)?</text>
</g>
<!-- D4&#45;&gt;D12 -->
<g id="edge7" class="edge">
<title>D4:e&#45;&gt;D12:n</title>
<path fill="none" stroke="black" d="M713.5,-922C713.5,-922 712.95,-888.12 712.67,-870.66"/>
<polygon fill="black" stroke="black" points="716.16,-870.44 712.5,-860.5 709.16,-870.56 716.16,-870.44"/>
<text text-anchor="middle" x="707.58" y="-885.13" font-family="Times,serif" font-size="14.00">N</text>
</g>
<!-- D6 -->
<g id="node7" class="node">
<title>D6</title>
<polygon fill="none" stroke="black" points="406.5,-779 352.5,-779 352.5,-743 406.5,-743 406.5,-779"/>
<text text-anchor="middle" x="379.5" y="-757.3" font-family="Times,serif" font-size="14.00">int n;</text>
</g>
<!-- D5&#45;&gt;D6 -->
<g id="edge8" class="edge">
<title>D5:s&#45;&gt;D6:n</title>
<path fill="none" stroke="black" d="M336.5,-815C336.5,-815 359.2,-796 371.61,-785.6"/>
<polygon fill="black" stroke="black" points="374.08,-788.1 379.5,-779 369.59,-782.74 374.08,-788.1"/>
</g>
<!-- D7 -->
<g id="node8" class="node">
<title>D7</title>
<polygon fill="none" stroke="black" points="522.5,-706 408.5,-706 408.5,-670 522.5,-670 522.5,-706"/>
<text text-anchor="middle" x="465.5" y="-684.3" font-family="Times,serif" font-size="14.00">scanf(&quot;%d&quot;, &amp;n);</text>
</g>
<!-- D6&#45;&gt;D7 -->
<g id="edge9" class="edge">
<title>D6:s&#45;&gt;D7:n</title>
<path fill="none" stroke="black" d="M379.5,-743C379.5,-743 433.58,-720.36 455.97,-710.99"/>
<polygon fill="black" stroke="black" points="457.63,-714.09 465.5,-707 454.92,-707.63 457.63,-714.09"/>
</g>
<!-- D8 -->
<g id="node9" class="node">
<title>D8</title>
<polygon fill="none" stroke="black" points="481.5,-633 437.26,-615 481.5,-597 525.74,-615 481.5,-633"/>
<text text-anchor="middle" x="481.5" y="-611.3" font-family="Times,serif" font-size="14.00">(n&#45;&#45;)?</text>
</g>
<!-- D7&#45;&gt;D8 -->
<g id="edge10" class="edge">
<title>D7:s&#45;&gt;D8:n</title>
<path fill="none" stroke="black" d="M465.5,-669C465.5,-669 472.56,-653.12 477.3,-642.46"/>
<polygon fill="black" stroke="black" points="480.64,-643.56 481.5,-633 474.24,-640.72 480.64,-643.56"/>
</g>
<!-- D8&#45;&gt;D3 -->
<g id="edge12" class="edge">
<title>D8:e&#45;&gt;D3:n</title>
<path fill="none" stroke="black" d="M527.5,-615C527.5,-615 613.5,-868 613.5,-868 613.5,-868 778.16,-908.22 820.61,-918.58"/>
<polygon fill="black" stroke="black" points="819.96,-922.03 830.5,-921 821.62,-915.23 819.96,-922.03"/>
<path fill="none" stroke="black" d="M830.5,-923C830.5,-923 1866.22,-976 1866.22,-976 1866.22,-976 1866.22,-1012 1866.22,-1012 1866.22,-1012 1692.5,-1013 1692.5,-1013"/>
<text text-anchor="middle" x="1207.69" y="-946.38" font-family="Times,serif" font-size="14.00">N</text>
</g>
<!-- D9 -->
<g id="node10" class="node">
<title>D9</title>
<polygon fill="none" stroke="black" points="405,-561 172,-561 172,-525 405,-525 405,-561"/>
<text text-anchor="middle" x="288.5" y="-539.3" font-family="Times,serif" font-size="14.00">student* stu = malloc(sizeof(student));</text>
</g>
<!-- D8&#45;&gt;D9 -->
<g id="edge11" class="edge">
<title>D8:s&#45;&gt;D9:n</title>
<path fill="none" stroke="black" d="M481.5,-597C481.5,-597 337.67,-570.17 298.34,-562.83"/>
<polygon fill="black" stroke="black" points="298.97,-559.39 288.5,-561 297.69,-566.27 298.97,-559.39"/>
<text text-anchor="middle" x="384.42" y="-583.72" font-family="Times,serif" font-size="14.00">Y</text>
</g>
<!-- D10 -->
<g id="node11" class="node">
<title>D10</title>
<polygon fill="none" stroke="black" points="463,-481.5 0,-481.5 0,-443.5 463,-443.5 463,-481.5"/>
<text text-anchor="middle" x="231.5" y="-466.3" font-family="Times,serif" font-size="14.00">scanf(&quot;%d %s %d %d %d %d&quot;, &amp;stu&#45;&gt;id, &amp;stu&#45;&gt;name, &amp;stu&#45;&gt;eng, &amp;stu&#45;&gt;mat,</text>
<text text-anchor="middle" x="231.5" y="-451.3" font-family="Times,serif" font-size="14.00"> &#160;&#160;&#160;&#160;&#160;&#160;&#160;&#160;&#160;&#160;&#160;&#160;&#160;&amp;stu&#45;&gt;phy, &amp;stu&#45;&gt;cpl);</text>
</g>
<!-- D9&#45;&gt;D10 -->
<g id="edge13" class="edge">
<title>D9:s&#45;&gt;D10:n</title>
<path fill="none" stroke="black" d="M288.5,-525C288.5,-525 255.77,-500.59 239.91,-488.77"/>
<polygon fill="black" stroke="black" points="241.61,-485.67 231.5,-482.5 237.42,-491.28 241.61,-485.67"/>
</g>
<!-- D11 -->
<g id="node12" class="node">
<title>D11</title>
<polygon fill="none" stroke="black" points="518,-399 355,-399 355,-363 518,-363 518,-399"/>
<text text-anchor="middle" x="436.5" y="-377.3" font-family="Times,serif" font-size="14.00">s = push_back_list(s, stu);</text>
</g>
<!-- D10&#45;&gt;D11 -->
<g id="edge14" class="edge">
<title>D10:s&#45;&gt;D11:n</title>
<path fill="none" stroke="black" d="M231.5,-442.5C231.5,-442.5 385.66,-410.54 426.61,-402.05"/>
<polygon fill="black" stroke="black" points="427.42,-405.46 436.5,-400 426,-398.6 427.42,-405.46"/>
</g>
<!-- D11&#45;&gt;D8 -->
<g id="edge15" class="edge">
<title>D11&#45;&gt;D8</title>
<path fill="none" stroke="black" d="M447.57,-399.09C457.83,-414.91 471.5,-436 471.5,-436 471.5,-436 477.2,-537.5 479.99,-587.21"/>
<polygon fill="black" stroke="black" points="476.5,-587.47 480.56,-597.25 483.49,-587.07 476.5,-587.47"/>
</g>
<!-- D13 -->
<g id="node14" class="node">
<title>D13</title>
<polygon fill="none" stroke="black" points="753.5,-779 675.5,-779 675.5,-743 753.5,-743 753.5,-779"/>
<text text-anchor="middle" x="714.5" y="-757.3" font-family="Times,serif" font-size="14.00">int idx = 0;</text>
</g>
<!-- D12&#45;&gt;D13 -->
<g id="edge16" class="edge">
<title>D12:s&#45;&gt;D13:n</title>
<path fill="none" stroke="black" d="M712.5,-822.5C712.5,-822.5 713.45,-801.94 714.04,-789.09"/>
<polygon fill="black" stroke="black" points="717.54,-789.15 714.5,-779 710.54,-788.83 717.54,-789.15"/>
<text text-anchor="middle" x="707.77" y="-809.59" font-family="Times,serif" font-size="14.00">Y</text>
</g>
<!-- D19 -->
<g id="node20" class="node">
<title>D19</title>
<polygon fill="none" stroke="black" points="1063.5,-779 973.35,-761 1063.5,-743 1153.65,-761 1063.5,-779"/>
<text text-anchor="middle" x="1063.5" y="-757.3" font-family="Times,serif" font-size="14.00">(choice == 3)?</text>
</g>
<!-- D12&#45;&gt;D19 -->
<g id="edge17" class="edge">
<title>D12:e&#45;&gt;D19:n</title>
<path fill="none" stroke="black" d="M803.5,-841.5C803.5,-841.5 1006.13,-792.79 1053.63,-781.37"/>
<polygon fill="black" stroke="black" points="1054.6,-784.74 1063.5,-779 1052.96,-777.93 1054.6,-784.74"/>
<text text-anchor="middle" x="923.06" y="-815.24" font-family="Times,serif" font-size="14.00">N</text>
</g>
<!-- D14 -->
<g id="node15" class="node">
<title>D14</title>
<polygon fill="none" stroke="black" points="793,-706 644,-706 644,-670 793,-670 793,-706"/>
<text text-anchor="middle" x="718.5" y="-684.3" font-family="Times,serif" font-size="14.00">node* i = s.head&#45;&gt;next;</text>
</g>
<!-- D13&#45;&gt;D14 -->
<g id="edge18" class="edge">
<title>D13:s&#45;&gt;D14:n</title>
<path fill="none" stroke="black" d="M714.5,-743C714.5,-743 716.18,-727.86 717.36,-717.22"/>
<polygon fill="black" stroke="black" points="720.87,-717.33 718.5,-707 713.92,-716.55 720.87,-717.33"/>
</g>
<!-- D15 -->
<g id="node16" class="node">
<title>D15</title>
<polygon fill="none" stroke="black" points="760.5,-633 733.5,-615 760.5,-597 787.5,-615 760.5,-633"/>
<text text-anchor="middle" x="760.5" y="-611.3" font-family="Times,serif" font-size="14.00">i?</text>
</g>
<!-- D14&#45;&gt;D15 -->
<g id="edge19" class="edge">
<title>D14:s&#45;&gt;D15:n</title>
<path fill="none" stroke="black" d="M718.5,-669C718.5,-669 740.67,-650 752.8,-639.6"/>
<polygon fill="black" stroke="black" points="755.19,-642.17 760.5,-633 750.63,-636.85 755.19,-642.17"/>
</g>
<!-- D15&#45;&gt;D3 -->
<g id="edge21" class="edge">
<title>D15:e&#45;&gt;D3:n</title>
<path fill="none" stroke="black" d="M788.5,-615C788.5,-615 801.5,-669 801.5,-669 801.5,-669 823.9,-863.66 829.33,-910.81"/>
<polygon fill="black" stroke="black" points="825.88,-911.47 830.5,-921 832.83,-910.67 825.88,-911.47"/>
<text text-anchor="middle" x="806.74" y="-766.12" font-family="Times,serif" font-size="14.00">N</text>
</g>
<!-- D16 -->
<g id="node17" class="node">
<title>D16</title>
<polygon fill="none" stroke="black" points="758.5,-561 616.5,-561 616.5,-525 758.5,-525 758.5,-561"/>
<text text-anchor="middle" x="687.5" y="-539.3" font-family="Times,serif" font-size="14.00">student* stu = i&#45;&gt;data;</text>
</g>
<!-- D15&#45;&gt;D16 -->
<g id="edge20" class="edge">
<title>D15:s&#45;&gt;D16:n</title>
<path fill="none" stroke="black" d="M760.5,-597C760.5,-597 716.39,-575.25 696.75,-565.56"/>
<polygon fill="black" stroke="black" points="698.02,-562.28 687.5,-561 694.92,-568.56 698.02,-562.28"/>
<text text-anchor="middle" x="723.12" y="-585.08" font-family="Times,serif" font-size="14.00">Y</text>
</g>
<!-- D17 -->
<g id="node18" class="node">
<title>D17</title>
<polygon fill="none" stroke="black" points="781.5,-489 545.5,-489 545.5,-436 781.5,-436 781.5,-489"/>
<text text-anchor="middle" x="663.5" y="-473.8" font-family="Times,serif" font-size="14.00">printf(&quot;%d: %d %s %d %d %d %d</text>
<text text-anchor="middle" x="663.5" y="-458.8" font-family="Times,serif" font-size="14.00">&quot;, idx, stu&#45;&gt;id, stu&#45;&gt;name, stu&#45;&gt;eng,</text>
<text text-anchor="middle" x="663.5" y="-443.8" font-family="Times,serif" font-size="14.00"> &#160;&#160;&#160;&#160;&#160;&#160;&#160;&#160;&#160;&#160;&#160;&#160;&#160;&#160;stu&#45;&gt;mat, stu&#45;&gt;phy, stu&#45;&gt;cpl);</text>
</g>
<!-- D16&#45;&gt;D17 -->
<g id="edge22" class="edge">
<title>D16:s&#45;&gt;D17:n</title>
<path fill="none" stroke="black" d="M687.5,-525C687.5,-525 676.16,-507.98 669.07,-497.35"/>
<polygon fill="black" stroke="black" points="671.96,-495.38 663.5,-489 666.13,-499.26 671.96,-495.38"/>
</g>
<!-- D18 -->
<g id="node19" class="node">
<title>D18</title>
<polygon fill="none" stroke="black" points="777,-399 660,-399 660,-363 777,-363 777,-399"/>
<text text-anchor="middle" x="718.5" y="-377.3" font-family="Times,serif" font-size="14.00">i = i&#45;&gt;next, idx++</text>
</g>
<!-- D17&#45;&gt;D18 -->
<g id="edge23" class="edge">
<title>D17:s&#45;&gt;D18:n</title>
<path fill="none" stroke="black" d="M663.5,-436C663.5,-436 694.44,-415.75 709.91,-405.62"/>
<polygon fill="black" stroke="black" points="712.05,-408.41 718.5,-400 708.22,-402.55 712.05,-408.41"/>
</g>
<!-- D18&#45;&gt;D15 -->
<g id="edge24" class="edge">
<title>D18&#45;&gt;D15</title>
<path fill="none" stroke="black" d="M741.28,-399.09C762.38,-414.91 790.5,-436 790.5,-436 790.5,-436 790.5,-489 790.5,-489 790.5,-489 775.18,-552.83 766.44,-589.27"/>
<polygon fill="black" stroke="black" points="762.99,-588.63 764.06,-599.17 769.8,-590.26 762.99,-588.63"/>
</g>
<!-- D20 -->
<g id="node21" class="node">
<title>D20</title>
<polygon fill="none" stroke="black" points="1270,-707 857,-707 857,-669 1270,-669 1270,-707"/>
<text text-anchor="middle" x="1063.5" y="-691.8" font-family="Times,serif" font-size="14.00">printf(&quot;Input student idx and &lt;id&gt; &lt;name&gt; &lt;eng&gt; &lt;mat&gt; &lt;phy&gt; &lt;cpl&gt;</text>
<text text-anchor="middle" x="1063.5" y="-676.8" font-family="Times,serif" font-size="14.00">&quot;);</text>
</g>
<!-- D19&#45;&gt;D20 -->
<g id="edge25" class="edge">
<title>D19:s&#45;&gt;D20:n</title>
<path fill="none" stroke="black" d="M1063.5,-743C1063.5,-743 1063.5,-727.86 1063.5,-717.22"/>
<polygon fill="black" stroke="black" points="1067,-717 1063.5,-707 1060,-717 1067,-717"/>
<text text-anchor="middle" x="1058" y="-718.91" font-family="Times,serif" font-size="14.00">Y</text>
</g>
<!-- D26 -->
<g id="node27" class="node">
<title>D26</title>
<polygon fill="none" stroke="black" points="1416.5,-706 1326.35,-688 1416.5,-670 1506.65,-688 1416.5,-706"/>
<text text-anchor="middle" x="1416.5" y="-684.3" font-family="Times,serif" font-size="14.00">(choice == 4)?</text>
</g>
<!-- D19&#45;&gt;D26 -->
<g id="edge26" class="edge">
<title>D19:e&#45;&gt;D26:n</title>
<path fill="none" stroke="black" d="M1154.5,-761C1154.5,-761 1358.69,-718.91 1406.55,-709.05"/>
<polygon fill="black" stroke="black" points="1407.41,-712.45 1416.5,-707 1406,-705.59 1407.41,-712.45"/>
<text text-anchor="middle" x="1275.02" y="-738.83" font-family="Times,serif" font-size="14.00">N</text>
</g>
<!-- D21 -->
<g id="node22" class="node">
<title>D21</title>
<polygon fill="none" stroke="black" points="1125.5,-633 997.5,-633 997.5,-597 1125.5,-597 1125.5,-633"/>
<text text-anchor="middle" x="1061.5" y="-611.3" font-family="Times,serif" font-size="14.00">student stu, *tbmdf;</text>
</g>
<!-- D20&#45;&gt;D21 -->
<g id="edge27" class="edge">
<title>D20:s&#45;&gt;D21:n</title>
<path fill="none" stroke="black" d="M1063.5,-669C1063.5,-669 1062.66,-653.86 1062.07,-643.22"/>
<polygon fill="black" stroke="black" points="1065.55,-642.79 1061.5,-633 1058.56,-643.18 1065.55,-642.79"/>
</g>
<!-- D22 -->
<g id="node23" class="node">
<title>D22</title>
<polygon fill="none" stroke="black" points="1087,-561 1030,-561 1030,-525 1087,-525 1087,-561"/>
<text text-anchor="middle" x="1058.5" y="-539.3" font-family="Times,serif" font-size="14.00">int idx;</text>
</g>
<!-- D21&#45;&gt;D22 -->
<g id="edge28" class="edge">
<title>D21:s&#45;&gt;D22:n</title>
<path fill="none" stroke="black" d="M1061.5,-597C1061.5,-597 1060.24,-581.86 1059.35,-571.22"/>
<polygon fill="black" stroke="black" points="1062.82,-570.67 1058.5,-561 1055.84,-571.26 1062.82,-570.67"/>
</g>
<!-- D23 -->
<g id="node24" class="node">
<title>D23</title>
<polygon fill="none" stroke="black" points="1270.5,-481.5 844.5,-481.5 844.5,-443.5 1270.5,-443.5 1270.5,-481.5"/>
<text text-anchor="middle" x="1057.5" y="-466.3" font-family="Times,serif" font-size="14.00">scanf(&quot;%d %d %s %d %d %d %d&quot;, &amp;idx, &amp;stu.id, &amp;stu.name, &amp;stu.eng,</text>
<text text-anchor="middle" x="1057.5" y="-451.3" font-family="Times,serif" font-size="14.00"> &#160;&#160;&#160;&#160;&#160;&#160;&#160;&#160;&#160;&#160;&#160;&amp;stu.mat, &amp;stu.phy, &amp;stu.cpl);</text>
</g>
<!-- D22&#45;&gt;D23 -->
<g id="edge29" class="edge">
<title>D22:s&#45;&gt;D23:n</title>
<path fill="none" stroke="black" d="M1058.5,-525C1058.5,-525 1058.04,-505.37 1057.74,-492.79"/>
<polygon fill="black" stroke="black" points="1061.23,-492.41 1057.5,-482.5 1054.24,-492.58 1061.23,-492.41"/>
</g>
<!-- D24 -->
<g id="node25" class="node">
<title>D24</title>
<polygon fill="none" stroke="black" points="1174.5,-399 952.5,-399 952.5,-363 1174.5,-363 1174.5,-399"/>
<text text-anchor="middle" x="1063.5" y="-377.3" font-family="Times,serif" font-size="14.00">tbmdf &#160;= access_list(student)(s, idx);</text>
</g>
<!-- D23&#45;&gt;D24 -->
<g id="edge30" class="edge">
<title>D23:s&#45;&gt;D24:n</title>
<path fill="none" stroke="black" d="M1057.5,-442.5C1057.5,-442.5 1060.27,-422.87 1062.05,-410.29"/>
<polygon fill="black" stroke="black" points="1065.57,-410.39 1063.5,-400 1058.64,-409.41 1065.57,-410.39"/>
</g>
<!-- D25 -->
<g id="node26" class="node">
<title>D25</title>
<polygon fill="none" stroke="black" points="1120.5,-326 1028.5,-326 1028.5,-290 1120.5,-290 1120.5,-326"/>
<text text-anchor="middle" x="1074.5" y="-304.3" font-family="Times,serif" font-size="14.00">*tbmdf = stu;</text>
</g>
<!-- D24&#45;&gt;D25 -->
<g id="edge31" class="edge">
<title>D24:s&#45;&gt;D25:n</title>
<path fill="none" stroke="black" d="M1063.5,-362C1063.5,-362 1068.24,-346.5 1071.49,-335.84"/>
<polygon fill="black" stroke="black" points="1074.92,-336.59 1074.5,-326 1068.23,-334.54 1074.92,-336.59"/>
</g>
<!-- D25&#45;&gt;D3 -->
<g id="edge32" class="edge">
<title>D25&#45;&gt;D3</title>
<path fill="none" stroke="black" d="M1534.5,-762C1534.5,-762 1645.94,-924.93 1681.64,-977.12"/>
<path fill="none" stroke="black" d="M1109.59,-326.06C1141.45,-341.55 1183.5,-362 1183.5,-362 1183.5,-362 1279.5,-436 1279.5,-436 1279.5,-436 1298.5,-542 1298.5,-542 1298.5,-616 1298.5,-616 1298.5,-616 1298.5,-616 1317.5,-707 1317.5,-707 1317.5,-707 1482.16,-747.22 1524.61,-757.58"/>
<polygon fill="black" stroke="black" points="1523.96,-761.03 1534.5,-760 1525.62,-754.23 1523.96,-761.03"/>
</g>
<!-- D27 -->
<g id="node28" class="node">
<title>D27</title>
<polygon fill="none" stroke="black" points="1474,-633 1367,-633 1367,-597 1474,-597 1474,-633"/>
<text text-anchor="middle" x="1420.5" y="-611.3" font-family="Times,serif" font-size="14.00">double sum = 0;</text>
</g>
<!-- D26&#45;&gt;D27 -->
<g id="edge33" class="edge">
<title>D26:s&#45;&gt;D27:n</title>
<path fill="none" stroke="black" d="M1416.5,-669C1416.5,-669 1418.18,-653.86 1419.36,-643.22"/>
<polygon fill="black" stroke="black" points="1422.87,-643.33 1420.5,-633 1415.92,-642.55 1422.87,-643.33"/>
<text text-anchor="middle" x="1412.43" y="-644.91" font-family="Times,serif" font-size="14.00">Y</text>
</g>
<!-- D34 -->
<g id="node35" class="node">
<title>D34</title>
<polygon fill="none" stroke="black" points="1652.5,-633 1562.35,-615 1652.5,-597 1742.65,-615 1652.5,-633"/>
<text text-anchor="middle" x="1652.5" y="-611.3" font-family="Times,serif" font-size="14.00">(choice == 5)?</text>
</g>
<!-- D26&#45;&gt;D34 -->
<g id="edge34" class="edge">
<title>D26:e&#45;&gt;D34:n</title>
<path fill="none" stroke="black" d="M1507.5,-688C1507.5,-688 1610.73,-648.84 1642.99,-636.61"/>
<polygon fill="black" stroke="black" points="1644.39,-639.82 1652.5,-633 1641.91,-633.27 1644.39,-639.82"/>
<text text-anchor="middle" x="1569.74" y="-666.1" font-family="Times,serif" font-size="14.00">N</text>
</g>
<!-- D28 -->
<g id="node29" class="node">
<title>D28</title>
<polygon fill="none" stroke="black" points="1499,-561 1350,-561 1350,-525 1499,-525 1499,-561"/>
<text text-anchor="middle" x="1424.5" y="-539.3" font-family="Times,serif" font-size="14.00">node* i = s.head&#45;&gt;next;</text>
</g>
<!-- D27&#45;&gt;D28 -->
<g id="edge35" class="edge">
<title>D27:s&#45;&gt;D28:n</title>
<path fill="none" stroke="black" d="M1420.5,-597C1420.5,-597 1422.18,-581.86 1423.36,-571.22"/>
<polygon fill="black" stroke="black" points="1426.87,-571.33 1424.5,-561 1419.92,-570.55 1426.87,-571.33"/>
</g>
<!-- D29 -->
<g id="node30" class="node">
<title>D29</title>
<polygon fill="none" stroke="black" points="1451.5,-480.5 1424.5,-462.5 1451.5,-444.5 1478.5,-462.5 1451.5,-480.5"/>
<text text-anchor="middle" x="1451.5" y="-458.8" font-family="Times,serif" font-size="14.00">i?</text>
</g>
<!-- D28&#45;&gt;D29 -->
<g id="edge36" class="edge">
<title>D28:s&#45;&gt;D29:n</title>
<path fill="none" stroke="black" d="M1424.5,-525C1424.5,-525 1438.15,-503.01 1446.04,-490.3"/>
<polygon fill="black" stroke="black" points="1449.2,-491.84 1451.5,-481.5 1443.25,-488.15 1449.2,-491.84"/>
</g>
<!-- D30 -->
<g id="node31" class="node">
<title>D30</title>
<polygon fill="none" stroke="black" points="1450.5,-399 1308.5,-399 1308.5,-363 1450.5,-363 1450.5,-399"/>
<text text-anchor="middle" x="1379.5" y="-377.3" font-family="Times,serif" font-size="14.00">student* stu = i&#45;&gt;data;</text>
</g>
<!-- D29&#45;&gt;D30 -->
<g id="edge37" class="edge">
<title>D29:s&#45;&gt;D30:n</title>
<path fill="none" stroke="black" d="M1451.5,-443.5C1451.5,-443.5 1407.55,-416.95 1388.33,-405.33"/>
<polygon fill="black" stroke="black" points="1389.87,-402.18 1379.5,-400 1386.25,-408.17 1389.87,-402.18"/>
<text text-anchor="middle" x="1414.41" y="-428.22" font-family="Times,serif" font-size="14.00">Y</text>
</g>
<!-- D33 -->
<g id="node34" class="node">
<title>D33</title>
<polygon fill="none" stroke="black" points="1638,-400 1507,-400 1507,-362 1638,-362 1638,-400"/>
<text text-anchor="middle" x="1572.5" y="-384.8" font-family="Times,serif" font-size="14.00">printf(&quot;avg: %.2lf</text>
<text text-anchor="middle" x="1572.5" y="-369.8" font-family="Times,serif" font-size="14.00">&quot;, sum / 4.0 / s.size);</text>
</g>
<!-- D29&#45;&gt;D33 -->
<g id="edge38" class="edge">
<title>D29:e&#45;&gt;D33:n</title>
<path fill="none" stroke="black" d="M1479.5,-462.5C1479.5,-462.5 1540.89,-421.24 1563.92,-405.77"/>
<polygon fill="black" stroke="black" points="1566.15,-408.48 1572.5,-400 1562.25,-402.67 1566.15,-408.48"/>
<text text-anchor="middle" x="1516.21" y="-437.93" font-family="Times,serif" font-size="14.00">N</text>
</g>
<!-- D31 -->
<g id="node32" class="node">
<title>D31</title>
<polygon fill="none" stroke="black" points="1450.5,-326 1144.5,-326 1144.5,-290 1450.5,-290 1450.5,-326"/>
<text text-anchor="middle" x="1297.5" y="-304.3" font-family="Times,serif" font-size="14.00">sum += stu&#45;&gt;cpl + stu&#45;&gt;mat + stu&#45;&gt;eng + stu&#45;&gt;phy;</text>
</g>
<!-- D30&#45;&gt;D31 -->
<g id="edge39" class="edge">
<title>D30:s&#45;&gt;D31:n</title>
<path fill="none" stroke="black" d="M1379.5,-362C1379.5,-362 1328.45,-339.59 1306.91,-330.13"/>
<polygon fill="black" stroke="black" points="1308.06,-326.82 1297.5,-326 1305.25,-333.22 1308.06,-326.82"/>
</g>
<!-- D32 -->
<g id="node33" class="node">
<title>D32</title>
<polygon fill="none" stroke="black" points="1426.5,-254 1350.5,-254 1350.5,-218 1426.5,-218 1426.5,-254"/>
<text text-anchor="middle" x="1388.5" y="-232.3" font-family="Times,serif" font-size="14.00">i = i&#45;&gt;next</text>
</g>
<!-- D31&#45;&gt;D32 -->
<g id="edge40" class="edge">
<title>D31:s&#45;&gt;D32:n</title>
<path fill="none" stroke="black" d="M1297.5,-290C1297.5,-290 1355.85,-266.91 1379.1,-257.72"/>
<polygon fill="black" stroke="black" points="1380.49,-260.93 1388.5,-254 1377.91,-254.42 1380.49,-260.93"/>
</g>
<!-- D32&#45;&gt;D29 -->
<g id="edge41" class="edge">
<title>D32&#45;&gt;D29</title>
<path fill="none" stroke="black" d="M1411.36,-254.06C1432.11,-269.55 1459.5,-290 1459.5,-290 1459.5,-290 1459.5,-400 1459.5,-400 1459.5,-400 1457.05,-418.82 1454.86,-435.64"/>
<polygon fill="black" stroke="black" points="1451.38,-435.29 1453.56,-445.66 1458.32,-436.2 1451.38,-435.29"/>
</g>
<!-- D33&#45;&gt;D3 -->
<g id="edge42" class="edge">
<title>D33&#45;&gt;D3</title>
<path fill="none" stroke="black" d="M1568.21,-400.04C1558.28,-441.89 1534.5,-542 1534.5,-542 1534.5,-616 1534.5,-616 1534.5,-616 1534.5,-616 1534.5,-716.63 1534.5,-749.64"/>
<polygon fill="black" stroke="black" points="1531,-750 1534.5,-760 1538,-750 1531,-750"/>
</g>
<!-- D35 -->
<g id="node36" class="node">
<title>D35</title>
<polygon fill="none" stroke="black" points="1712,-561 1563,-561 1563,-525 1712,-525 1712,-561"/>
<text text-anchor="middle" x="1637.5" y="-539.3" font-family="Times,serif" font-size="14.00">node* i = s.head&#45;&gt;next;</text>
</g>
<!-- D34&#45;&gt;D35 -->
<g id="edge43" class="edge">
<title>D34:s&#45;&gt;D35:n</title>
<path fill="none" stroke="black" d="M1652.5,-597C1652.5,-597 1645.89,-581.12 1641.44,-570.46"/>
<polygon fill="black" stroke="black" points="1644.58,-568.88 1637.5,-561 1638.12,-571.58 1644.58,-568.88"/>
<text text-anchor="middle" x="1641.47" y="-572.53" font-family="Times,serif" font-size="14.00">Y</text>
</g>
<!-- D42 -->
<g id="node43" class="node">
<title>D42</title>
<polygon fill="none" stroke="black" points="1858.5,-561 1768.35,-543 1858.5,-525 1948.65,-543 1858.5,-561"/>
<text text-anchor="middle" x="1858.5" y="-539.3" font-family="Times,serif" font-size="14.00">(choice == 6)?</text>
</g>
<!-- D34&#45;&gt;D42 -->
<g id="edge44" class="edge">
<title>D34:e&#45;&gt;D42:n</title>
<path fill="none" stroke="black" d="M1743.5,-615C1743.5,-615 1821.62,-578.32 1849.09,-565.42"/>
<polygon fill="black" stroke="black" points="1850.94,-568.42 1858.5,-561 1847.96,-562.08 1850.94,-568.42"/>
<text text-anchor="middle" x="1790.79" y="-594.01" font-family="Times,serif" font-size="14.00">N</text>
</g>
<!-- D36 -->
<g id="node37" class="node">
<title>D36</title>
<polygon fill="none" stroke="black" points="1713.5,-480.5 1686.5,-462.5 1713.5,-444.5 1740.5,-462.5 1713.5,-480.5"/>
<text text-anchor="middle" x="1713.5" y="-458.8" font-family="Times,serif" font-size="14.00">i?</text>
</g>
<!-- D35&#45;&gt;D36 -->
<g id="edge45" class="edge">
<title>D35:s&#45;&gt;D36:n</title>
<path fill="none" stroke="black" d="M1637.5,-525C1637.5,-525 1684.82,-497.92 1704.78,-486.49"/>
<polygon fill="black" stroke="black" points="1706.56,-489.51 1713.5,-481.5 1703.08,-483.43 1706.56,-489.51"/>
</g>
<!-- D36&#45;&gt;D3 -->
<g id="edge47" class="edge">
<title>D36:e&#45;&gt;D3:n</title>
<path fill="none" stroke="black" d="M1741.5,-462.5C1741.5,-462.5 1759.5,-561 1759.5,-561 1759.5,-561 1900.35,-600.5 1938.87,-611.3"/>
<polygon fill="black" stroke="black" points="1937.93,-614.67 1948.5,-614 1939.82,-607.93 1937.93,-614.67"/>
<path fill="none" stroke="black" d="M1948.5,-616C1948.5,-616 1948.5,-760 1948.5,-760 1948.5,-842.5 1948.5,-842.5 1948.5,-842.5 1948.5,-842.5 1866.22,-1012 1866.22,-1012 1866.22,-1012 1692.5,-1013 1692.5,-1013"/>
<text text-anchor="middle" x="1943" y="-770.91" font-family="Times,serif" font-size="14.00">N</text>
</g>
<!-- D37 -->
<g id="node38" class="node">
<title>D37</title>
<polygon fill="none" stroke="black" points="1770.5,-399 1656.5,-399 1656.5,-363 1770.5,-363 1770.5,-399"/>
<text text-anchor="middle" x="1713.5" y="-377.3" font-family="Times,serif" font-size="14.00">double sum &#160;&#160;= 0;</text>
</g>
<!-- D36&#45;&gt;D37 -->
<g id="edge46" class="edge">
<title>D36:s&#45;&gt;D37:n</title>
<path fill="none" stroke="black" d="M1713.5,-443.5C1713.5,-443.5 1713.5,-422.94 1713.5,-410.09"/>
<polygon fill="black" stroke="black" points="1717,-410 1713.5,-400 1710,-410 1717,-410"/>
<text text-anchor="middle" x="1708" y="-430.59" font-family="Times,serif" font-size="14.00">Y</text>
</g>
<!-- D38 -->
<g id="node39" class="node">
<title>D38</title>
<polygon fill="none" stroke="black" points="1732.5,-326 1590.5,-326 1590.5,-290 1732.5,-290 1732.5,-326"/>
<text text-anchor="middle" x="1661.5" y="-304.3" font-family="Times,serif" font-size="14.00">student* stu = i&#45;&gt;data;</text>
</g>
<!-- D37&#45;&gt;D38 -->
<g id="edge48" class="edge">
<title>D37:s&#45;&gt;D38:n</title>
<path fill="none" stroke="black" d="M1713.5,-362C1713.5,-362 1684.86,-342.17 1670.09,-331.94"/>
<polygon fill="black" stroke="black" points="1671.71,-328.81 1661.5,-326 1667.73,-334.57 1671.71,-328.81"/>
</g>
<!-- D39 -->
<g id="node40" class="node">
<title>D39</title>
<polygon fill="none" stroke="black" points="1800.5,-254 1470.5,-254 1470.5,-218 1800.5,-218 1800.5,-254"/>
<text text-anchor="middle" x="1635.5" y="-232.3" font-family="Times,serif" font-size="14.00">sum &#160;&#160;&#160;&#160;&#160;&#160;&#160;&#160;&#160;= stu&#45;&gt;cpl + stu&#45;&gt;mat + stu&#45;&gt;eng + stu&#45;&gt;phy;</text>
</g>
<!-- D38&#45;&gt;D39 -->
<g id="edge49" class="edge">
<title>D38:s&#45;&gt;D39:n</title>
<path fill="none" stroke="black" d="M1661.5,-290C1661.5,-290 1649.21,-272.98 1641.53,-262.35"/>
<polygon fill="black" stroke="black" points="1644.19,-260.06 1635.5,-254 1638.52,-264.16 1644.19,-260.06"/>
</g>
<!-- D40 -->
<g id="node41" class="node">
<title>D40</title>
<polygon fill="none" stroke="black" points="1773.5,-182 1551.5,-182 1551.5,-144 1773.5,-144 1773.5,-182"/>
<text text-anchor="middle" x="1662.5" y="-166.8" font-family="Times,serif" font-size="14.00">printf(&quot;%d %s sum: %lf avg: %lf</text>
<text text-anchor="middle" x="1662.5" y="-151.8" font-family="Times,serif" font-size="14.00">&quot;, stu&#45;&gt;id, stu&#45;&gt;name, sum, sum / 4);</text>
</g>
<!-- D39&#45;&gt;D40 -->
<g id="edge50" class="edge">
<title>D39:s&#45;&gt;D40:n</title>
<path fill="none" stroke="black" d="M1635.5,-218C1635.5,-218 1648.26,-200.98 1656.24,-190.35"/>
<polygon fill="black" stroke="black" points="1659.3,-192.1 1662.5,-182 1653.7,-187.9 1659.3,-192.1"/>
</g>
<!-- D41 -->
<g id="node42" class="node">
<title>D41</title>
<polygon fill="none" stroke="black" points="1797.5,-108 1721.5,-108 1721.5,-72 1797.5,-72 1797.5,-108"/>
<text text-anchor="middle" x="1759.5" y="-86.3" font-family="Times,serif" font-size="14.00">i = i&#45;&gt;next</text>
</g>
<!-- D40&#45;&gt;D41 -->
<g id="edge51" class="edge">
<title>D40:s&#45;&gt;D41:n</title>
<path fill="none" stroke="black" d="M1662.5,-144C1662.5,-144 1725.31,-120.69 1749.84,-111.58"/>
<polygon fill="black" stroke="black" points="1751.34,-114.76 1759.5,-108 1748.91,-108.2 1751.34,-114.76"/>
</g>
<!-- D41&#45;&gt;D36 -->
<g id="edge52" class="edge">
<title>D41&#45;&gt;D36</title>
<path fill="none" stroke="black" d="M1767.69,-108.08C1785.96,-146.23 1828.5,-235 1828.5,-235 1828.5,-309 1828.5,-309 1828.5,-309 1828.5,-309 1779.5,-400 1779.5,-400 1779.5,-400 1751.42,-426.17 1731.89,-444.37"/>
<polygon fill="black" stroke="black" points="1729.33,-441.97 1724.4,-451.34 1734.1,-447.09 1729.33,-441.97"/>
</g>
<!-- D42&#45;&gt;D3 -->
<g id="edge54" class="edge">
<title>D42:e&#45;&gt;D3:n</title>
<path fill="none" stroke="black" d="M1949.5,-543C1949.5,-543 1948.92,-584.2 1948.64,-603.83"/>
<polygon fill="black" stroke="black" points="1945.14,-603.95 1948.5,-614 1952.14,-604.05 1945.14,-603.95"/>
<text text-anchor="middle" x="1943.57" y="-577.21" font-family="Times,serif" font-size="14.00">N</text>
</g>
<!-- D43 -->
<g id="node44" class="node">
<title>D43</title>
<polygon fill="none" stroke="black" points="1953,-480.5 1852,-480.5 1852,-444.5 1953,-444.5 1953,-480.5"/>
<text text-anchor="middle" x="1902.5" y="-458.8" font-family="Times,serif" font-size="14.00">s = sort_list(s);</text>
</g>
<!-- D42&#45;&gt;D43 -->
<g id="edge53" class="edge">
<title>D42:s&#45;&gt;D43:n</title>
<path fill="none" stroke="black" d="M1858.5,-525C1858.5,-525 1882.74,-501.04 1895.23,-488.68"/>
<polygon fill="black" stroke="black" points="1897.85,-491.02 1902.5,-481.5 1892.93,-486.04 1897.85,-491.02"/>
<text text-anchor="middle" x="1871.37" y="-510.64" font-family="Times,serif" font-size="14.00">Y</text>
</g>
<!-- D43&#45;&gt;D3 -->
<g id="edge55" class="edge">
<title>D43&#45;&gt;D3</title>
<path fill="none" stroke="black" d="M1917.82,-480.63C1934.09,-498.83 1957.5,-525 1957.5,-525 1957.5,-525 1986.5,-614 1986.5,-614 1986.5,-842.5 1986.5,-842.5 1986.5,-842.5 1986.5,-842.5 1923.5,-940 1923.5,-940 1923.5,-940 1822.05,-963.28 1753.61,-978.98"/>
<polygon fill="black" stroke="black" points="1752.73,-975.59 1743.77,-981.24 1754.3,-982.41 1752.73,-975.59"/>
</g>
<!-- D45 -->
<g id="node46" class="node">
<title>D45</title>
<path fill="none" stroke="black" d="M2039.5,-36C2039.5,-36 2009.5,-36 2009.5,-36 2003.5,-36 1997.5,-30 1997.5,-24 1997.5,-24 1997.5,-12 1997.5,-12 1997.5,-6 2003.5,0 2009.5,0 2009.5,0 2039.5,0 2039.5,0 2045.5,0 2051.5,-6 2051.5,-12 2051.5,-12 2051.5,-24 2051.5,-24 2051.5,-30 2045.5,-36 2039.5,-36"/>
<text text-anchor="middle" x="2024.5" y="-14.3" font-family="Times,serif" font-size="14.00">End</text>
</g>
<!-- D44&#45;&gt;D45 -->
<g id="edge56" class="edge">
<title>D44&#45;&gt;D45</title>
<path fill="none" stroke="black" d="M2024.5,-144.75C2024.5,-120.38 2024.5,-75.61 2024.5,-46.59"/>
<polygon fill="black" stroke="black" points="2028,-46.31 2024.5,-36.31 2021,-46.31 2028,-46.31"/>
</g>
</g>
</svg>
