<?xml version="1.0" encoding="UTF-8" standalone="no"?>
<!DOCTYPE svg PUBLIC "-//W3C//DTD SVG 1.1//EN"
 "http://www.w3.org/Graphics/SVG/1.1/DTD/svg11.dtd">
<!-- Generated by graphviz version 2.48.0 (20210717.1556)
 -->
<!-- Pages: 1 -->
<svg width="2117pt" height="2052pt"
 viewBox="0.00 0.00 2117.00 2052.00" xmlns="http://www.w3.org/2000/svg" xmlns:xlink="http://www.w3.org/1999/xlink">
<g id="graph0" class="graph" transform="scale(1 1) rotate(0) translate(4 2048)">
<polygon fill="white" stroke="transparent" points="-4,4 -4,-2048 2113,-2048 2113,4 -4,4"/>
<!-- D0 -->
<g id="node1" class="node">
<title>D0</title>
<path fill="none" stroke="black" d="M1985,-2044C1985,-2044 1955,-2044 1955,-2044 1949,-2044 1943,-2038 1943,-2032 1943,-2032 1943,-2020 1943,-2020 1943,-2014 1949,-2008 1955,-2008 1955,-2008 1985,-2008 1985,-2008 1991,-2008 1997,-2014 1997,-2020 1997,-2020 1997,-2032 1997,-2032 1997,-2038 1991,-2044 1985,-2044"/>
<text text-anchor="middle" x="1970" y="-2022.3" font-family="Times,serif" font-size="14.00">Start</text>
</g>
<!-- D1 -->
<g id="node2" class="node">
<title>D1</title>
<polygon fill="none" stroke="black" points="2014.5,-1972 1925.5,-1972 1925.5,-1936 2014.5,-1936 2014.5,-1972"/>
<text text-anchor="middle" x="1970" y="-1950.3" font-family="Times,serif" font-size="14.00">int v_int = 0;</text>
</g>
<!-- D0&#45;&gt;D1 -->
<g id="edge1" class="edge">
<title>D0:s&#45;&gt;D1:n</title>
<path fill="none" stroke="black" d="M1970,-2008C1970,-2008 1970,-1992.86 1970,-1982.22"/>
<polygon fill="black" stroke="black" points="1973.5,-1982 1970,-1972 1966.5,-1982 1973.5,-1982"/>
</g>
<!-- D2 -->
<g id="node3" class="node">
<title>D2</title>
<polygon fill="none" stroke="black" points="2038,-1900 1902,-1900 1902,-1864 2038,-1864 2038,-1900"/>
<text text-anchor="middle" x="1970" y="-1878.3" font-family="Times,serif" font-size="14.00">double v_double = 0;</text>
</g>
<!-- D1&#45;&gt;D2 -->
<g id="edge2" class="edge">
<title>D1:s&#45;&gt;D2:n</title>
<path fill="none" stroke="black" d="M1970,-1936C1970,-1936 1970,-1920.86 1970,-1910.22"/>
<polygon fill="black" stroke="black" points="1973.5,-1910 1970,-1900 1966.5,-1910 1973.5,-1910"/>
</g>
<!-- D3 -->
<g id="node4" class="node">
<title>D3</title>
<polygon fill="none" stroke="black" points="2096.5,-1828 1843.5,-1828 1843.5,-1792 2096.5,-1792 2096.5,-1828"/>
<text text-anchor="middle" x="1970" y="-1806.3" font-family="Times,serif" font-size="14.00">bool is_double = false, is_long_lit = false;</text>
</g>
<!-- D2&#45;&gt;D3 -->
<g id="edge3" class="edge">
<title>D2:s&#45;&gt;D3:n</title>
<path fill="none" stroke="black" d="M1970,-1864C1970,-1864 1970,-1848.86 1970,-1838.22"/>
<polygon fill="black" stroke="black" points="1973.5,-1838 1970,-1828 1966.5,-1838 1973.5,-1838"/>
</g>
<!-- D4 -->
<g id="node5" class="node">
<title>D4</title>
<polygon fill="none" stroke="black" points="2062.5,-1756 1877.5,-1756 1877.5,-1720 2062.5,-1720 2062.5,-1756"/>
<text text-anchor="middle" x="1970" y="-1734.3" font-family="Times,serif" font-size="14.00">int len = sdslen(source_code);</text>
</g>
<!-- D3&#45;&gt;D4 -->
<g id="edge4" class="edge">
<title>D3:s&#45;&gt;D4:n</title>
<path fill="none" stroke="black" d="M1970,-1792C1970,-1792 1970,-1776.86 1970,-1766.22"/>
<polygon fill="black" stroke="black" points="1973.5,-1766 1970,-1756 1966.5,-1766 1973.5,-1766"/>
</g>
<!-- D5 -->
<g id="node6" class="node">
<title>D5</title>
<polygon fill="none" stroke="black" points="2054,-1684 1886,-1684 1886,-1648 2054,-1648 2054,-1684"/>
<text text-anchor="middle" x="1970" y="-1662.3" font-family="Times,serif" font-size="14.00">int i = ptr, double_cnt = &#45;1;</text>
</g>
<!-- D4&#45;&gt;D5 -->
<g id="edge5" class="edge">
<title>D4:s&#45;&gt;D5:n</title>
<path fill="none" stroke="black" d="M1970,-1720C1970,-1720 1970,-1704.86 1970,-1694.22"/>
<polygon fill="black" stroke="black" points="1973.5,-1694 1970,-1684 1966.5,-1694 1973.5,-1694"/>
</g>
<!-- D6 -->
<g id="node7" class="node">
<title>D6</title>
<polygon fill="none" stroke="black" points="2016,-1612 1924,-1612 1924,-1576 2016,-1576 2016,-1612"/>
<text text-anchor="middle" x="1970" y="-1590.3" font-family="Times,serif" font-size="14.00">int base = 10;</text>
</g>
<!-- D5&#45;&gt;D6 -->
<g id="edge6" class="edge">
<title>D5:s&#45;&gt;D6:n</title>
<path fill="none" stroke="black" d="M1970,-1648C1970,-1648 1970,-1632.86 1970,-1622.22"/>
<polygon fill="black" stroke="black" points="1973.5,-1622 1970,-1612 1966.5,-1622 1973.5,-1622"/>
</g>
<!-- D7 -->
<g id="node8" class="node">
<title>D7</title>
<polygon fill="none" stroke="black" points="1970,-1540 1832.25,-1522 1970,-1504 2107.75,-1522 1970,-1540"/>
<text text-anchor="middle" x="1970" y="-1518.3" font-family="Times,serif" font-size="14.00">(source_code[i] == &#39;0&#39;)?</text>
</g>
<!-- D6&#45;&gt;D7 -->
<g id="edge7" class="edge">
<title>D6:s&#45;&gt;D7:n</title>
<path fill="none" stroke="black" d="M1970,-1576C1970,-1576 1970,-1560.86 1970,-1550.22"/>
<polygon fill="black" stroke="black" points="1973.5,-1550 1970,-1540 1966.5,-1550 1973.5,-1550"/>
</g>
<!-- D8 -->
<g id="node9" class="node">
<title>D8</title>
<polygon fill="none" stroke="black" points="1970,-1468 1887.05,-1450 1970,-1432 2052.95,-1450 1970,-1468"/>
<text text-anchor="middle" x="1970" y="-1446.3" font-family="Times,serif" font-size="14.00">(i + 1 &lt; len)?</text>
</g>
<!-- D7&#45;&gt;D8 -->
<g id="edge8" class="edge">
<title>D7:s&#45;&gt;D8:n</title>
<path fill="none" stroke="black" d="M1970,-1504C1970,-1504 1970,-1488.86 1970,-1478.22"/>
<polygon fill="black" stroke="black" points="1973.5,-1478 1970,-1468 1966.5,-1478 1973.5,-1478"/>
<text text-anchor="middle" x="1964.5" y="-1479.91" font-family="Times,serif" font-size="14.00">Y</text>
</g>
<!-- D18 -->
<g id="node19" class="node">
<title>D18</title>
<polygon fill="none" stroke="black" points="1418,-1036 1363.54,-1018 1418,-1000 1472.46,-1018 1418,-1036"/>
<text text-anchor="middle" x="1418" y="-1014.3" font-family="Times,serif" font-size="14.00">i &lt; len?</text>
</g>
<!-- D7&#45;&gt;D18 -->
<g id="edge9" class="edge">
<title>D7:e&#45;&gt;D18:n</title>
<path fill="none" stroke="black" d="M2109,-1522C2109,-1522 2108,-1379 2108,-1379"/>
<text text-anchor="middle" x="2103" y="-1454.3" font-family="Times,serif" font-size="14.00">N</text>
</g>
<!-- D9 -->
<g id="node10" class="node">
<title>D9</title>
<polygon fill="none" stroke="black" points="1318,-1396 1112.22,-1378 1318,-1360 1523.78,-1378 1318,-1396"/>
<text text-anchor="middle" x="1318" y="-1374.3" font-family="Times,serif" font-size="14.00">(tolower(source_code[i + 1]) == &#39;x&#39;)?</text>
</g>
<!-- D8&#45;&gt;D9 -->
<g id="edge10" class="edge">
<title>D8:s&#45;&gt;D9:n</title>
<path fill="none" stroke="black" d="M1970,-1432C1970,-1432 1411.19,-1401.15 1328.24,-1396.57"/>
<polygon fill="black" stroke="black" points="1328.18,-1393.06 1318,-1396 1327.79,-1400.05 1328.18,-1393.06"/>
<text text-anchor="middle" x="1643.62" y="-1418.08" font-family="Times,serif" font-size="14.00">Y</text>
</g>
<!-- D8&#45;&gt;D18 -->
<g id="edge11" class="edge">
<title>D8:e&#45;&gt;D18:n</title>
<path fill="none" stroke="black" d="M2054,-1450C2054,-1450 2108,-1379 2108,-1379"/>
<path fill="none" stroke="black" d="M2108,-1377C2108,-1377 2108,-1235 2108,-1235 2108,-1235 2108,-1235 2108,-1161 2108,-1161 2089,-1144 2089,-1144 2089,-1144 1511.48,-1051.05 1428.01,-1037.61"/>
<polygon fill="black" stroke="black" points="1428.43,-1034.13 1418,-1036 1427.32,-1041.04 1428.43,-1034.13"/>
<text text-anchor="middle" x="1916.25" y="-1120.88" font-family="Times,serif" font-size="14.00">N</text>
</g>
<!-- D10 -->
<g id="node11" class="node">
<title>D10</title>
<polygon fill="none" stroke="black" points="1055,-1324 981,-1324 981,-1288 1055,-1288 1055,-1324"/>
<text text-anchor="middle" x="1018" y="-1302.3" font-family="Times,serif" font-size="14.00">base = 16;</text>
</g>
<!-- D9&#45;&gt;D10 -->
<g id="edge12" class="edge">
<title>D9:s&#45;&gt;D10:n</title>
<path fill="none" stroke="black" d="M1318,-1360C1318,-1360 1080.04,-1331.44 1027.98,-1325.2"/>
<polygon fill="black" stroke="black" points="1028.35,-1321.72 1018,-1324 1027.51,-1328.67 1028.35,-1321.72"/>
<text text-anchor="middle" x="1167.49" y="-1346.4" font-family="Times,serif" font-size="14.00">Y</text>
</g>
<!-- D12 -->
<g id="node13" class="node">
<title>D12</title>
<polygon fill="none" stroke="black" points="1524,-1324 1072.89,-1306 1524,-1288 1975.11,-1306 1524,-1324"/>
<text text-anchor="middle" x="1524" y="-1302.3" font-family="Times,serif" font-size="14.00">(source_code[i + 1] == &#39;.&#39; || is_valid_symbol_to_end_identifier(source_code[i + 1]))?</text>
</g>
<!-- D9&#45;&gt;D12 -->
<g id="edge13" class="edge">
<title>D9:e&#45;&gt;D12:n</title>
<path fill="none" stroke="black" d="M1525,-1378C1525,-1378 1524.48,-1350.1 1524.19,-1334.41"/>
<polygon fill="black" stroke="black" points="1527.68,-1333.93 1524,-1324 1520.69,-1334.06 1527.68,-1333.93"/>
<text text-anchor="middle" x="1519.1" y="-1345.01" font-family="Times,serif" font-size="14.00">N</text>
</g>
<!-- D11 -->
<g id="node12" class="node">
<title>D11</title>
<polygon fill="none" stroke="black" points="1218,-1252 1164,-1252 1164,-1216 1218,-1216 1218,-1252"/>
<text text-anchor="middle" x="1191" y="-1230.3" font-family="Times,serif" font-size="14.00">i += 2;</text>
</g>
<!-- D10&#45;&gt;D11 -->
<g id="edge14" class="edge">
<title>D10:s&#45;&gt;D11:n</title>
<path fill="none" stroke="black" d="M1018,-1288C1018,-1288 1144.61,-1261.65 1181.2,-1254.04"/>
<polygon fill="black" stroke="black" points="1181.92,-1257.46 1191,-1252 1180.5,-1250.61 1181.92,-1257.46"/>
</g>
<!-- D11&#45;&gt;D18 -->
<g id="edge15" class="edge">
<title>D11&#45;&gt;D18</title>
<path fill="none" stroke="black" d="M1209.19,-1215.85C1250.88,-1176.55 1353.09,-1080.19 1397.19,-1038.62"/>
<polygon fill="black" stroke="black" points="1399.6,-1041.15 1404.48,-1031.75 1394.8,-1036.06 1399.6,-1041.15"/>
</g>
<!-- D13 -->
<g id="node14" class="node">
<title>D13</title>
<polygon fill="none" stroke="black" points="1639,-1252 1472.76,-1234 1639,-1216 1805.24,-1234 1639,-1252"/>
<text text-anchor="middle" x="1639" y="-1230.3" font-family="Times,serif" font-size="14.00">(isdigit(source_code[i + 1]))?</text>
</g>
<!-- D12&#45;&gt;D13 -->
<g id="edge17" class="edge">
<title>D12:e&#45;&gt;D13:n</title>
<path fill="none" stroke="black" d="M1976,-1306C1976,-1306 1975,-1288 1975,-1288 1975,-1288 1704.96,-1259.07 1649.06,-1253.08"/>
<polygon fill="black" stroke="black" points="1649.32,-1249.59 1639,-1252 1648.57,-1256.55 1649.32,-1249.59"/>
<text text-anchor="middle" x="1815.49" y="-1275.3" font-family="Times,serif" font-size="14.00">N</text>
</g>
<!-- D12&#45;&gt;D18 -->
<g id="edge16" class="edge">
<title>D12:s&#45;&gt;D18:n</title>
<path fill="none" stroke="black" d="M1524,-1288C1524,-1288 1464,-1252 1464,-1252 1464,-1252 1437,-1180 1437,-1180 1437,-1180 1423.72,-1079.37 1419.37,-1046.36"/>
<polygon fill="black" stroke="black" points="1422.78,-1045.46 1418,-1036 1415.84,-1046.37 1422.78,-1045.46"/>
<text text-anchor="middle" x="1433.62" y="-1189.45" font-family="Times,serif" font-size="14.00">Y</text>
</g>
<!-- D14 -->
<g id="node15" class="node">
<title>D14</title>
<polygon fill="none" stroke="black" points="1513.5,-1180 1446.5,-1180 1446.5,-1144 1513.5,-1144 1513.5,-1180"/>
<text text-anchor="middle" x="1480" y="-1158.3" font-family="Times,serif" font-size="14.00">base = 8;</text>
</g>
<!-- D13&#45;&gt;D14 -->
<g id="edge18" class="edge">
<title>D13:s&#45;&gt;D14:n</title>
<path fill="none" stroke="black" d="M1639,-1216C1639,-1216 1524.76,-1190.13 1489.95,-1182.25"/>
<polygon fill="black" stroke="black" points="1490.53,-1178.79 1480,-1180 1488.98,-1185.62 1490.53,-1178.79"/>
<text text-anchor="middle" x="1558.97" y="-1202.93" font-family="Times,serif" font-size="14.00">Y</text>
</g>
<!-- D16 -->
<g id="node17" class="node">
<title>D16</title>
<polygon fill="none" stroke="black" points="2080,-1180 1532,-1180 1532,-1144 2080,-1144 2080,-1180"/>
<text text-anchor="middle" x="1806" y="-1158.3" font-family="Times,serif" font-size="14.00">sds msg = sdscatprintf(sdsempty() ,&quot;expecting hex or oct lit, but get &#39;%c&#39;&quot;, source_code[i + 1]);</text>
</g>
<!-- D13&#45;&gt;D16 -->
<g id="edge19" class="edge">
<title>D13:e&#45;&gt;D16:n</title>
<path fill="none" stroke="black" d="M1807,-1234C1807,-1234 1806.48,-1206.1 1806.19,-1190.41"/>
<polygon fill="black" stroke="black" points="1809.68,-1189.93 1806,-1180 1802.69,-1190.06 1809.68,-1189.93"/>
<text text-anchor="middle" x="1801.1" y="-1201.01" font-family="Times,serif" font-size="14.00">N</text>
</g>
<!-- D15 -->
<g id="node16" class="node">
<title>D15</title>
<polygon fill="none" stroke="black" points="1504,-1108 1450,-1108 1450,-1072 1504,-1072 1504,-1108"/>
<text text-anchor="middle" x="1477" y="-1086.3" font-family="Times,serif" font-size="14.00">i++;</text>
</g>
<!-- D14&#45;&gt;D15 -->
<g id="edge20" class="edge">
<title>D14:s&#45;&gt;D15:n</title>
<path fill="none" stroke="black" d="M1480,-1144C1480,-1144 1478.74,-1128.86 1477.85,-1118.22"/>
<polygon fill="black" stroke="black" points="1481.32,-1117.67 1477,-1108 1474.34,-1118.26 1481.32,-1117.67"/>
</g>
<!-- D15&#45;&gt;D18 -->
<g id="edge21" class="edge">
<title>D15&#45;&gt;D18</title>
<path fill="none" stroke="black" d="M1462.42,-1071.7C1454.42,-1062.21 1444.44,-1050.36 1435.96,-1040.31"/>
<polygon fill="black" stroke="black" points="1438.39,-1037.77 1429.27,-1032.38 1433.04,-1042.28 1438.39,-1037.77"/>
</g>
<!-- D17 -->
<g id="node18" class="node">
<title>D17</title>
<polygon fill="none" stroke="black" points="2073,-1036 1929,-1036 1929,-1000 2073,-1000 2073,-1036"/>
<text text-anchor="middle" x="2001" y="-1014.3" font-family="Times,serif" font-size="14.00">return err_token(msg);</text>
</g>
<!-- D16&#45;&gt;D17 -->
<g id="edge22" class="edge">
<title>D16:s&#45;&gt;D17:n</title>
<path fill="none" stroke="black" d="M1806,-1144C1806,-1144 1953.97,-1062.05 1992.11,-1040.92"/>
<polygon fill="black" stroke="black" points="1993.95,-1043.91 2001,-1036 1990.56,-1037.78 1993.95,-1043.91"/>
</g>
<!-- D52 -->
<g id="node53" class="node">
<title>D52</title>
<path fill="none" stroke="black" d="M1585,-36C1585,-36 1555,-36 1555,-36 1549,-36 1543,-30 1543,-24 1543,-24 1543,-12 1543,-12 1543,-6 1549,0 1555,0 1555,0 1585,0 1585,0 1591,0 1597,-6 1597,-12 1597,-12 1597,-24 1597,-24 1597,-30 1591,-36 1585,-36"/>
<text text-anchor="middle" x="1570" y="-14.3" font-family="Times,serif" font-size="14.00">End</text>
</g>
<!-- D17&#45;&gt;D52 -->
<g id="edge23" class="edge">
<title>D17&#45;&gt;D52</title>
<path fill="none" stroke="black" d="M2008.72,-999.87C2025.74,-962.1 2065,-875 2065,-875 2065,-875 2065,-875 2065,-192 2065,-192 1831,-72 1831,-72 1831,-72 1679.7,-41.28 1607.49,-26.61"/>
<polygon fill="black" stroke="black" points="1607.93,-23.13 1597.44,-24.57 1606.54,-29.99 1607.93,-23.13"/>
</g>
<!-- D19 -->
<g id="node20" class="node">
<title>D19</title>
<polygon fill="none" stroke="black" points="893,-964 775,-964 775,-928 893,-928 893,-964"/>
<text text-anchor="middle" x="834" y="-942.3" font-family="Times,serif" font-size="14.00">bool valid = false;</text>
</g>
<!-- D18&#45;&gt;D19 -->
<g id="edge24" class="edge">
<title>D18:s&#45;&gt;D19:n</title>
<path fill="none" stroke="black" d="M1418,-1000C1418,-1000 921.69,-969.41 844.14,-964.62"/>
<polygon fill="black" stroke="black" points="844.2,-961.12 834,-964 843.77,-968.11 844.2,-961.12"/>
<text text-anchor="middle" x="1125.57" y="-986.11" font-family="Times,serif" font-size="14.00">Y</text>
</g>
<!-- D46 -->
<g id="node47" class="node">
<title>D46</title>
<polygon fill="none" stroke="black" points="1423,-387 1321,-387 1321,-351 1423,-351 1423,-387"/>
<text text-anchor="middle" x="1372" y="-365.3" font-family="Times,serif" font-size="14.00">*skips = i &#45; ptr;</text>
</g>
<!-- D18&#45;&gt;D46 -->
<g id="edge25" class="edge">
<title>D18:e&#45;&gt;D46:n</title>
<path fill="none" stroke="black" d="M1473,-1018C1473,-1018 1668,-875 1668,-875 1668,-875 1668,-875 1668,-513 1668,-513 1649,-424 1649,-424 1649,-424 1432.16,-395.82 1382.19,-389.32"/>
<polygon fill="black" stroke="black" points="1382.37,-385.82 1372,-388 1381.47,-392.76 1382.37,-385.82"/>
<text text-anchor="middle" x="1662.5" y="-638.68" font-family="Times,serif" font-size="14.00">N</text>
</g>
<!-- D20 -->
<g id="node21" class="node">
<title>D20</title>
<polygon fill="none" stroke="black" points="639,-892 552.7,-874 639,-856 725.3,-874 639,-892"/>
<text text-anchor="middle" x="639" y="-870.3" font-family="Times,serif" font-size="14.00">(base == 10)?</text>
</g>
<!-- D19&#45;&gt;D20 -->
<g id="edge26" class="edge">
<title>D19:s&#45;&gt;D20:n</title>
<path fill="none" stroke="black" d="M834,-928C834,-928 688.68,-901.17 648.94,-893.83"/>
<polygon fill="black" stroke="black" points="649.47,-890.37 639,-892 648.2,-897.26 649.47,-890.37"/>
</g>
<!-- D21 -->
<g id="node22" class="node">
<title>D21</title>
<polygon fill="none" stroke="black" points="605.5,-820 414.5,-820 414.5,-784 605.5,-784 605.5,-820"/>
<text text-anchor="middle" x="510" y="-798.3" font-family="Times,serif" font-size="14.00">valid = isdigit(source_code[i]);</text>
</g>
<!-- D20&#45;&gt;D21 -->
<g id="edge27" class="edge">
<title>D20:s&#45;&gt;D21:n</title>
<path fill="none" stroke="black" d="M639,-856C639,-856 549.7,-831.08 519.7,-822.71"/>
<polygon fill="black" stroke="black" points="520.57,-819.32 510,-820 518.69,-826.06 520.57,-819.32"/>
<text text-anchor="middle" x="573.85" y="-843.15" font-family="Times,serif" font-size="14.00">Y</text>
</g>
<!-- D22 -->
<g id="node23" class="node">
<title>D22</title>
<polygon fill="none" stroke="black" points="725,-820 645.07,-802 725,-784 804.93,-802 725,-820"/>
<text text-anchor="middle" x="725" y="-798.3" font-family="Times,serif" font-size="14.00">(base == 8)?</text>
</g>
<!-- D20&#45;&gt;D22 -->
<g id="edge28" class="edge">
<title>D20:e&#45;&gt;D22:n</title>
<path fill="none" stroke="black" d="M726,-874C726,-874 725.48,-846.1 725.19,-830.41"/>
<polygon fill="black" stroke="black" points="728.68,-829.93 725,-820 721.69,-830.06 728.68,-829.93"/>
<text text-anchor="middle" x="720.1" y="-841.01" font-family="Times,serif" font-size="14.00">N</text>
</g>
<!-- D25 -->
<g id="node26" class="node">
<title>D25</title>
<polygon fill="none" stroke="black" points="533,-676 477.7,-658 533,-640 588.3,-658 533,-676"/>
<text text-anchor="middle" x="533" y="-654.3" font-family="Times,serif" font-size="14.00">(valid)?</text>
</g>
<!-- D21&#45;&gt;D25 -->
<g id="edge29" class="edge">
<title>D21&#45;&gt;D25</title>
<path fill="none" stroke="black" d="M502.27,-783.94C495.26,-768.45 486,-748 486,-748 486,-748 486,-712 486,-712 486,-712 501.1,-694.97 514.19,-680.21"/>
<polygon fill="black" stroke="black" points="517.12,-682.18 521.14,-672.37 511.89,-677.53 517.12,-682.18"/>
</g>
<!-- D23 -->
<g id="node24" class="node">
<title>D23</title>
<polygon fill="none" stroke="black" points="703,-748 495,-748 495,-712 703,-712 703,-748"/>
<text text-anchor="middle" x="599" y="-726.3" font-family="Times,serif" font-size="14.00">valid = isoctdigit(source_code[i]);</text>
</g>
<!-- D22&#45;&gt;D23 -->
<g id="edge30" class="edge">
<title>D22:s&#45;&gt;D23:n</title>
<path fill="none" stroke="black" d="M725,-784C725,-784 638.59,-759.31 608.89,-750.82"/>
<polygon fill="black" stroke="black" points="609.58,-747.38 599,-748 607.65,-754.11 609.58,-747.38"/>
<text text-anchor="middle" x="661.44" y="-771.21" font-family="Times,serif" font-size="14.00">Y</text>
</g>
<!-- D24 -->
<g id="node25" class="node">
<title>D24</title>
<polygon fill="none" stroke="black" points="932.5,-748 721.5,-748 721.5,-712 932.5,-712 932.5,-748"/>
<text text-anchor="middle" x="827" y="-726.3" font-family="Times,serif" font-size="14.00">valid = ishexdigit(source_code[i]);</text>
</g>
<!-- D22&#45;&gt;D24 -->
<g id="edge31" class="edge">
<title>D22:e&#45;&gt;D24:n</title>
<path fill="none" stroke="black" d="M806,-802C806,-802 817.33,-772.88 823.34,-757.41"/>
<polygon fill="black" stroke="black" points="826.64,-758.59 827,-748 820.11,-756.05 826.64,-758.59"/>
<text text-anchor="middle" x="809.17" y="-768.5" font-family="Times,serif" font-size="14.00">N</text>
</g>
<!-- D23&#45;&gt;D25 -->
<g id="edge32" class="edge">
<title>D23&#45;&gt;D25</title>
<path fill="none" stroke="black" d="M582.69,-711.7C573.56,-702.02 562.12,-689.89 552.52,-679.71"/>
<polygon fill="black" stroke="black" points="555.02,-677.25 545.61,-672.38 549.92,-682.05 555.02,-677.25"/>
</g>
<!-- D24&#45;&gt;D25 -->
<g id="edge33" class="edge">
<title>D24&#45;&gt;D25</title>
<path fill="none" stroke="black" d="M755.46,-711.97C698.13,-698.32 619.81,-679.67 573.02,-668.53"/>
<polygon fill="black" stroke="black" points="573.79,-665.11 563.25,-666.2 572.17,-671.92 573.79,-665.11"/>
</g>
<!-- D26 -->
<g id="node27" class="node">
<title>D26</title>
<polygon fill="none" stroke="black" points="317,-460 237.9,-442 317,-424 396.1,-442 317,-460"/>
<text text-anchor="middle" x="317" y="-438.3" font-family="Times,serif" font-size="14.00">(is_double)?</text>
</g>
<!-- D25&#45;&gt;D26 -->
<g id="edge34" class="edge">
<title>D25:s&#45;&gt;D26:n</title>
<path fill="none" stroke="black" d="M533,-640C533,-640 444,-604 444,-604 444,-604 350.21,-497.65 323.83,-467.74"/>
<polygon fill="black" stroke="black" points="326.24,-465.18 317,-460 320.99,-469.82 326.24,-465.18"/>
<text text-anchor="middle" x="410.17" y="-575.67" font-family="Times,serif" font-size="14.00">Y</text>
</g>
<!-- D30 -->
<g id="node31" class="node">
<title>D30</title>
<polygon fill="none" stroke="black" points="588,-604 452.77,-586 588,-568 723.23,-586 588,-604"/>
<text text-anchor="middle" x="588" y="-582.3" font-family="Times,serif" font-size="14.00">(source_code[i] == &#39;.&#39;)?</text>
</g>
<!-- D25&#45;&gt;D30 -->
<g id="edge35" class="edge">
<title>D25:e&#45;&gt;D30:n</title>
<path fill="none" stroke="black" d="M589,-658C589,-658 588.48,-630.1 588.19,-614.41"/>
<polygon fill="black" stroke="black" points="591.68,-613.93 588,-604 584.69,-614.06 591.68,-613.93"/>
<text text-anchor="middle" x="583.1" y="-625.01" font-family="Times,serif" font-size="14.00">N</text>
</g>
<!-- D27 -->
<g id="node28" class="node">
<title>D27</title>
<polygon fill="none" stroke="black" points="422,-387 28,-387 28,-351 422,-351 422,-387"/>
<text text-anchor="middle" x="225" y="-365.3" font-family="Times,serif" font-size="14.00">v_double += pow(base, double_cnt&#45;&#45;) * (char2int(source_code[i]));</text>
</g>
<!-- D26&#45;&gt;D27 -->
<g id="edge36" class="edge">
<title>D26:s&#45;&gt;D27:n</title>
<path fill="none" stroke="black" d="M317,-424C317,-424 258,-400.91 234.5,-391.72"/>
<polygon fill="black" stroke="black" points="235.59,-388.38 225,-388 233.04,-394.9 235.59,-388.38"/>
<text text-anchor="middle" x="270.25" y="-411.66" font-family="Times,serif" font-size="14.00">Y</text>
</g>
<!-- D28 -->
<g id="node29" class="node">
<title>D28</title>
<polygon fill="none" stroke="black" points="536,-387 440,-387 440,-351 536,-351 536,-387"/>
<text text-anchor="middle" x="488" y="-365.3" font-family="Times,serif" font-size="14.00">v_int *= base;</text>
</g>
<!-- D26&#45;&gt;D28 -->
<g id="edge37" class="edge">
<title>D26:e&#45;&gt;D28:n</title>
<path fill="none" stroke="black" d="M397,-442C397,-442 405,-424 405,-424 405,-424 457.19,-401.36 478.8,-391.99"/>
<polygon fill="black" stroke="black" points="480.22,-395.19 488,-388 477.43,-388.77 480.22,-395.19"/>
<text text-anchor="middle" x="427.36" y="-400.71" font-family="Times,serif" font-size="14.00">N</text>
</g>
<!-- D45 -->
<g id="node46" class="node">
<title>D45</title>
<polygon fill="none" stroke="black" points="475,-211 421,-211 421,-175 475,-175 475,-211"/>
<text text-anchor="middle" x="448" y="-189.3" font-family="Times,serif" font-size="14.00">++i</text>
</g>
<!-- D27&#45;&gt;D45 -->
<g id="edge38" class="edge">
<title>D27&#45;&gt;D45</title>
<path fill="none" stroke="black" d="M228.47,-350.65C233.7,-324.49 243,-278 243,-278 243,-278 352.48,-233.14 411.43,-208.98"/>
<polygon fill="black" stroke="black" points="412.85,-212.18 420.78,-205.15 410.2,-205.71 412.85,-212.18"/>
</g>
<!-- D29 -->
<g id="node30" class="node">
<title>D29</title>
<polygon fill="none" stroke="black" points="462,-314 252,-314 252,-278 462,-278 462,-314"/>
<text text-anchor="middle" x="357" y="-292.3" font-family="Times,serif" font-size="14.00">v_int += char2int(source_code[i]);</text>
</g>
<!-- D28&#45;&gt;D29 -->
<g id="edge39" class="edge">
<title>D28:s&#45;&gt;D29:n</title>
<path fill="none" stroke="black" d="M488,-350C488,-350 397.31,-325.08 366.85,-316.71"/>
<polygon fill="black" stroke="black" points="367.57,-313.28 357,-314 365.72,-320.02 367.57,-313.28"/>
</g>
<!-- D29&#45;&gt;D45 -->
<g id="edge40" class="edge">
<title>D29&#45;&gt;D45</title>
<path fill="none" stroke="black" d="M372.44,-277.87C387.08,-261.62 409.24,-237.02 425.78,-218.66"/>
<polygon fill="black" stroke="black" points="428.39,-220.99 432.49,-211.22 423.19,-216.3 428.39,-220.99"/>
</g>
<!-- D31 -->
<g id="node32" class="node">
<title>D31</title>
<polygon fill="none" stroke="black" points="562,-460 414.03,-442 562,-424 709.97,-442 562,-460"/>
<text text-anchor="middle" x="562" y="-438.3" font-family="Times,serif" font-size="14.00">(base == 8 || base == 16)?</text>
</g>
<!-- D30&#45;&gt;D31 -->
<g id="edge41" class="edge">
<title>D30:s&#45;&gt;D31:n</title>
<path fill="none" stroke="black" d="M588,-568C588,-568 545,-532 545,-532 545,-532 545,-496 545,-496 545,-496 552.67,-479.75 557.71,-469.08"/>
<polygon fill="black" stroke="black" points="560.89,-470.54 562,-460 554.57,-467.55 560.89,-470.54"/>
<text text-anchor="middle" x="539.5" y="-530.96" font-family="Times,serif" font-size="14.00">Y</text>
</g>
<!-- D36 -->
<g id="node37" class="node">
<title>D36</title>
<polygon fill="none" stroke="black" points="1097,-532 553.56,-514 1097,-496 1640.44,-514 1097,-532"/>
<text text-anchor="middle" x="1097" y="-510.3" font-family="Times,serif" font-size="14.00">(isblank(source_code[i]) || source_code[i] == 0 || is_valid_symbol_to_end_identifier(source_code[i]))?</text>
</g>
<!-- D30&#45;&gt;D36 -->
<g id="edge42" class="edge">
<title>D30:e&#45;&gt;D36:n</title>
<path fill="none" stroke="black" d="M724,-586C724,-586 1027.71,-542.03 1087.02,-533.44"/>
<polygon fill="black" stroke="black" points="1087.6,-536.9 1097,-532 1086.6,-529.97 1087.6,-536.9"/>
<text text-anchor="middle" x="900.01" y="-563.52" font-family="Times,serif" font-size="14.00">N</text>
</g>
<!-- D32 -->
<g id="node33" class="node">
<title>D32</title>
<polygon fill="none" stroke="black" points="1303,-387 867,-387 867,-351 1303,-351 1303,-387"/>
<text text-anchor="middle" x="1085" y="-365.3" font-family="Times,serif" font-size="14.00">sds msg = sdscatprintf(sdsempty(), &quot;float in oct and hex is not supported&quot;);</text>
</g>
<!-- D31&#45;&gt;D32 -->
<g id="edge43" class="edge">
<title>D31:s&#45;&gt;D32:n</title>
<path fill="none" stroke="black" d="M562,-424C562,-424 1002.71,-393.66 1075.02,-388.69"/>
<polygon fill="black" stroke="black" points="1075.26,-392.18 1085,-388 1074.78,-385.2 1075.26,-392.18"/>
<text text-anchor="middle" x="813.01" y="-410.14" font-family="Times,serif" font-size="14.00">Y</text>
</g>
<!-- D34 -->
<g id="node35" class="node">
<title>D34</title>
<polygon fill="none" stroke="black" points="669.5,-387 558.5,-387 558.5,-351 669.5,-351 669.5,-387"/>
<text text-anchor="middle" x="614" y="-365.3" font-family="Times,serif" font-size="14.00">is_double = true;</text>
</g>
<!-- D31&#45;&gt;D34 -->
<g id="edge44" class="edge">
<title>D31:e&#45;&gt;D34:n</title>
<path fill="none" stroke="black" d="M711,-442C711,-442 710,-424 710,-424 710,-424 647.84,-400.69 623.56,-391.58"/>
<polygon fill="black" stroke="black" points="624.59,-388.23 614,-388 622.13,-394.79 624.59,-388.23"/>
<text text-anchor="middle" x="669.72" y="-399.76" font-family="Times,serif" font-size="14.00">N</text>
</g>
<!-- D33 -->
<g id="node34" class="node">
<title>D33</title>
<polygon fill="none" stroke="black" points="1241,-108 1097,-108 1097,-72 1241,-72 1241,-108"/>
<text text-anchor="middle" x="1169" y="-86.3" font-family="Times,serif" font-size="14.00">return err_token(msg);</text>
</g>
<!-- D32&#45;&gt;D33 -->
<g id="edge45" class="edge">
<title>D32:s&#45;&gt;D33:n</title>
<path fill="none" stroke="black" d="M1085,-350C1085,-350 1150.18,-162.23 1165.71,-117.49"/>
<polygon fill="black" stroke="black" points="1169.03,-118.59 1169,-108 1162.41,-116.3 1169.03,-118.59"/>
</g>
<!-- D33&#45;&gt;D52 -->
<g id="edge46" class="edge">
<title>D33&#45;&gt;D52</title>
<path fill="none" stroke="black" d="M1241.15,-76.4C1326.77,-61.46 1466.25,-37.11 1532.62,-25.53"/>
<polygon fill="black" stroke="black" points="1533.38,-28.95 1542.63,-23.78 1532.17,-22.05 1533.38,-28.95"/>
</g>
<!-- D35 -->
<g id="node36" class="node">
<title>D35</title>
<polygon fill="none" stroke="black" points="596,-314 480,-314 480,-278 596,-278 596,-314"/>
<text text-anchor="middle" x="538" y="-292.3" font-family="Times,serif" font-size="14.00">v_double = v_int;</text>
</g>
<!-- D34&#45;&gt;D35 -->
<g id="edge47" class="edge">
<title>D34:s&#45;&gt;D35:n</title>
<path fill="none" stroke="black" d="M614,-350C614,-350 567.61,-328.03 547.32,-318.41"/>
<polygon fill="black" stroke="black" points="548.54,-315.12 538,-314 545.54,-321.44 548.54,-315.12"/>
</g>
<!-- D35&#45;&gt;D45 -->
<g id="edge48" class="edge">
<title>D35&#45;&gt;D45</title>
<path fill="none" stroke="black" d="M522.73,-277.87C508.38,-261.76 486.73,-237.46 470.41,-219.15"/>
<polygon fill="black" stroke="black" points="472.61,-216.35 463.34,-211.22 467.38,-221.01 472.61,-216.35"/>
</g>
<!-- D37 -->
<g id="node38" class="node">
<title>D37</title>
<polygon fill="none" stroke="black" points="1233,-460 1179,-460 1179,-424 1233,-424 1233,-460"/>
<text text-anchor="middle" x="1206" y="-438.3" font-family="Times,serif" font-size="14.00">break</text>
</g>
<!-- D36&#45;&gt;D37 -->
<g id="edge49" class="edge">
<title>D36:s&#45;&gt;D37:n</title>
<path fill="none" stroke="black" d="M1097,-496C1097,-496 1169.65,-472.01 1196.33,-463.19"/>
<polygon fill="black" stroke="black" points="1197.6,-466.46 1206,-460 1195.41,-459.81 1197.6,-466.46"/>
<text text-anchor="middle" x="1141.16" y="-483.4" font-family="Times,serif" font-size="14.00">Y</text>
</g>
<!-- D38 -->
<g id="node39" class="node">
<title>D38</title>
<polygon fill="none" stroke="black" points="1500,-460 1360.08,-442 1500,-424 1639.92,-442 1500,-460"/>
<text text-anchor="middle" x="1500" y="-438.3" font-family="Times,serif" font-size="14.00">(source_code[i] == &#39;L&#39;)?</text>
</g>
<!-- D36&#45;&gt;D38 -->
<g id="edge50" class="edge">
<title>D36:e&#45;&gt;D38:n</title>
<path fill="none" stroke="black" d="M1641,-514C1641,-514 1640,-496 1640,-496 1640,-496 1542.17,-470.84 1510.07,-462.59"/>
<polygon fill="black" stroke="black" points="1510.56,-459.1 1500,-460 1508.81,-465.88 1510.56,-459.1"/>
<text text-anchor="middle" x="1578.26" y="-485.34" font-family="Times,serif" font-size="14.00">N</text>
</g>
<!-- D37&#45;&gt;D46 -->
<g id="edge51" class="edge">
<title>D37&#45;&gt;D46</title>
<path fill="none" stroke="black" d="M1233.04,-429.43C1257.33,-419.05 1293.59,-403.54 1322.98,-390.97"/>
<polygon fill="black" stroke="black" points="1324.43,-394.15 1332.25,-387 1321.68,-387.71 1324.43,-394.15"/>
</g>
<!-- D39 -->
<g id="node40" class="node">
<title>D39</title>
<polygon fill="none" stroke="black" points="770,-387 690.9,-369 770,-351 849.1,-369 770,-387"/>
<text text-anchor="middle" x="770" y="-365.3" font-family="Times,serif" font-size="14.00">(is_double)?</text>
</g>
<!-- D38&#45;&gt;D39 -->
<g id="edge52" class="edge">
<title>D38:s&#45;&gt;D39:n</title>
<path fill="none" stroke="black" d="M1500,-424C1500,-424 867.72,-392.82 780.04,-388.5"/>
<polygon fill="black" stroke="black" points="780.16,-385 770,-388 779.82,-391.99 780.16,-385"/>
<text text-anchor="middle" x="1134.52" y="-410.05" font-family="Times,serif" font-size="14.00">Y</text>
</g>
<!-- D42 -->
<g id="node43" class="node">
<title>D42</title>
<polygon fill="none" stroke="black" points="2037,-388 1441,-388 1441,-350 2037,-350 2037,-388"/>
<text text-anchor="middle" x="1739" y="-372.8" font-family="Times,serif" font-size="14.00">sds err_msg = sdscatprintf(sdsempty(), &quot;unexpected &#39;%c&#39;, at line %d, column %d&quot;, source_code[i], line,</text>
<text text-anchor="middle" x="1739" y="-357.8" font-family="Times,serif" font-size="14.00"> &#160;&#160;&#160;&#160;&#160;&#160;&#160;&#160;&#160;&#160;&#160;&#160;&#160;&#160;&#160;&#160;&#160;&#160;&#160;&#160;&#160;&#160;&#160;&#160;&#160;&#160;&#160;&#160;&#160;&#160;&#160;&#160;&#160;&#160;&#160;&#160;&#160;&#160;&#160;&#160;&#160;&#160;column);</text>
</g>
<!-- D38&#45;&gt;D42 -->
<g id="edge53" class="edge">
<title>D38:e&#45;&gt;D42:n</title>
<path fill="none" stroke="black" d="M1641,-442C1641,-442 1705.7,-406.35 1729.96,-392.98"/>
<polygon fill="black" stroke="black" points="1731.93,-395.89 1739,-388 1728.55,-389.76 1731.93,-395.89"/>
<text text-anchor="middle" x="1679.98" y="-421.29" font-family="Times,serif" font-size="14.00">N</text>
</g>
<!-- D40 -->
<g id="node41" class="node">
<title>D40</title>
<polygon fill="none" stroke="black" points="930,-314 614,-314 614,-278 930,-278 930,-314"/>
<text text-anchor="middle" x="772" y="-292.3" font-family="Times,serif" font-size="14.00">sds msg = sdscatprintf(sdsempty(), &quot;unexpected &#39;L&#39;&quot;);</text>
</g>
<!-- D39&#45;&gt;D40 -->
<g id="edge54" class="edge">
<title>D39:s&#45;&gt;D40:n</title>
<path fill="none" stroke="black" d="M770,-350C770,-350 770.84,-334.86 771.43,-324.22"/>
<polygon fill="black" stroke="black" points="774.94,-324.18 772,-314 767.95,-323.79 774.94,-324.18"/>
<text text-anchor="middle" x="765.22" y="-325.91" font-family="Times,serif" font-size="14.00">Y</text>
</g>
<!-- D41 -->
<g id="node42" class="node">
<title>D41</title>
<polygon fill="none" stroke="black" points="1065.5,-314 948.5,-314 948.5,-278 1065.5,-278 1065.5,-314"/>
<text text-anchor="middle" x="1007" y="-292.3" font-family="Times,serif" font-size="14.00">is_long_lit = true;</text>
</g>
<!-- D39&#45;&gt;D41 -->
<g id="edge55" class="edge">
<title>D39:e&#45;&gt;D41:n</title>
<path fill="none" stroke="black" d="M850,-369C850,-369 858,-350 858,-350 858,-350 964.08,-324.37 997.22,-316.36"/>
<polygon fill="black" stroke="black" points="998.1,-319.75 1007,-314 996.46,-312.95 998.1,-319.75"/>
<text text-anchor="middle" x="912.09" y="-339.4" font-family="Times,serif" font-size="14.00">N</text>
</g>
<!-- D40&#45;&gt;D45 -->
<g id="edge56" class="edge">
<title>D40&#45;&gt;D45</title>
<path fill="none" stroke="black" d="M717.4,-277.98C651.22,-257.35 541.52,-223.15 484.67,-205.43"/>
<polygon fill="black" stroke="black" points="485.62,-202.06 475.03,-202.43 483.53,-208.74 485.62,-202.06"/>
</g>
<!-- D41&#45;&gt;D45 -->
<g id="edge57" class="edge">
<title>D41&#45;&gt;D45</title>
<path fill="none" stroke="black" d="M948.46,-280.36C942.74,-278.93 939,-278 939,-278 939,-278 599.56,-219.93 485.14,-200.35"/>
<polygon fill="black" stroke="black" points="485.54,-196.87 475.1,-198.64 484.36,-203.77 485.54,-196.87"/>
</g>
<!-- D43 -->
<g id="node44" class="node">
<title>D43</title>
<polygon fill="none" stroke="black" points="1790,-314 1688,-314 1688,-278 1790,-278 1790,-314"/>
<text text-anchor="middle" x="1739" y="-292.3" font-family="Times,serif" font-size="14.00">*skips = i &#45; ptr;</text>
</g>
<!-- D42&#45;&gt;D43 -->
<g id="edge58" class="edge">
<title>D42:s&#45;&gt;D43:n</title>
<path fill="none" stroke="black" d="M1739,-350C1739,-350 1739,-334.86 1739,-324.22"/>
<polygon fill="black" stroke="black" points="1742.5,-324 1739,-314 1735.5,-324 1742.5,-324"/>
</g>
<!-- D44 -->
<g id="node45" class="node">
<title>D44</title>
<polygon fill="none" stroke="black" points="1822,-108 1656,-108 1656,-72 1822,-72 1822,-108"/>
<text text-anchor="middle" x="1739" y="-86.3" font-family="Times,serif" font-size="14.00">return err_token(err_msg);</text>
</g>
<!-- D43&#45;&gt;D44 -->
<g id="edge59" class="edge">
<title>D43:s&#45;&gt;D44:n</title>
<path fill="none" stroke="black" d="M1739,-278C1739,-278 1739,-154.72 1739,-118.13"/>
<polygon fill="black" stroke="black" points="1742.5,-118 1739,-108 1735.5,-118 1742.5,-118"/>
</g>
<!-- D44&#45;&gt;D52 -->
<g id="edge60" class="edge">
<title>D44&#45;&gt;D52</title>
<path fill="none" stroke="black" d="M1697.66,-71.88C1669.81,-60.34 1633.41,-45.26 1606.61,-34.16"/>
<polygon fill="black" stroke="black" points="1607.78,-30.86 1597.2,-30.27 1605.1,-37.33 1607.78,-30.86"/>
</g>
<!-- D45&#45;&gt;D18 -->
<g id="edge61" class="edge">
<title>D45&#45;&gt;D18</title>
<path fill="none" stroke="black" d="M420.84,-203.88C326.54,-238.17 19,-350 19,-350 19,-350 0,-368 0,-368 0,-875 0,-875 0,-875 0,-875 766,-964 766,-964 766,-964 1211.61,-1000.22 1366.05,-1012.78"/>
<polygon fill="black" stroke="black" points="1365.97,-1016.28 1376.22,-1013.6 1366.54,-1009.31 1365.97,-1016.28"/>
</g>
<!-- D47 -->
<g id="node48" class="node">
<title>D47</title>
<polygon fill="none" stroke="black" points="1372,-314 1292.9,-296 1372,-278 1451.1,-296 1372,-314"/>
<text text-anchor="middle" x="1372" y="-292.3" font-family="Times,serif" font-size="14.00">(is_double)?</text>
</g>
<!-- D46&#45;&gt;D47 -->
<g id="edge62" class="edge">
<title>D46:s&#45;&gt;D47:n</title>
<path fill="none" stroke="black" d="M1372,-350C1372,-350 1372,-334.86 1372,-324.22"/>
<polygon fill="black" stroke="black" points="1375.5,-324 1372,-314 1368.5,-324 1375.5,-324"/>
</g>
<!-- D48 -->
<g id="node49" class="node">
<title>D48</title>
<polygon fill="none" stroke="black" points="1414,-242 1204,-242 1204,-144 1414,-144 1414,-242"/>
<text text-anchor="middle" x="1309" y="-226.8" font-family="Times,serif" font-size="14.00">struct Token res = {</text>
<text text-anchor="middle" x="1309" y="-211.8" font-family="Times,serif" font-size="14.00"> &#160;&#160;&#160;&#160;&#160;&#160;&#160;&#160;&#160;&#160;&#160;&#160;&#160;&#160;&#160;.column_num = column,</text>
<text text-anchor="middle" x="1309" y="-196.8" font-family="Times,serif" font-size="14.00"> &#160;&#160;&#160;&#160;&#160;&#160;&#160;&#160;&#160;&#160;&#160;&#160;&#160;&#160;&#160;.line_num = line,</text>
<text text-anchor="middle" x="1309" y="-181.8" font-family="Times,serif" font-size="14.00"> &#160;&#160;&#160;&#160;&#160;&#160;&#160;&#160;&#160;&#160;&#160;&#160;&#160;&#160;&#160;.type = FloatLit,</text>
<text text-anchor="middle" x="1309" y="-166.8" font-family="Times,serif" font-size="14.00"> &#160;&#160;&#160;&#160;&#160;&#160;&#160;&#160;&#160;&#160;&#160;&#160;&#160;&#160;&#160;.v.f = v_double,</text>
<text text-anchor="middle" x="1309" y="-151.8" font-family="Times,serif" font-size="14.00"> &#160;&#160;&#160;&#160;&#160;&#160;&#160;};</text>
</g>
<!-- D47&#45;&gt;D48 -->
<g id="edge63" class="edge">
<title>D47:s&#45;&gt;D48:n</title>
<path fill="none" stroke="black" d="M1372,-278C1372,-278 1335.07,-256.9 1317.76,-247.01"/>
<polygon fill="black" stroke="black" points="1319.42,-243.92 1309,-242 1315.95,-250 1319.42,-243.92"/>
<text text-anchor="middle" x="1339.38" y="-266.3" font-family="Times,serif" font-size="14.00">Y</text>
</g>
<!-- D50 -->
<g id="node51" class="node">
<title>D50</title>
<polygon fill="none" stroke="black" points="1709.5,-242 1432.5,-242 1432.5,-144 1709.5,-144 1709.5,-242"/>
<text text-anchor="middle" x="1571" y="-226.8" font-family="Times,serif" font-size="14.00">struct Token res = {</text>
<text text-anchor="middle" x="1571" y="-211.8" font-family="Times,serif" font-size="14.00"> &#160;&#160;&#160;&#160;&#160;&#160;&#160;&#160;&#160;&#160;&#160;&#160;&#160;&#160;&#160;.column_num = column,</text>
<text text-anchor="middle" x="1571" y="-196.8" font-family="Times,serif" font-size="14.00"> &#160;&#160;&#160;&#160;&#160;&#160;&#160;&#160;&#160;&#160;&#160;&#160;&#160;&#160;&#160;.line_num = line,</text>
<text text-anchor="middle" x="1571" y="-181.8" font-family="Times,serif" font-size="14.00"> &#160;&#160;&#160;&#160;&#160;&#160;&#160;&#160;&#160;&#160;&#160;&#160;&#160;&#160;&#160;.type = is_long_lit ? LongLit: IntLit,</text>
<text text-anchor="middle" x="1571" y="-166.8" font-family="Times,serif" font-size="14.00"> &#160;&#160;&#160;&#160;&#160;&#160;&#160;&#160;&#160;&#160;&#160;&#160;&#160;&#160;&#160;.v.v = v_int,</text>
<text text-anchor="middle" x="1571" y="-151.8" font-family="Times,serif" font-size="14.00"> &#160;&#160;&#160;&#160;&#160;&#160;&#160;};</text>
</g>
<!-- D47&#45;&gt;D50 -->
<g id="edge64" class="edge">
<title>D47:e&#45;&gt;D50:n</title>
<path fill="none" stroke="black" d="M1452,-296C1452,-296 1533.61,-258.97 1561.66,-246.24"/>
<polygon fill="black" stroke="black" points="1563.34,-249.32 1571,-242 1560.45,-242.95 1563.34,-249.32"/>
<text text-anchor="middle" x="1501.33" y="-274.92" font-family="Times,serif" font-size="14.00">N</text>
</g>
<!-- D49 -->
<g id="node50" class="node">
<title>D49</title>
<polygon fill="none" stroke="black" points="1454.5,-108 1319.5,-108 1319.5,-72 1454.5,-72 1454.5,-108"/>
<text text-anchor="middle" x="1387" y="-86.3" font-family="Times,serif" font-size="14.00">return ok_token(res);</text>
</g>
<!-- D48&#45;&gt;D49 -->
<g id="edge65" class="edge">
<title>D48:s&#45;&gt;D49:n</title>
<path fill="none" stroke="black" d="M1309,-144C1309,-144 1357.08,-121.81 1377.75,-112.27"/>
<polygon fill="black" stroke="black" points="1379.39,-115.37 1387,-108 1376.45,-109.01 1379.39,-115.37"/>
</g>
<!-- D49&#45;&gt;D52 -->
<g id="edge66" class="edge">
<title>D49&#45;&gt;D52</title>
<path fill="none" stroke="black" d="M1431.77,-71.88C1463.04,-59.91 1504.28,-44.14 1533.55,-32.94"/>
<polygon fill="black" stroke="black" points="1534.9,-36.17 1542.99,-29.33 1532.4,-29.64 1534.9,-36.17"/>
</g>
<!-- D51 -->
<g id="node52" class="node">
<title>D51</title>
<polygon fill="none" stroke="black" points="1637.5,-108 1502.5,-108 1502.5,-72 1637.5,-72 1637.5,-108"/>
<text text-anchor="middle" x="1570" y="-86.3" font-family="Times,serif" font-size="14.00">return ok_token(res);</text>
</g>
<!-- D50&#45;&gt;D51 -->
<g id="edge67" class="edge">
<title>D50:s&#45;&gt;D51:n</title>
<path fill="none" stroke="black" d="M1571,-144C1571,-144 1570.58,-128.86 1570.28,-118.22"/>
<polygon fill="black" stroke="black" points="1573.78,-117.9 1570,-108 1566.78,-118.09 1573.78,-117.9"/>
</g>
<!-- D51&#45;&gt;D52 -->
<g id="edge68" class="edge">
<title>D51&#45;&gt;D52</title>
<path fill="none" stroke="black" d="M1570,-71.7C1570,-63.98 1570,-54.71 1570,-46.11"/>
<polygon fill="black" stroke="black" points="1573.5,-46.1 1570,-36.1 1566.5,-46.1 1573.5,-46.1"/>
</g>
</g>
</svg>
