<?xml version="1.0" encoding="UTF-8" standalone="no"?>
<!DOCTYPE svg PUBLIC "-//W3C//DTD SVG 1.1//EN"
 "http://www.w3.org/Graphics/SVG/1.1/DTD/svg11.dtd">
<!-- Generated by graphviz version 2.50.0 (0)
 -->
<!-- Pages: 1 -->
<svg width="2096pt" height="2052pt"
 viewBox="0.00 0.00 2096.00 2052.00" xmlns="http://www.w3.org/2000/svg" xmlns:xlink="http://www.w3.org/1999/xlink">
<g id="graph0" class="graph" transform="scale(1 1) rotate(0) translate(4 2048)">
<polygon fill="white" stroke="transparent" points="-4,4 -4,-2048 2092,-2048 2092,4 -4,4"/>
<!-- D0 -->
<g id="node1" class="node">
<title>D0</title>
<path fill="none" stroke="black" d="M1967,-2044C1967,-2044 1937,-2044 1937,-2044 1931,-2044 1925,-2038 1925,-2032 1925,-2032 1925,-2020 1925,-2020 1925,-2014 1931,-2008 1937,-2008 1937,-2008 1967,-2008 1967,-2008 1973,-2008 1979,-2014 1979,-2020 1979,-2020 1979,-2032 1979,-2032 1979,-2038 1973,-2044 1967,-2044"/>
<text text-anchor="middle" x="1952" y="-2022.3" font-family="Times,serif" font-size="14.00">begin</text>
</g>
<!-- D4 -->
<g id="node3" class="node">
<title>D4</title>
<polygon fill="none" stroke="black" points="1996.5,-1972 1907.5,-1972 1907.5,-1936 1996.5,-1936 1996.5,-1972"/>
<text text-anchor="middle" x="1952" y="-1950.3" font-family="Times,serif" font-size="14.00">int v_int = 0;</text>
</g>
<!-- D0&#45;&gt;D4 -->
<g id="edge68" class="edge">
<title>D0&#45;&gt;D4</title>
<path fill="none" stroke="black" d="M1952,-2007.7C1952,-1999.98 1952,-1990.71 1952,-1982.11"/>
<polygon fill="black" stroke="black" points="1955.5,-1982.1 1952,-1972.1 1948.5,-1982.1 1955.5,-1982.1"/>
</g>
<!-- D1 -->
<g id="node2" class="node">
<title>D1</title>
<path fill="none" stroke="black" d="M1558,-36C1558,-36 1528,-36 1528,-36 1522,-36 1516,-30 1516,-24 1516,-24 1516,-12 1516,-12 1516,-6 1522,0 1528,0 1528,0 1558,0 1558,0 1564,0 1570,-6 1570,-12 1570,-12 1570,-24 1570,-24 1570,-30 1564,-36 1558,-36"/>
<text text-anchor="middle" x="1543" y="-14.3" font-family="Times,serif" font-size="14.00">end</text>
</g>
<!-- D6 -->
<g id="node4" class="node">
<title>D6</title>
<polygon fill="none" stroke="black" points="2019,-1900 1885,-1900 1885,-1864 2019,-1864 2019,-1900"/>
<text text-anchor="middle" x="1952" y="-1878.3" font-family="Times,serif" font-size="14.00">double v_double = 0;</text>
</g>
<!-- D4&#45;&gt;D6 -->
<g id="edge1" class="edge">
<title>D4&#45;&gt;D6</title>
<path fill="none" stroke="black" d="M1952,-1935.7C1952,-1927.98 1952,-1918.71 1952,-1910.11"/>
<polygon fill="black" stroke="black" points="1955.5,-1910.1 1952,-1900.1 1948.5,-1910.1 1955.5,-1910.1"/>
</g>
<!-- D8 -->
<g id="node5" class="node">
<title>D8</title>
<polygon fill="none" stroke="black" points="2076,-1828 1828,-1828 1828,-1792 2076,-1792 2076,-1828"/>
<text text-anchor="middle" x="1952" y="-1806.3" font-family="Times,serif" font-size="14.00">bool is_double = false, is_long_lit = false;</text>
</g>
<!-- D6&#45;&gt;D8 -->
<g id="edge2" class="edge">
<title>D6&#45;&gt;D8</title>
<path fill="none" stroke="black" d="M1952,-1863.7C1952,-1855.98 1952,-1846.71 1952,-1838.11"/>
<polygon fill="black" stroke="black" points="1955.5,-1838.1 1952,-1828.1 1948.5,-1838.1 1955.5,-1838.1"/>
</g>
<!-- D10 -->
<g id="node6" class="node">
<title>D10</title>
<polygon fill="none" stroke="black" points="2042.5,-1756 1861.5,-1756 1861.5,-1720 2042.5,-1720 2042.5,-1756"/>
<text text-anchor="middle" x="1952" y="-1734.3" font-family="Times,serif" font-size="14.00">int len = sdslen(source_code);</text>
</g>
<!-- D8&#45;&gt;D10 -->
<g id="edge3" class="edge">
<title>D8&#45;&gt;D10</title>
<path fill="none" stroke="black" d="M1952,-1791.7C1952,-1783.98 1952,-1774.71 1952,-1766.11"/>
<polygon fill="black" stroke="black" points="1955.5,-1766.1 1952,-1756.1 1948.5,-1766.1 1955.5,-1766.1"/>
</g>
<!-- D12 -->
<g id="node7" class="node">
<title>D12</title>
<polygon fill="none" stroke="black" points="2035.5,-1684 1868.5,-1684 1868.5,-1648 2035.5,-1648 2035.5,-1684"/>
<text text-anchor="middle" x="1952" y="-1662.3" font-family="Times,serif" font-size="14.00">int i = ptr, double_cnt = &#45;1;</text>
</g>
<!-- D10&#45;&gt;D12 -->
<g id="edge4" class="edge">
<title>D10&#45;&gt;D12</title>
<path fill="none" stroke="black" d="M1952,-1719.7C1952,-1711.98 1952,-1702.71 1952,-1694.11"/>
<polygon fill="black" stroke="black" points="1955.5,-1694.1 1952,-1684.1 1948.5,-1694.1 1955.5,-1694.1"/>
</g>
<!-- D14 -->
<g id="node8" class="node">
<title>D14</title>
<polygon fill="none" stroke="black" points="1998,-1612 1906,-1612 1906,-1576 1998,-1576 1998,-1612"/>
<text text-anchor="middle" x="1952" y="-1590.3" font-family="Times,serif" font-size="14.00">int base = 10;</text>
</g>
<!-- D12&#45;&gt;D14 -->
<g id="edge5" class="edge">
<title>D12&#45;&gt;D14</title>
<path fill="none" stroke="black" d="M1952,-1647.7C1952,-1639.98 1952,-1630.71 1952,-1622.11"/>
<polygon fill="black" stroke="black" points="1955.5,-1622.1 1952,-1612.1 1948.5,-1622.1 1955.5,-1622.1"/>
</g>
<!-- D16 -->
<g id="node9" class="node">
<title>D16</title>
<polygon fill="none" stroke="black" points="1952,-1540 1816.77,-1522 1952,-1504 2087.23,-1522 1952,-1540"/>
<text text-anchor="middle" x="1952" y="-1518.3" font-family="Times,serif" font-size="14.00">(source_code[i] == &#39;0&#39;)?</text>
</g>
<!-- D14&#45;&gt;D16 -->
<g id="edge6" class="edge">
<title>D14&#45;&gt;D16</title>
<path fill="none" stroke="black" d="M1952,-1575.7C1952,-1567.98 1952,-1558.71 1952,-1550.11"/>
<polygon fill="black" stroke="black" points="1955.5,-1550.1 1952,-1540.1 1948.5,-1550.1 1955.5,-1550.1"/>
</g>
<!-- D21 -->
<g id="node10" class="node">
<title>D21</title>
<polygon fill="none" stroke="black" points="1952,-1468 1869.05,-1450 1952,-1432 2034.95,-1450 1952,-1468"/>
<text text-anchor="middle" x="1952" y="-1446.3" font-family="Times,serif" font-size="14.00">(i + 1 &lt; len)?</text>
</g>
<!-- D16&#45;&gt;D21 -->
<g id="edge19" class="edge">
<title>D16:s&#45;&gt;D21:n</title>
<path fill="none" stroke="black" d="M1952,-1504C1952,-1504 1952,-1488.86 1952,-1478.22"/>
<polygon fill="black" stroke="black" points="1955.5,-1478 1952,-1468 1948.5,-1478 1955.5,-1478"/>
<text text-anchor="middle" x="1947" y="-1479.91" font-family="Times,serif" font-size="14.00">Y</text>
</g>
<!-- D58 -->
<g id="node20" class="node">
<title>D58</title>
<polygon fill="none" stroke="black" points="1397,-1036 1342.54,-1018 1397,-1000 1451.46,-1018 1397,-1036"/>
<text text-anchor="middle" x="1397" y="-1014.3" font-family="Times,serif" font-size="14.00">i &lt; len?</text>
</g>
<!-- D16&#45;&gt;D58 -->
<g id="edge60" class="edge">
<title>D16:e&#45;&gt;D58:n</title>
<path fill="none" stroke="black" d="M2088,-1522C2088,-1522 2087,-1379 2087,-1379 2087,-1379 2087,-1379 2087,-1161 2087,-1161 2063,-1144 2063,-1144 2063,-1144 1728,-1072 1728,-1072 1728,-1072 1463.14,-1043.19 1407.27,-1037.12"/>
<polygon fill="black" stroke="black" points="1407.32,-1033.6 1397,-1036 1406.56,-1040.56 1407.32,-1033.6"/>
<text text-anchor="middle" x="1923.64" y="-1118.92" font-family="Times,serif" font-size="14.00">N</text>
</g>
<!-- D26 -->
<g id="node11" class="node">
<title>D26</title>
<polygon fill="none" stroke="black" points="1271,-1396 1068.57,-1378 1271,-1360 1473.43,-1378 1271,-1396"/>
<text text-anchor="middle" x="1271" y="-1374.3" font-family="Times,serif" font-size="14.00">(tolower(source_code[i + 1]) == &#39;x&#39;)?</text>
</g>
<!-- D21&#45;&gt;D26 -->
<g id="edge18" class="edge">
<title>D21:s&#45;&gt;D26:n</title>
<path fill="none" stroke="black" d="M1952,-1432C1952,-1432 1365.87,-1401.02 1281.16,-1396.54"/>
<polygon fill="black" stroke="black" points="1281.17,-1393.03 1271,-1396 1280.8,-1400.02 1281.17,-1393.03"/>
<text text-anchor="middle" x="1611.58" y="-1418.07" font-family="Times,serif" font-size="14.00">Y</text>
</g>
<!-- D21&#45;&gt;D58 -->
<g id="edge63" class="edge">
<title>D21:e&#45;&gt;D58:n</title>
<path fill="none" stroke="black" d="M2036,-1450C2036,-1450 2049,-1307 2049,-1307 2049,-1307 2049,-1307 2049,-1161 2049,-1161 2030,-1144 2030,-1144 2030,-1144 1487.47,-1051.44 1406.94,-1037.7"/>
<polygon fill="black" stroke="black" points="1407.45,-1034.23 1397,-1036 1406.27,-1041.13 1407.45,-1034.23"/>
<text text-anchor="middle" x="1868.77" y="-1121.14" font-family="Times,serif" font-size="14.00">N</text>
</g>
<!-- D31 -->
<g id="node12" class="node">
<title>D31</title>
<polygon fill="none" stroke="black" points="1012,-1324 938,-1324 938,-1288 1012,-1288 1012,-1324"/>
<text text-anchor="middle" x="975" y="-1302.3" font-family="Times,serif" font-size="14.00">base = 16;</text>
</g>
<!-- D26&#45;&gt;D31 -->
<g id="edge9" class="edge">
<title>D26:s&#45;&gt;D31:n</title>
<path fill="none" stroke="black" d="M1271,-1360C1271,-1360 1037.24,-1331.57 985.19,-1325.24"/>
<polygon fill="black" stroke="black" points="985.35,-1321.73 975,-1324 984.5,-1328.68 985.35,-1321.73"/>
<text text-anchor="middle" x="1123.09" y="-1346.42" font-family="Times,serif" font-size="14.00">Y</text>
</g>
<!-- D35 -->
<g id="node14" class="node">
<title>D35</title>
<polygon fill="none" stroke="black" points="1473,-1324 1029.93,-1306 1473,-1288 1916.07,-1306 1473,-1324"/>
<text text-anchor="middle" x="1473" y="-1302.3" font-family="Times,serif" font-size="14.00">(source_code[i + 1] == &#39;.&#39; || is_valid_symbol_to_end_identifier(source_code[i + 1]))?</text>
</g>
<!-- D26&#45;&gt;D35 -->
<g id="edge8" class="edge">
<title>D26:e&#45;&gt;D35:n</title>
<path fill="none" stroke="black" d="M1474,-1378C1474,-1378 1473.48,-1350.1 1473.19,-1334.41"/>
<polygon fill="black" stroke="black" points="1476.68,-1333.93 1473,-1324 1469.69,-1334.06 1476.68,-1333.93"/>
<text text-anchor="middle" x="1468.6" y="-1345.01" font-family="Times,serif" font-size="14.00">N</text>
</g>
<!-- D33 -->
<g id="node13" class="node">
<title>D33</title>
<polygon fill="none" stroke="black" points="1170.5,-1252 1115.5,-1252 1115.5,-1216 1170.5,-1216 1170.5,-1252"/>
<text text-anchor="middle" x="1143" y="-1230.3" font-family="Times,serif" font-size="14.00">i += 2;</text>
</g>
<!-- D31&#45;&gt;D33 -->
<g id="edge7" class="edge">
<title>D31&#45;&gt;D33</title>
<path fill="none" stroke="black" d="M1012.28,-1289.46C1040.22,-1277.83 1078.25,-1261.98 1106.09,-1250.38"/>
<polygon fill="black" stroke="black" points="1107.59,-1253.54 1115.48,-1246.47 1104.9,-1247.08 1107.59,-1253.54"/>
</g>
<!-- D33&#45;&gt;D58 -->
<g id="edge64" class="edge">
<title>D33&#45;&gt;D58</title>
<path fill="none" stroke="black" d="M1163.36,-1215.85C1210.32,-1176.28 1325.94,-1078.87 1374.72,-1037.77"/>
<polygon fill="black" stroke="black" points="1377.09,-1040.35 1382.49,-1031.23 1372.58,-1035 1377.09,-1040.35"/>
</g>
<!-- D41 -->
<g id="node15" class="node">
<title>D41</title>
<polygon fill="none" stroke="black" points="1588,-1252 1425.12,-1234 1588,-1216 1750.88,-1234 1588,-1252"/>
<text text-anchor="middle" x="1588" y="-1230.3" font-family="Times,serif" font-size="14.00">(isdigit(source_code[i + 1]))?</text>
</g>
<!-- D35&#45;&gt;D41 -->
<g id="edge10" class="edge">
<title>D35:e&#45;&gt;D41:n</title>
<path fill="none" stroke="black" d="M1917,-1306C1917,-1306 1916,-1288 1916,-1288 1916,-1288 1653.54,-1259.19 1598.18,-1253.12"/>
<polygon fill="black" stroke="black" points="1598.32,-1249.61 1588,-1252 1597.56,-1256.57 1598.32,-1249.61"/>
<text text-anchor="middle" x="1761.05" y="-1275.34" font-family="Times,serif" font-size="14.00">N</text>
</g>
<!-- D35&#45;&gt;D58 -->
<g id="edge66" class="edge">
<title>D35:s&#45;&gt;D58:n</title>
<path fill="none" stroke="black" d="M1473,-1288C1473,-1288 1416,-1252 1416,-1252 1416,-1252 1386,-1180 1386,-1180 1386,-1180 1386,-1144 1386,-1144 1386,-1144 1390,-1072 1390,-1072 1390,-1072 1393.01,-1056.5 1395.09,-1045.84"/>
<polygon fill="black" stroke="black" points="1398.53,-1046.48 1397,-1036 1391.66,-1045.15 1398.53,-1046.48"/>
<text text-anchor="middle" x="1383.05" y="-1188.72" font-family="Times,serif" font-size="14.00">Y</text>
</g>
<!-- D46 -->
<g id="node16" class="node">
<title>D46</title>
<polygon fill="none" stroke="black" points="1462.5,-1180 1395.5,-1180 1395.5,-1144 1462.5,-1144 1462.5,-1180"/>
<text text-anchor="middle" x="1429" y="-1158.3" font-family="Times,serif" font-size="14.00">base = 8;</text>
</g>
<!-- D41&#45;&gt;D46 -->
<g id="edge13" class="edge">
<title>D41:s&#45;&gt;D46:n</title>
<path fill="none" stroke="black" d="M1588,-1216C1588,-1216 1473.76,-1190.13 1438.95,-1182.25"/>
<polygon fill="black" stroke="black" points="1439.53,-1178.79 1429,-1180 1437.98,-1185.62 1439.53,-1178.79"/>
<text text-anchor="middle" x="1508.47" y="-1202.93" font-family="Times,serif" font-size="14.00">Y</text>
</g>
<!-- D52 -->
<g id="node18" class="node">
<title>D52</title>
<polygon fill="none" stroke="black" points="2021,-1180 1481,-1180 1481,-1144 2021,-1144 2021,-1180"/>
<text text-anchor="middle" x="1751" y="-1158.3" font-family="Times,serif" font-size="14.00">sds msg = sdscatprintf(sdsempty() ,&quot;expecting hex or oct lit, but get &#39;%c&#39;&quot;, source_code[i + 1]);</text>
</g>
<!-- D41&#45;&gt;D52 -->
<g id="edge14" class="edge">
<title>D41:e&#45;&gt;D52:n</title>
<path fill="none" stroke="black" d="M1752,-1234C1752,-1234 1751.48,-1206.1 1751.19,-1190.41"/>
<polygon fill="black" stroke="black" points="1754.68,-1189.93 1751,-1180 1747.69,-1190.06 1754.68,-1189.93"/>
<text text-anchor="middle" x="1746.6" y="-1201.01" font-family="Times,serif" font-size="14.00">N</text>
</g>
<!-- D48 -->
<g id="node17" class="node">
<title>D48</title>
<polygon fill="none" stroke="black" points="1453,-1108 1399,-1108 1399,-1072 1453,-1072 1453,-1108"/>
<text text-anchor="middle" x="1426" y="-1086.3" font-family="Times,serif" font-size="14.00">i++;</text>
</g>
<!-- D46&#45;&gt;D48 -->
<g id="edge11" class="edge">
<title>D46&#45;&gt;D48</title>
<path fill="none" stroke="black" d="M1428.26,-1143.7C1427.93,-1135.98 1427.53,-1126.71 1427.16,-1118.11"/>
<polygon fill="black" stroke="black" points="1430.66,-1117.95 1426.73,-1108.1 1423.66,-1118.25 1430.66,-1117.95"/>
</g>
<!-- D48&#45;&gt;D58 -->
<g id="edge65" class="edge">
<title>D48&#45;&gt;D58</title>
<path fill="none" stroke="black" d="M1418.83,-1071.7C1415.33,-1063.25 1411.06,-1052.94 1407.23,-1043.69"/>
<polygon fill="black" stroke="black" points="1410.36,-1042.1 1403.3,-1034.2 1403.89,-1044.78 1410.36,-1042.1"/>
</g>
<!-- D54 -->
<g id="node19" class="node">
<title>D54</title>
<polygon fill="none" stroke="black" points="2032,-1036 1892,-1036 1892,-1000 2032,-1000 2032,-1036"/>
<text text-anchor="middle" x="1962" y="-1014.3" font-family="Times,serif" font-size="14.00">return err_token(msg);</text>
</g>
<!-- D52&#45;&gt;D54 -->
<g id="edge12" class="edge">
<title>D52&#45;&gt;D54</title>
<path fill="none" stroke="black" d="M1776.45,-1143.87C1814.39,-1118.34 1885.84,-1070.25 1928.15,-1041.78"/>
<polygon fill="black" stroke="black" points="1930.12,-1044.68 1936.46,-1036.19 1926.21,-1038.87 1930.12,-1044.68"/>
</g>
<!-- D54&#45;&gt;D1 -->
<g id="edge17" class="edge">
<title>D54&#45;&gt;D1</title>
<path fill="none" stroke="black" d="M1970.44,-999.87C1989.06,-962.1 2032,-875 2032,-875 2032,-875 2032,-875 2032,-192 2032,-192 1799,-72 1799,-72 1799,-72 1651.32,-41.43 1580.29,-26.72"/>
<polygon fill="black" stroke="black" points="1580.9,-23.27 1570.4,-24.67 1579.48,-30.13 1580.9,-23.27"/>
</g>
<!-- D63 -->
<g id="node22" class="node">
<title>D63</title>
<polygon fill="none" stroke="black" points="945,-964 829,-964 829,-928 945,-928 945,-964"/>
<text text-anchor="middle" x="887" y="-942.3" font-family="Times,serif" font-size="14.00">bool valid = false;</text>
</g>
<!-- D58&#45;&gt;D63 -->
<g id="edge56" class="edge">
<title>D58:s&#45;&gt;D63:n</title>
<path fill="none" stroke="black" d="M1397,-1000C1397,-1000 969.07,-969.79 897.19,-964.72"/>
<polygon fill="black" stroke="black" points="897.22,-961.21 887,-964 896.73,-968.2 897.22,-961.21"/>
<text text-anchor="middle" x="1142.09" y="-986.16" font-family="Times,serif" font-size="14.00">Y</text>
</g>
<!-- D152 -->
<g id="node48" class="node">
<title>D152</title>
<polygon fill="none" stroke="black" points="1397.5,-387 1296.5,-387 1296.5,-351 1397.5,-351 1397.5,-387"/>
<text text-anchor="middle" x="1347" y="-365.3" font-family="Times,serif" font-size="14.00">*skips = i &#45; ptr;</text>
</g>
<!-- D58&#45;&gt;D152 -->
<g id="edge16" class="edge">
<title>D58:e&#45;&gt;D152:n</title>
<path fill="none" stroke="black" d="M1452,-1018C1452,-1018 1617,-875 1617,-875 1617,-875 1617,-875 1617,-513 1617,-513 1598,-424 1598,-424 1598,-424 1404.11,-396.19 1357.15,-389.46"/>
<polygon fill="black" stroke="black" points="1357.4,-385.96 1347,-388 1356.4,-392.88 1357.4,-385.96"/>
<text text-anchor="middle" x="1612" y="-639.81" font-family="Times,serif" font-size="14.00">N</text>
</g>
<!-- D60 -->
<g id="node21" class="node">
<title>D60</title>
<polygon fill="none" stroke="black" points="462,-211 408,-211 408,-175 462,-175 462,-211"/>
<text text-anchor="middle" x="435" y="-189.3" font-family="Times,serif" font-size="14.00">++i</text>
</g>
<!-- D60&#45;&gt;D58 -->
<g id="edge21" class="edge">
<title>D60&#45;&gt;D58</title>
<path fill="none" stroke="black" d="M407.71,-204.24C315.16,-238.94 19,-350 19,-350 19,-350 0,-368 0,-368 0,-875 0,-875 0,-875 0,-875 820,-964 820,-964 820,-964 1205.55,-999.41 1346.33,-1012.35"/>
<polygon fill="black" stroke="black" points="1346.15,-1015.84 1356.43,-1013.27 1346.79,-1008.87 1346.15,-1015.84"/>
</g>
<!-- D65 -->
<g id="node23" class="node">
<title>D65</title>
<polygon fill="none" stroke="black" points="721,-892 635.54,-874 721,-856 806.46,-874 721,-892"/>
<text text-anchor="middle" x="721" y="-870.3" font-family="Times,serif" font-size="14.00">(base == 10)?</text>
</g>
<!-- D63&#45;&gt;D65 -->
<g id="edge20" class="edge">
<title>D63&#45;&gt;D65</title>
<path fill="none" stroke="black" d="M846.39,-927.88C819.12,-916.38 783.51,-901.36 757.2,-890.27"/>
<polygon fill="black" stroke="black" points="758.54,-887.03 747.97,-886.37 755.82,-893.48 758.54,-887.03"/>
</g>
<!-- D70 -->
<g id="node24" class="node">
<title>D70</title>
<polygon fill="none" stroke="black" points="689,-820 503,-820 503,-784 689,-784 689,-820"/>
<text text-anchor="middle" x="596" y="-798.3" font-family="Times,serif" font-size="14.00">valid = isdigit(source_code[i]);</text>
</g>
<!-- D65&#45;&gt;D70 -->
<g id="edge24" class="edge">
<title>D65:s&#45;&gt;D70:n</title>
<path fill="none" stroke="black" d="M721,-856C721,-856 635.28,-831.31 605.81,-822.82"/>
<polygon fill="black" stroke="black" points="606.58,-819.4 596,-820 604.64,-826.13 606.58,-819.4"/>
<text text-anchor="middle" x="658.4" y="-843.21" font-family="Times,serif" font-size="14.00">Y</text>
</g>
<!-- D72 -->
<g id="node25" class="node">
<title>D72</title>
<polygon fill="none" stroke="black" points="807,-820 727.9,-802 807,-784 886.1,-802 807,-820"/>
<text text-anchor="middle" x="807" y="-798.3" font-family="Times,serif" font-size="14.00">(base == 8)?</text>
</g>
<!-- D65&#45;&gt;D72 -->
<g id="edge23" class="edge">
<title>D65:e&#45;&gt;D72:n</title>
<path fill="none" stroke="black" d="M808,-874C808,-874 807.48,-846.1 807.19,-830.41"/>
<polygon fill="black" stroke="black" points="810.68,-829.93 807,-820 803.69,-830.06 810.68,-829.93"/>
<text text-anchor="middle" x="802.6" y="-841.01" font-family="Times,serif" font-size="14.00">N</text>
</g>
<!-- D83 -->
<g id="node28" class="node">
<title>D83</title>
<polygon fill="none" stroke="black" points="619,-676 564.54,-658 619,-640 673.46,-658 619,-676"/>
<text text-anchor="middle" x="619" y="-654.3" font-family="Times,serif" font-size="14.00">(valid)?</text>
</g>
<!-- D70&#45;&gt;D83 -->
<g id="edge22" class="edge">
<title>D70&#45;&gt;D83</title>
<path fill="none" stroke="black" d="M588.6,-783.94C581.87,-768.45 573,-748 573,-748 573,-748 573,-712 573,-712 573,-712 587.78,-694.97 600.59,-680.21"/>
<polygon fill="black" stroke="black" points="603.48,-682.22 607.39,-672.37 598.19,-677.63 603.48,-682.22"/>
</g>
<!-- D77 -->
<g id="node26" class="node">
<title>D77</title>
<polygon fill="none" stroke="black" points="785.5,-748 582.5,-748 582.5,-712 785.5,-712 785.5,-748"/>
<text text-anchor="middle" x="684" y="-726.3" font-family="Times,serif" font-size="14.00">valid = isoctdigit(source_code[i]);</text>
</g>
<!-- D72&#45;&gt;D77 -->
<g id="edge27" class="edge">
<title>D72:s&#45;&gt;D77:n</title>
<path fill="none" stroke="black" d="M807,-784C807,-784 722.65,-759.31 693.65,-750.82"/>
<polygon fill="black" stroke="black" points="694.58,-747.45 684,-748 692.61,-754.17 694.58,-747.45"/>
<text text-anchor="middle" x="745.33" y="-771.21" font-family="Times,serif" font-size="14.00">Y</text>
</g>
<!-- D81 -->
<g id="node27" class="node">
<title>D81</title>
<polygon fill="none" stroke="black" points="1010,-748 804,-748 804,-712 1010,-712 1010,-748"/>
<text text-anchor="middle" x="907" y="-726.3" font-family="Times,serif" font-size="14.00">valid = ishexdigit(source_code[i]);</text>
</g>
<!-- D72&#45;&gt;D81 -->
<g id="edge28" class="edge">
<title>D72:e&#45;&gt;D81:n</title>
<path fill="none" stroke="black" d="M887,-802C887,-802 897.79,-772.88 903.52,-757.41"/>
<polygon fill="black" stroke="black" points="906.81,-758.59 907,-748 900.24,-756.16 906.81,-758.59"/>
<text text-anchor="middle" x="890.26" y="-768.5" font-family="Times,serif" font-size="14.00">N</text>
</g>
<!-- D77&#45;&gt;D83 -->
<g id="edge25" class="edge">
<title>D77&#45;&gt;D83</title>
<path fill="none" stroke="black" d="M667.93,-711.7C658.95,-702.02 647.68,-689.89 638.23,-679.71"/>
<polygon fill="black" stroke="black" points="640.79,-677.32 631.42,-672.38 635.66,-682.08 640.79,-677.32"/>
</g>
<!-- D81&#45;&gt;D83 -->
<g id="edge26" class="edge">
<title>D81&#45;&gt;D83</title>
<path fill="none" stroke="black" d="M836.92,-711.97C781.03,-698.38 704.78,-679.85 658.87,-668.69"/>
<polygon fill="black" stroke="black" points="659.54,-665.25 649,-666.29 657.89,-672.05 659.54,-665.25"/>
</g>
<!-- D88 -->
<g id="node29" class="node">
<title>D88</title>
<polygon fill="none" stroke="black" points="310,-460 232.58,-442 310,-424 387.42,-442 310,-460"/>
<text text-anchor="middle" x="310" y="-438.3" font-family="Times,serif" font-size="14.00">(is_double)?</text>
</g>
<!-- D83&#45;&gt;D88 -->
<g id="edge34" class="edge">
<title>D83:s&#45;&gt;D88:n</title>
<path fill="none" stroke="black" d="M619,-640C619,-640 532,-604 532,-604 532,-604 358.98,-491.77 318.43,-465.47"/>
<polygon fill="black" stroke="black" points="320.29,-462.51 310,-460 316.48,-468.38 320.29,-462.51"/>
<text text-anchor="middle" x="459.71" y="-564.15" font-family="Times,serif" font-size="14.00">Y</text>
</g>
<!-- D103 -->
<g id="node33" class="node">
<title>D103</title>
<polygon fill="none" stroke="black" points="673,-604 540.78,-586 673,-568 805.22,-586 673,-604"/>
<text text-anchor="middle" x="673" y="-582.3" font-family="Times,serif" font-size="14.00">(source_code[i] == &#39;.&#39;)?</text>
</g>
<!-- D83&#45;&gt;D103 -->
<g id="edge35" class="edge">
<title>D83:e&#45;&gt;D103:n</title>
<path fill="none" stroke="black" d="M674,-658C674,-658 673.48,-630.1 673.19,-614.41"/>
<polygon fill="black" stroke="black" points="676.68,-613.93 673,-604 669.69,-614.06 676.68,-613.93"/>
<text text-anchor="middle" x="668.6" y="-625.01" font-family="Times,serif" font-size="14.00">N</text>
</g>
<!-- D93 -->
<g id="node30" class="node">
<title>D93</title>
<polygon fill="none" stroke="black" points="412,-387 28,-387 28,-351 412,-351 412,-387"/>
<text text-anchor="middle" x="220" y="-365.3" font-family="Times,serif" font-size="14.00">v_double += pow(base, double_cnt&#45;&#45;) * (char2int(source_code[i]));</text>
</g>
<!-- D88&#45;&gt;D93 -->
<g id="edge31" class="edge">
<title>D88:s&#45;&gt;D93:n</title>
<path fill="none" stroke="black" d="M310,-424C310,-424 252.29,-400.91 229.29,-391.72"/>
<polygon fill="black" stroke="black" points="230.58,-388.46 220,-388 227.98,-394.96 230.58,-388.46"/>
<text text-anchor="middle" x="264.65" y="-411.66" font-family="Times,serif" font-size="14.00">Y</text>
</g>
<!-- D97 -->
<g id="node31" class="node">
<title>D97</title>
<polygon fill="none" stroke="black" points="525.5,-387 430.5,-387 430.5,-351 525.5,-351 525.5,-387"/>
<text text-anchor="middle" x="478" y="-365.3" font-family="Times,serif" font-size="14.00">v_int *= base;</text>
</g>
<!-- D88&#45;&gt;D97 -->
<g id="edge32" class="edge">
<title>D88:e&#45;&gt;D97:n</title>
<path fill="none" stroke="black" d="M389,-442C389,-442 396,-424 396,-424 396,-424 447.05,-401.59 468.59,-392.13"/>
<polygon fill="black" stroke="black" points="470.25,-395.22 478,-388 467.44,-388.82 470.25,-395.22"/>
<text text-anchor="middle" x="418.45" y="-400.75" font-family="Times,serif" font-size="14.00">N</text>
</g>
<!-- D93&#45;&gt;D60 -->
<g id="edge29" class="edge">
<title>D93&#45;&gt;D60</title>
<path fill="none" stroke="black" d="M222.7,-350.65C226.77,-324.49 234,-278 234,-278 234,-278 340.37,-233.55 398.35,-209.32"/>
<polygon fill="black" stroke="black" points="400.02,-212.41 407.89,-205.33 397.32,-205.96 400.02,-212.41"/>
</g>
<!-- D99 -->
<g id="node32" class="node">
<title>D99</title>
<polygon fill="none" stroke="black" points="449,-314 243,-314 243,-278 449,-278 449,-314"/>
<text text-anchor="middle" x="346" y="-292.3" font-family="Times,serif" font-size="14.00">v_int += char2int(source_code[i]);</text>
</g>
<!-- D97&#45;&gt;D99 -->
<g id="edge30" class="edge">
<title>D97&#45;&gt;D99</title>
<path fill="none" stroke="black" d="M446.38,-350.99C428.47,-341.36 405.88,-329.21 386.66,-318.87"/>
<polygon fill="black" stroke="black" points="388.28,-315.77 377.82,-314.11 384.97,-321.93 388.28,-315.77"/>
</g>
<!-- D99&#45;&gt;D60 -->
<g id="edge33" class="edge">
<title>D99&#45;&gt;D60</title>
<path fill="none" stroke="black" d="M361.1,-277.87C375.29,-261.76 396.7,-237.46 412.83,-219.15"/>
<polygon fill="black" stroke="black" points="415.84,-221.03 419.83,-211.22 410.59,-216.41 415.84,-221.03"/>
</g>
<!-- D108 -->
<g id="node34" class="node">
<title>D108</title>
<polygon fill="none" stroke="black" points="553,-460 405.03,-442 553,-424 700.97,-442 553,-460"/>
<text text-anchor="middle" x="553" y="-438.3" font-family="Times,serif" font-size="14.00">(base == 8 || base == 16)?</text>
</g>
<!-- D103&#45;&gt;D108 -->
<g id="edge43" class="edge">
<title>D103:s&#45;&gt;D108:n</title>
<path fill="none" stroke="black" d="M673,-568C673,-568 520,-532 520,-532 520,-532 520,-496 520,-496 520,-496 536.31,-478.2 546,-467.63"/>
<polygon fill="black" stroke="black" points="548.82,-469.74 553,-460 543.66,-465.01 548.82,-469.74"/>
<text text-anchor="middle" x="555.25" y="-545.27" font-family="Times,serif" font-size="14.00">Y</text>
</g>
<!-- D121 -->
<g id="node39" class="node">
<title>D121</title>
<polygon fill="none" stroke="black" points="1059,-532 528.79,-514 1059,-496 1589.21,-514 1059,-532"/>
<text text-anchor="middle" x="1059" y="-510.3" font-family="Times,serif" font-size="14.00">(isblank(source_code[i]) || source_code[i] == 0 || is_valid_symbol_to_end_identifier(source_code[i]))?</text>
</g>
<!-- D103&#45;&gt;D121 -->
<g id="edge42" class="edge">
<title>D103:e&#45;&gt;D121:n</title>
<path fill="none" stroke="black" d="M806,-586C806,-586 1002.31,-544.1 1049.08,-534.12"/>
<polygon fill="black" stroke="black" points="1049.95,-537.51 1059,-532 1048.49,-530.66 1049.95,-537.51"/>
<text text-anchor="middle" x="922.54" y="-563.86" font-family="Times,serif" font-size="14.00">N</text>
</g>
<!-- D113 -->
<g id="node35" class="node">
<title>D113</title>
<polygon fill="none" stroke="black" points="1278.5,-387 849.5,-387 849.5,-351 1278.5,-351 1278.5,-387"/>
<text text-anchor="middle" x="1064" y="-365.3" font-family="Times,serif" font-size="14.00">sds msg = sdscatprintf(sdsempty(), &quot;float in oct and hex is not supported&quot;);</text>
</g>
<!-- D108&#45;&gt;D113 -->
<g id="edge37" class="edge">
<title>D108:s&#45;&gt;D113:n</title>
<path fill="none" stroke="black" d="M553,-424C553,-424 981.77,-393.79 1053.79,-388.72"/>
<polygon fill="black" stroke="black" points="1054.27,-392.19 1064,-388 1053.78,-385.21 1054.27,-392.19"/>
<text text-anchor="middle" x="798.4" y="-410.16" font-family="Times,serif" font-size="14.00">Y</text>
</g>
<!-- D117 -->
<g id="node37" class="node">
<title>D117</title>
<polygon fill="none" stroke="black" points="656,-387 546,-387 546,-351 656,-351 656,-387"/>
<text text-anchor="middle" x="601" y="-365.3" font-family="Times,serif" font-size="14.00">is_double = true;</text>
</g>
<!-- D108&#45;&gt;D117 -->
<g id="edge36" class="edge">
<title>D108:e&#45;&gt;D117:n</title>
<path fill="none" stroke="black" d="M702,-442C702,-442 701,-424 701,-424 701,-424 635.62,-400.46 610.59,-391.45"/>
<polygon fill="black" stroke="black" points="611.59,-388.09 601,-388 609.22,-394.68 611.59,-388.09"/>
<text text-anchor="middle" x="659.28" y="-399.58" font-family="Times,serif" font-size="14.00">N</text>
</g>
<!-- D115 -->
<g id="node36" class="node">
<title>D115</title>
<polygon fill="none" stroke="black" points="1238,-108 1098,-108 1098,-72 1238,-72 1238,-108"/>
<text text-anchor="middle" x="1168" y="-86.3" font-family="Times,serif" font-size="14.00">return err_token(msg);</text>
</g>
<!-- D113&#45;&gt;D115 -->
<g id="edge40" class="edge">
<title>D113&#45;&gt;D115</title>
<path fill="none" stroke="black" d="M1070.51,-350.67C1088.09,-303.84 1136.66,-174.48 1157.87,-117.99"/>
<polygon fill="black" stroke="black" points="1161.26,-118.91 1161.5,-108.32 1154.71,-116.45 1161.26,-118.91"/>
</g>
<!-- D115&#45;&gt;D1 -->
<g id="edge39" class="edge">
<title>D115&#45;&gt;D1</title>
<path fill="none" stroke="black" d="M1238.09,-75.92C1317.25,-61.14 1443.12,-37.64 1505.47,-26.01"/>
<polygon fill="black" stroke="black" points="1506.44,-29.38 1515.63,-24.11 1505.16,-22.5 1506.44,-29.38"/>
</g>
<!-- D119 -->
<g id="node38" class="node">
<title>D119</title>
<polygon fill="none" stroke="black" points="581,-314 467,-314 467,-278 581,-278 581,-314"/>
<text text-anchor="middle" x="524" y="-292.3" font-family="Times,serif" font-size="14.00">v_double = v_int;</text>
</g>
<!-- D117&#45;&gt;D119 -->
<g id="edge38" class="edge">
<title>D117&#45;&gt;D119</title>
<path fill="none" stroke="black" d="M582.36,-350.81C572.62,-341.83 560.54,-330.69 549.9,-320.89"/>
<polygon fill="black" stroke="black" points="552.19,-318.23 542.47,-314.03 547.45,-323.38 552.19,-318.23"/>
</g>
<!-- D119&#45;&gt;D60 -->
<g id="edge41" class="edge">
<title>D119&#45;&gt;D60</title>
<path fill="none" stroke="black" d="M508.9,-277.87C494.71,-261.76 473.3,-237.46 457.17,-219.15"/>
<polygon fill="black" stroke="black" points="459.41,-216.41 450.17,-211.22 454.16,-221.03 459.41,-216.41"/>
</g>
<!-- D126 -->
<g id="node40" class="node">
<title>D126</title>
<polygon fill="none" stroke="black" points="1192,-460 1138,-460 1138,-424 1192,-424 1192,-460"/>
<text text-anchor="middle" x="1165" y="-438.3" font-family="Times,serif" font-size="14.00">break</text>
</g>
<!-- D121&#45;&gt;D126 -->
<g id="edge45" class="edge">
<title>D121:s&#45;&gt;D126:n</title>
<path fill="none" stroke="black" d="M1059,-496C1059,-496 1128.98,-472.23 1155.22,-463.32"/>
<polygon fill="black" stroke="black" points="1156.66,-466.53 1165,-460 1154.41,-459.9 1156.66,-466.53"/>
<text text-anchor="middle" x="1102.11" y="-483.46" font-family="Times,serif" font-size="14.00">Y</text>
</g>
<!-- D128 -->
<g id="node41" class="node">
<title>D128</title>
<polygon fill="none" stroke="black" points="1452,-460 1315.09,-442 1452,-424 1588.91,-442 1452,-460"/>
<text text-anchor="middle" x="1452" y="-438.3" font-family="Times,serif" font-size="14.00">(source_code[i] == &#39;L&#39;)?</text>
</g>
<!-- D121&#45;&gt;D128 -->
<g id="edge44" class="edge">
<title>D121:e&#45;&gt;D128:n</title>
<path fill="none" stroke="black" d="M1591,-514C1591,-514 1590,-496 1590,-496 1590,-496 1493.57,-470.84 1461.92,-462.59"/>
<polygon fill="black" stroke="black" points="1462.56,-459.14 1452,-460 1460.79,-465.91 1462.56,-459.14"/>
<text text-anchor="middle" x="1529.68" y="-485.37" font-family="Times,serif" font-size="14.00">N</text>
</g>
<!-- D126&#45;&gt;D152 -->
<g id="edge15" class="edge">
<title>D126&#45;&gt;D152</title>
<path fill="none" stroke="black" d="M1192.25,-430.37C1218.96,-419.95 1260.41,-403.78 1293.69,-390.8"/>
<polygon fill="black" stroke="black" points="1295.24,-393.95 1303.28,-387.05 1292.7,-387.43 1295.24,-393.95"/>
</g>
<!-- D133 -->
<g id="node42" class="node">
<title>D133</title>
<polygon fill="none" stroke="black" points="754,-387 676.58,-369 754,-351 831.42,-369 754,-387"/>
<text text-anchor="middle" x="754" y="-365.3" font-family="Times,serif" font-size="14.00">(is_double)?</text>
</g>
<!-- D128&#45;&gt;D133 -->
<g id="edge51" class="edge">
<title>D128:s&#45;&gt;D133:n</title>
<path fill="none" stroke="black" d="M1452,-424C1452,-424 849.97,-392.95 764.14,-388.52"/>
<polygon fill="black" stroke="black" points="764.17,-385.02 754,-388 763.81,-392.01 764.17,-385.02"/>
<text text-anchor="middle" x="1103.07" y="-410.06" font-family="Times,serif" font-size="14.00">Y</text>
</g>
<!-- D146 -->
<g id="node45" class="node">
<title>D146</title>
<polygon fill="none" stroke="black" points="2004,-388 1416,-388 1416,-350 2004,-350 2004,-388"/>
<text text-anchor="middle" x="1710" y="-372.8" font-family="Times,serif" font-size="14.00">sds err_msg = sdscatprintf(sdsempty(), &quot;unexpected &#39;%c&#39;, at line %d, column %d&quot;, source_code[i], line,</text>
<text text-anchor="middle" x="1710" y="-357.8" font-family="Times,serif" font-size="14.00"> &#160;&#160;&#160;&#160;&#160;&#160;&#160;&#160;&#160;&#160;&#160;&#160;&#160;&#160;&#160;&#160;&#160;&#160;&#160;&#160;&#160;&#160;&#160;&#160;&#160;&#160;&#160;&#160;&#160;&#160;&#160;&#160;&#160;&#160;&#160;&#160;&#160;&#160;&#160;&#160;&#160;&#160;column);</text>
</g>
<!-- D128&#45;&gt;D146 -->
<g id="edge52" class="edge">
<title>D128:e&#45;&gt;D146:n</title>
<path fill="none" stroke="black" d="M1590,-442C1590,-442 1672.29,-404.97 1700.58,-392.24"/>
<polygon fill="black" stroke="black" points="1702.32,-395.3 1710,-388 1699.44,-388.91 1702.32,-395.3"/>
<text text-anchor="middle" x="1640.29" y="-420.92" font-family="Times,serif" font-size="14.00">N</text>
</g>
<!-- D138 -->
<g id="node43" class="node">
<title>D138</title>
<polygon fill="none" stroke="black" points="910.5,-314 599.5,-314 599.5,-278 910.5,-278 910.5,-314"/>
<text text-anchor="middle" x="755" y="-292.3" font-family="Times,serif" font-size="14.00">sds msg = sdscatprintf(sdsempty(), &quot;unexpected &#39;L&#39;&quot;);</text>
</g>
<!-- D133&#45;&gt;D138 -->
<g id="edge48" class="edge">
<title>D133:s&#45;&gt;D138:n</title>
<path fill="none" stroke="black" d="M754,-350C754,-350 754.42,-334.86 754.72,-324.22"/>
<polygon fill="black" stroke="black" points="758.22,-324.09 755,-314 751.22,-323.9 758.22,-324.09"/>
<text text-anchor="middle" x="749.36" y="-325.91" font-family="Times,serif" font-size="14.00">Y</text>
</g>
<!-- D142 -->
<g id="node44" class="node">
<title>D142</title>
<polygon fill="none" stroke="black" points="1043.5,-314 928.5,-314 928.5,-278 1043.5,-278 1043.5,-314"/>
<text text-anchor="middle" x="986" y="-292.3" font-family="Times,serif" font-size="14.00">is_long_lit = true;</text>
</g>
<!-- D133&#45;&gt;D142 -->
<g id="edge49" class="edge">
<title>D133:e&#45;&gt;D142:n</title>
<path fill="none" stroke="black" d="M833,-369C833,-369 840,-350 840,-350 840,-350 942.98,-324.61 975.96,-316.47"/>
<polygon fill="black" stroke="black" points="977.13,-319.79 986,-314 975.45,-313 977.13,-319.79"/>
<text text-anchor="middle" x="893.15" y="-339.46" font-family="Times,serif" font-size="14.00">N</text>
</g>
<!-- D138&#45;&gt;D60 -->
<g id="edge46" class="edge">
<title>D138&#45;&gt;D60</title>
<path fill="none" stroke="black" d="M701.08,-277.98C635.88,-257.4 527.92,-223.33 471.65,-205.57"/>
<polygon fill="black" stroke="black" points="472.69,-202.23 462.1,-202.55 470.58,-208.9 472.69,-202.23"/>
</g>
<!-- D142&#45;&gt;D60 -->
<g id="edge47" class="edge">
<title>D142&#45;&gt;D60</title>
<path fill="none" stroke="black" d="M928.32,-280.36C922.68,-278.93 919,-278 919,-278 919,-278 585.16,-220.06 472,-200.42"/>
<polygon fill="black" stroke="black" points="472.51,-196.96 462.06,-198.7 471.31,-203.85 472.51,-196.96"/>
</g>
<!-- D148 -->
<g id="node46" class="node">
<title>D148</title>
<polygon fill="none" stroke="black" points="1760.5,-314 1659.5,-314 1659.5,-278 1760.5,-278 1760.5,-314"/>
<text text-anchor="middle" x="1710" y="-292.3" font-family="Times,serif" font-size="14.00">*skips = i &#45; ptr;</text>
</g>
<!-- D146&#45;&gt;D148 -->
<g id="edge50" class="edge">
<title>D146&#45;&gt;D148</title>
<path fill="none" stroke="black" d="M1710,-349.72C1710,-341.97 1710,-332.79 1710,-324.27"/>
<polygon fill="black" stroke="black" points="1713.5,-324 1710,-314 1706.5,-324 1713.5,-324"/>
</g>
<!-- D150 -->
<g id="node47" class="node">
<title>D150</title>
<polygon fill="none" stroke="black" points="1790,-108 1628,-108 1628,-72 1790,-72 1790,-108"/>
<text text-anchor="middle" x="1709" y="-86.3" font-family="Times,serif" font-size="14.00">return err_token(err_msg);</text>
</g>
<!-- D148&#45;&gt;D150 -->
<g id="edge53" class="edge">
<title>D148&#45;&gt;D150</title>
<path fill="none" stroke="black" d="M1709.92,-277.96C1709.74,-242.63 1709.34,-161.16 1709.13,-118.37"/>
<polygon fill="black" stroke="black" points="1712.63,-118.12 1709.08,-108.14 1705.63,-118.15 1712.63,-118.12"/>
</g>
<!-- D150&#45;&gt;D1 -->
<g id="edge55" class="edge">
<title>D150&#45;&gt;D1</title>
<path fill="none" stroke="black" d="M1668.39,-71.88C1641.21,-60.41 1605.73,-45.45 1579.45,-34.37"/>
<polygon fill="black" stroke="black" points="1580.79,-31.14 1570.22,-30.48 1578.07,-37.59 1580.79,-31.14"/>
</g>
<!-- D154 -->
<g id="node49" class="node">
<title>D154</title>
<polygon fill="none" stroke="black" points="1347,-314 1269.58,-296 1347,-278 1424.42,-296 1347,-314"/>
<text text-anchor="middle" x="1347" y="-292.3" font-family="Times,serif" font-size="14.00">(is_double)?</text>
</g>
<!-- D152&#45;&gt;D154 -->
<g id="edge54" class="edge">
<title>D152&#45;&gt;D154</title>
<path fill="none" stroke="black" d="M1347,-350.81C1347,-342.79 1347,-333.05 1347,-324.07"/>
<polygon fill="black" stroke="black" points="1350.5,-324.03 1347,-314.03 1343.5,-324.03 1350.5,-324.03"/>
</g>
<!-- D159 -->
<g id="node50" class="node">
<title>D159</title>
<polygon fill="none" stroke="black" points="1386,-242 1172,-242 1172,-144 1386,-144 1386,-242"/>
<text text-anchor="middle" x="1279" y="-226.8" font-family="Times,serif" font-size="14.00">struct Token res = {</text>
<text text-anchor="middle" x="1279" y="-211.8" font-family="Times,serif" font-size="14.00"> &#160;&#160;&#160;&#160;&#160;&#160;&#160;&#160;&#160;&#160;&#160;&#160;&#160;&#160;&#160;.column_num = column,</text>
<text text-anchor="middle" x="1279" y="-196.8" font-family="Times,serif" font-size="14.00"> &#160;&#160;&#160;&#160;&#160;&#160;&#160;&#160;&#160;&#160;&#160;&#160;&#160;&#160;&#160;.line_num = line,</text>
<text text-anchor="middle" x="1279" y="-181.8" font-family="Times,serif" font-size="14.00"> &#160;&#160;&#160;&#160;&#160;&#160;&#160;&#160;&#160;&#160;&#160;&#160;&#160;&#160;&#160;.type = FloatLit,</text>
<text text-anchor="middle" x="1279" y="-166.8" font-family="Times,serif" font-size="14.00"> &#160;&#160;&#160;&#160;&#160;&#160;&#160;&#160;&#160;&#160;&#160;&#160;&#160;&#160;&#160;.v.f = v_double,</text>
<text text-anchor="middle" x="1279" y="-151.8" font-family="Times,serif" font-size="14.00"> &#160;&#160;&#160;&#160;&#160;&#160;&#160;};</text>
</g>
<!-- D154&#45;&gt;D159 -->
<g id="edge58" class="edge">
<title>D154:s&#45;&gt;D159:n</title>
<path fill="none" stroke="black" d="M1347,-278C1347,-278 1306.32,-256.46 1287.89,-246.71"/>
<polygon fill="black" stroke="black" points="1289.48,-243.59 1279,-242 1286.2,-249.77 1289.48,-243.59"/>
<text text-anchor="middle" x="1312.44" y="-266.15" font-family="Times,serif" font-size="14.00">Y</text>
</g>
<!-- D165 -->
<g id="node52" class="node">
<title>D165</title>
<polygon fill="none" stroke="black" points="1681.5,-242 1404.5,-242 1404.5,-144 1681.5,-144 1681.5,-242"/>
<text text-anchor="middle" x="1543" y="-226.8" font-family="Times,serif" font-size="14.00">struct Token res = {</text>
<text text-anchor="middle" x="1543" y="-211.8" font-family="Times,serif" font-size="14.00"> &#160;&#160;&#160;&#160;&#160;&#160;&#160;&#160;&#160;&#160;&#160;&#160;&#160;&#160;&#160;.column_num = column,</text>
<text text-anchor="middle" x="1543" y="-196.8" font-family="Times,serif" font-size="14.00"> &#160;&#160;&#160;&#160;&#160;&#160;&#160;&#160;&#160;&#160;&#160;&#160;&#160;&#160;&#160;.line_num = line,</text>
<text text-anchor="middle" x="1543" y="-181.8" font-family="Times,serif" font-size="14.00"> &#160;&#160;&#160;&#160;&#160;&#160;&#160;&#160;&#160;&#160;&#160;&#160;&#160;&#160;&#160;.type = is_long_lit ? LongLit: IntLit,</text>
<text text-anchor="middle" x="1543" y="-166.8" font-family="Times,serif" font-size="14.00"> &#160;&#160;&#160;&#160;&#160;&#160;&#160;&#160;&#160;&#160;&#160;&#160;&#160;&#160;&#160;.v.v = v_int,</text>
<text text-anchor="middle" x="1543" y="-151.8" font-family="Times,serif" font-size="14.00"> &#160;&#160;&#160;&#160;&#160;&#160;&#160;};</text>
</g>
<!-- D154&#45;&gt;D165 -->
<g id="edge62" class="edge">
<title>D154:e&#45;&gt;D165:n</title>
<path fill="none" stroke="black" d="M1426,-296C1426,-296 1506.24,-258.97 1533.82,-246.24"/>
<polygon fill="black" stroke="black" points="1535.39,-249.37 1543,-242 1532.45,-243.01 1535.39,-249.37"/>
<text text-anchor="middle" x="1474.91" y="-274.92" font-family="Times,serif" font-size="14.00">N</text>
</g>
<!-- D161 -->
<g id="node51" class="node">
<title>D161</title>
<polygon fill="none" stroke="black" points="1435.5,-108 1304.5,-108 1304.5,-72 1435.5,-72 1435.5,-108"/>
<text text-anchor="middle" x="1370" y="-86.3" font-family="Times,serif" font-size="14.00">return ok_token(res);</text>
</g>
<!-- D159&#45;&gt;D161 -->
<g id="edge57" class="edge">
<title>D159&#45;&gt;D161</title>
<path fill="none" stroke="black" d="M1322.37,-143.87C1331.2,-134.06 1340.14,-124.14 1347.85,-115.58"/>
<polygon fill="black" stroke="black" points="1350.46,-117.92 1354.55,-108.15 1345.26,-113.23 1350.46,-117.92"/>
</g>
<!-- D161&#45;&gt;D1 -->
<g id="edge61" class="edge">
<title>D161&#45;&gt;D1</title>
<path fill="none" stroke="black" d="M1412.32,-71.88C1441.22,-60.18 1479.12,-44.85 1506.66,-33.7"/>
<polygon fill="black" stroke="black" points="1507.98,-36.95 1515.93,-29.95 1505.35,-30.46 1507.98,-36.95"/>
</g>
<!-- D167 -->
<g id="node53" class="node">
<title>D167</title>
<polygon fill="none" stroke="black" points="1608.5,-108 1477.5,-108 1477.5,-72 1608.5,-72 1608.5,-108"/>
<text text-anchor="middle" x="1543" y="-86.3" font-family="Times,serif" font-size="14.00">return ok_token(res);</text>
</g>
<!-- D165&#45;&gt;D167 -->
<g id="edge59" class="edge">
<title>D165&#45;&gt;D167</title>
<path fill="none" stroke="black" d="M1543,-143.87C1543,-135.06 1543,-126.17 1543,-118.24"/>
<polygon fill="black" stroke="black" points="1546.5,-118.15 1543,-108.15 1539.5,-118.15 1546.5,-118.15"/>
</g>
<!-- D167&#45;&gt;D1 -->
<g id="edge67" class="edge">
<title>D167&#45;&gt;D1</title>
<path fill="none" stroke="black" d="M1543,-71.7C1543,-63.98 1543,-54.71 1543,-46.11"/>
<polygon fill="black" stroke="black" points="1546.5,-46.1 1543,-36.1 1539.5,-46.1 1546.5,-46.1"/>
</g>
</g>
</svg>
