<?xml version="1.0" encoding="UTF-8" standalone="no"?>
<!DOCTYPE svg PUBLIC "-//W3C//DTD SVG 1.1//EN"
 "http://www.w3.org/Graphics/SVG/1.1/DTD/svg11.dtd">
<!-- Generated by graphviz version 2.50.0 (0)
 -->
<!-- Pages: 1 -->
<svg width="538pt" height="908pt"
 viewBox="0.00 0.00 537.74 908.00" xmlns="http://www.w3.org/2000/svg" xmlns:xlink="http://www.w3.org/1999/xlink">
<g id="graph0" class="graph" transform="scale(1 1) rotate(0) translate(4 904)">
<polygon fill="white" stroke="transparent" points="-4,4 -4,-904 533.74,-904 533.74,4 -4,4"/>
<!-- D0 -->
<g id="node1" class="node">
<title>D0</title>
<path fill="none" stroke="black" d="M201.24,-900C201.24,-900 171.24,-900 171.24,-900 165.24,-900 159.24,-894 159.24,-888 159.24,-888 159.24,-876 159.24,-876 159.24,-870 165.24,-864 171.24,-864 171.24,-864 201.24,-864 201.24,-864 207.24,-864 213.24,-870 213.24,-876 213.24,-876 213.24,-888 213.24,-888 213.24,-894 207.24,-900 201.24,-900"/>
<text text-anchor="middle" x="186.24" y="-878.3" font-family="Times,serif" font-size="14.00">begin</text>
</g>
<!-- D4 -->
<g id="node3" class="node">
<title>D4</title>
<polygon fill="none" stroke="black" points="231.24,-828 141.24,-828 141.24,-792 231.24,-792 231.24,-828"/>
<text text-anchor="middle" x="186.24" y="-806.3" font-family="Times,serif" font-size="14.00">char str[100];</text>
</g>
<!-- D0&#45;&gt;D4 -->
<g id="edge12" class="edge">
<title>D0&#45;&gt;D4</title>
<path fill="none" stroke="black" d="M186.24,-863.7C186.24,-855.98 186.24,-846.71 186.24,-838.11"/>
<polygon fill="black" stroke="black" points="189.74,-838.1 186.24,-828.1 182.74,-838.1 189.74,-838.1"/>
</g>
<!-- D1 -->
<g id="node2" class="node">
<title>D1</title>
<path fill="none" stroke="black" d="M372.24,-36C372.24,-36 342.24,-36 342.24,-36 336.24,-36 330.24,-30 330.24,-24 330.24,-24 330.24,-12 330.24,-12 330.24,-6 336.24,0 342.24,0 342.24,0 372.24,0 372.24,0 378.24,0 384.24,-6 384.24,-12 384.24,-12 384.24,-24 384.24,-24 384.24,-30 378.24,-36 372.24,-36"/>
<text text-anchor="middle" x="357.24" y="-14.3" font-family="Times,serif" font-size="14.00">end</text>
</g>
<!-- D6 -->
<g id="node4" class="node">
<title>D6</title>
<polygon fill="none" stroke="black" points="240.24,-756 132.24,-756 132.24,-720 240.24,-720 240.24,-756"/>
<text text-anchor="middle" x="186.24" y="-734.3" font-family="Times,serif" font-size="14.00">scanf(&quot;%s&quot;, str);</text>
</g>
<!-- D4&#45;&gt;D6 -->
<g id="edge1" class="edge">
<title>D4&#45;&gt;D6</title>
<path fill="none" stroke="black" d="M186.24,-791.7C186.24,-783.98 186.24,-774.71 186.24,-766.11"/>
<polygon fill="black" stroke="black" points="189.74,-766.1 186.24,-756.1 182.74,-766.1 189.74,-766.1"/>
</g>
<!-- D8 -->
<g id="node5" class="node">
<title>D8</title>
<polygon fill="none" stroke="black" points="247.74,-684 124.74,-684 124.74,-648 247.74,-648 247.74,-684"/>
<text text-anchor="middle" x="186.24" y="-662.3" font-family="Times,serif" font-size="14.00">int len = strlen(str);</text>
</g>
<!-- D6&#45;&gt;D8 -->
<g id="edge2" class="edge">
<title>D6&#45;&gt;D8</title>
<path fill="none" stroke="black" d="M186.24,-719.7C186.24,-711.98 186.24,-702.71 186.24,-694.11"/>
<polygon fill="black" stroke="black" points="189.74,-694.1 186.24,-684.1 182.74,-694.1 189.74,-694.1"/>
</g>
<!-- D10 -->
<g id="node6" class="node">
<title>D10</title>
<polygon fill="none" stroke="black" points="186.24,-612 20.84,-594 186.24,-576 351.64,-594 186.24,-612"/>
<text text-anchor="middle" x="186.24" y="-590.3" font-family="Times,serif" font-size="14.00">(len == 11 &amp;&amp; str[0] == &#39;1&#39;)?</text>
</g>
<!-- D8&#45;&gt;D10 -->
<g id="edge3" class="edge">
<title>D8&#45;&gt;D10</title>
<path fill="none" stroke="black" d="M186.24,-647.7C186.24,-639.98 186.24,-630.71 186.24,-622.11"/>
<polygon fill="black" stroke="black" points="189.74,-622.1 186.24,-612.1 182.74,-622.1 189.74,-622.1"/>
</g>
<!-- D21 -->
<g id="node7" class="node">
<title>D21</title>
<polygon fill="none" stroke="black" points="88.24,-540 -0.24,-522 88.24,-504 176.72,-522 88.24,-540"/>
<text text-anchor="middle" x="88.24" y="-518.3" font-family="Times,serif" font-size="14.00">(str[1]) == &#39;3&#39;?</text>
</g>
<!-- D10&#45;&gt;D21 -->
<g id="edge20" class="edge">
<title>D10:s&#45;&gt;D21:n</title>
<path fill="none" stroke="black" d="M186.24,-576C186.24,-576 122.16,-552.46 97.64,-543.45"/>
<polygon fill="black" stroke="black" points="98.83,-540.16 88.24,-540 96.42,-546.73 98.83,-540.16"/>
<text text-anchor="middle" x="136.94" y="-563.53" font-family="Times,serif" font-size="14.00">Y</text>
</g>
<!-- D40 -->
<g id="node16" class="node">
<title>D40</title>
<polygon fill="none" stroke="black" points="529.74,-468 348.74,-468 348.74,-432 529.74,-432 529.74,-468"/>
<text text-anchor="middle" x="439.24" y="-446.3" font-family="Times,serif" font-size="14.00">printf(&quot;not a phone number&quot;);</text>
</g>
<!-- D10&#45;&gt;D40 -->
<g id="edge21" class="edge">
<title>D10:e&#45;&gt;D40:n</title>
<path fill="none" stroke="black" d="M353.24,-594C353.24,-594 414.46,-504.3 433.6,-476.27"/>
<polygon fill="black" stroke="black" points="436.49,-478.23 439.24,-468 430.71,-474.29 436.49,-478.23"/>
<text text-anchor="middle" x="388.42" y="-538.93" font-family="Times,serif" font-size="14.00">N</text>
</g>
<!-- D22 -->
<g id="node8" class="node">
<title>D22</title>
<polygon fill="none" stroke="black" points="177.24,-468 88.76,-450 177.24,-432 265.72,-450 177.24,-468"/>
<text text-anchor="middle" x="177.24" y="-446.3" font-family="Times,serif" font-size="14.00">(str[1]) == &#39;4&#39;?</text>
</g>
<!-- D21&#45;&gt;D22 -->
<g id="edge10" class="edge">
<title>D21:e&#45;&gt;D22:n</title>
<path fill="none" stroke="black" d="M178.24,-522C178.24,-522 177.72,-494.1 177.43,-478.41"/>
<polygon fill="black" stroke="black" points="180.92,-477.93 177.24,-468 173.92,-478.06 180.92,-477.93"/>
<text text-anchor="middle" x="172.84" y="-489.01" font-family="Times,serif" font-size="14.00">N</text>
</g>
<!-- D30 -->
<g id="node12" class="node">
<title>D30</title>
<polygon fill="none" stroke="black" points="248.74,-180 75.74,-180 75.74,-144 248.74,-144 248.74,-180"/>
<text text-anchor="middle" x="162.24" y="-158.3" font-family="Times,serif" font-size="14.00">printf(&quot;is a phone number&quot;);</text>
</g>
<!-- D21&#45;&gt;D30 -->
<g id="edge13" class="edge">
<title>D21:s&#45;&gt;D30:n</title>
<path fill="none" stroke="black" d="M88.24,-504C88.24,-504 80.24,-468 80.24,-468 80.24,-468 61.24,-379 61.24,-379 61.24,-379 61.24,-379 61.24,-305 61.24,-305 133.81,-215.18 155.92,-187.82"/>
<polygon fill="black" stroke="black" points="158.68,-189.98 162.24,-180 153.23,-185.58 158.68,-189.98"/>
<text text-anchor="middle" x="56.24" y="-334.42" font-family="Times,serif" font-size="14.00">Y</text>
</g>
<!-- D23 -->
<g id="node9" class="node">
<title>D23</title>
<polygon fill="none" stroke="black" points="240.24,-396 151.76,-378 240.24,-360 328.72,-378 240.24,-396"/>
<text text-anchor="middle" x="240.24" y="-374.3" font-family="Times,serif" font-size="14.00">(str[1]) == &#39;5&#39;?</text>
</g>
<!-- D22&#45;&gt;D23 -->
<g id="edge9" class="edge">
<title>D22:e&#45;&gt;D23:n</title>
<path fill="none" stroke="black" d="M267.24,-450C267.24,-450 266.24,-432 266.24,-432 266.24,-432 253.95,-414.98 246.27,-404.35"/>
<polygon fill="black" stroke="black" points="248.93,-402.06 240.24,-396 243.26,-406.16 248.93,-402.06"/>
<text text-anchor="middle" x="256.53" y="-414.28" font-family="Times,serif" font-size="14.00">N</text>
</g>
<!-- D22&#45;&gt;D30 -->
<g id="edge14" class="edge">
<title>D22:s&#45;&gt;D30:n</title>
<path fill="none" stroke="black" d="M177.24,-432C177.24,-432 143.24,-396 143.24,-396 143.24,-396 143.24,-360 143.24,-360 143.24,-360 157.14,-228.27 161.16,-190.19"/>
<polygon fill="black" stroke="black" points="164.67,-190.31 162.24,-180 157.71,-189.58 164.67,-190.31"/>
<text text-anchor="middle" x="142.71" y="-321.42" font-family="Times,serif" font-size="14.00">Y</text>
</g>
<!-- D24 -->
<g id="node10" class="node">
<title>D24</title>
<polygon fill="none" stroke="black" points="278.24,-324 189.76,-306 278.24,-288 366.72,-306 278.24,-324"/>
<text text-anchor="middle" x="278.24" y="-302.3" font-family="Times,serif" font-size="14.00">(str[1]) == &#39;7&#39;?</text>
</g>
<!-- D23&#45;&gt;D24 -->
<g id="edge8" class="edge">
<title>D23:e&#45;&gt;D24:n</title>
<path fill="none" stroke="black" d="M330.24,-378C330.24,-378 329.24,-360 329.24,-360 329.24,-360 301.15,-340.17 286.66,-329.94"/>
<polygon fill="black" stroke="black" points="288.43,-326.91 278.24,-324 284.39,-332.63 288.43,-326.91"/>
<text text-anchor="middle" x="310.31" y="-338.97" font-family="Times,serif" font-size="14.00">N</text>
</g>
<!-- D23&#45;&gt;D30 -->
<g id="edge15" class="edge">
<title>D23:s&#45;&gt;D30:n</title>
<path fill="none" stroke="black" d="M240.24,-360C240.24,-360 181.24,-324 181.24,-324 181.24,-324 167.96,-223.37 163.61,-190.36"/>
<polygon fill="black" stroke="black" points="167.02,-189.46 162.24,-180 160.08,-190.37 167.02,-189.46"/>
<text text-anchor="middle" x="171.94" y="-295.24" font-family="Times,serif" font-size="14.00">Y</text>
</g>
<!-- D25 -->
<g id="node11" class="node">
<title>D25</title>
<polygon fill="none" stroke="black" points="316.24,-252 227.76,-234 316.24,-216 404.72,-234 316.24,-252"/>
<text text-anchor="middle" x="316.24" y="-230.3" font-family="Times,serif" font-size="14.00">(str[1]) == &#39;8&#39;?</text>
</g>
<!-- D24&#45;&gt;D25 -->
<g id="edge7" class="edge">
<title>D24:e&#45;&gt;D25:n</title>
<path fill="none" stroke="black" d="M368.24,-306C368.24,-306 367.24,-288 367.24,-288 367.24,-288 339.15,-268.17 324.66,-257.94"/>
<polygon fill="black" stroke="black" points="326.43,-254.91 316.24,-252 322.39,-260.63 326.43,-254.91"/>
<text text-anchor="middle" x="348.31" y="-266.97" font-family="Times,serif" font-size="14.00">N</text>
</g>
<!-- D24&#45;&gt;D30 -->
<g id="edge18" class="edge">
<title>D24:s&#45;&gt;D30:n</title>
<path fill="none" stroke="black" d="M278.24,-288C278.24,-288 219.24,-252 219.24,-252 219.24,-252 183.4,-206.73 168.56,-187.98"/>
<polygon fill="black" stroke="black" points="171.19,-185.67 162.24,-180 165.7,-190.01 171.19,-185.67"/>
<text text-anchor="middle" x="210.35" y="-250.89" font-family="Times,serif" font-size="14.00">Y</text>
</g>
<!-- D25&#45;&gt;D30 -->
<g id="edge6" class="edge">
<title>D25:s&#45;&gt;D30:n</title>
<path fill="none" stroke="black" d="M316.24,-216C316.24,-216 206.6,-190.37 172.34,-182.36"/>
<polygon fill="black" stroke="black" points="172.77,-178.87 162.24,-180 171.18,-185.68 172.77,-178.87"/>
<text text-anchor="middle" x="239.29" y="-202.98" font-family="Times,serif" font-size="14.00">Y</text>
</g>
<!-- D34 -->
<g id="node14" class="node">
<title>D34</title>
<polygon fill="none" stroke="black" points="447.74,-180 266.74,-180 266.74,-144 447.74,-144 447.74,-180"/>
<text text-anchor="middle" x="357.24" y="-158.3" font-family="Times,serif" font-size="14.00">printf(&quot;not a phone number&quot;);</text>
</g>
<!-- D25&#45;&gt;D34 -->
<g id="edge16" class="edge">
<title>D25:e&#45;&gt;D34:n</title>
<path fill="none" stroke="black" d="M406.24,-234C406.24,-234 405.24,-216 405.24,-216 405.24,-216 379.35,-196.58 365.6,-186.27"/>
<polygon fill="black" stroke="black" points="367.34,-183.2 357.24,-180 363.14,-188.8 367.34,-183.2"/>
<text text-anchor="middle" x="387.63" y="-195.34" font-family="Times,serif" font-size="14.00">N</text>
</g>
<!-- D32 -->
<g id="node13" class="node">
<title>D32</title>
<polygon fill="none" stroke="black" points="251.24,-108 197.24,-108 197.24,-72 251.24,-72 251.24,-108"/>
<text text-anchor="middle" x="224.24" y="-86.3" font-family="Times,serif" font-size="14.00">break</text>
</g>
<!-- D30&#45;&gt;D32 -->
<g id="edge17" class="edge">
<title>D30&#45;&gt;D32</title>
<path fill="none" stroke="black" d="M177.56,-143.7C185,-135.3 194.06,-125.07 202.22,-115.86"/>
<polygon fill="black" stroke="black" points="205.08,-117.91 209.09,-108.1 199.84,-113.27 205.08,-117.91"/>
</g>
<!-- D32&#45;&gt;D1 -->
<g id="edge11" class="edge">
<title>D32&#45;&gt;D1</title>
<path fill="none" stroke="black" d="M251.47,-74.67C271.56,-64.1 299.08,-49.61 321.02,-38.06"/>
<polygon fill="black" stroke="black" points="322.82,-41.07 330.04,-33.32 319.56,-34.88 322.82,-41.07"/>
</g>
<!-- D36 -->
<g id="node15" class="node">
<title>D36</title>
<polygon fill="none" stroke="black" points="384.24,-108 330.24,-108 330.24,-72 384.24,-72 384.24,-108"/>
<text text-anchor="middle" x="357.24" y="-86.3" font-family="Times,serif" font-size="14.00">break</text>
</g>
<!-- D34&#45;&gt;D36 -->
<g id="edge5" class="edge">
<title>D34&#45;&gt;D36</title>
<path fill="none" stroke="black" d="M357.24,-143.7C357.24,-135.98 357.24,-126.71 357.24,-118.11"/>
<polygon fill="black" stroke="black" points="360.74,-118.1 357.24,-108.1 353.74,-118.1 360.74,-118.1"/>
</g>
<!-- D36&#45;&gt;D1 -->
<g id="edge4" class="edge">
<title>D36&#45;&gt;D1</title>
<path fill="none" stroke="black" d="M357.24,-71.7C357.24,-63.98 357.24,-54.71 357.24,-46.11"/>
<polygon fill="black" stroke="black" points="360.74,-46.1 357.24,-36.1 353.74,-46.1 360.74,-46.1"/>
</g>
<!-- D40&#45;&gt;D1 -->
<g id="edge19" class="edge">
<title>D40&#45;&gt;D1</title>
<path fill="none" stroke="black" d="M443.7,-431.87C453.54,-394.1 476.24,-307 476.24,-307 476.24,-307 476.24,-307 476.24,-161 476.24,-161 412.35,-84.76 378.2,-44.01"/>
<polygon fill="black" stroke="black" points="380.7,-41.54 371.59,-36.13 375.33,-46.04 380.7,-41.54"/>
</g>
</g>
</svg>
