<?xml version="1.0" encoding="UTF-8" standalone="no"?>
<!DOCTYPE svg PUBLIC "-//W3C//DTD SVG 1.1//EN"
 "http://www.w3.org/Graphics/SVG/1.1/DTD/svg11.dtd">
<!-- Generated by graphviz version 2.50.0 (0)
 -->
<!-- Pages: 1 -->
<svg width="499pt" height="548pt"
 viewBox="0.00 0.00 499.03 548.00" xmlns="http://www.w3.org/2000/svg" xmlns:xlink="http://www.w3.org/1999/xlink">
<g id="graph0" class="graph" transform="scale(1 1) rotate(0) translate(4 544)">
<polygon fill="white" stroke="transparent" points="-4,4 -4,-544 495.03,-544 495.03,4 -4,4"/>
<!-- D0 -->
<g id="node1" class="node">
<title>D0</title>
<path fill="none" stroke="black" d="M117.03,-540C117.03,-540 87.03,-540 87.03,-540 81.03,-540 75.03,-534 75.03,-528 75.03,-528 75.03,-516 75.03,-516 75.03,-510 81.03,-504 87.03,-504 87.03,-504 117.03,-504 117.03,-504 123.03,-504 129.03,-510 129.03,-516 129.03,-516 129.03,-528 129.03,-528 129.03,-534 123.03,-540 117.03,-540"/>
<text text-anchor="middle" x="102.03" y="-518.3" font-family="Times,serif" font-size="14.00">begin</text>
</g>
<!-- D4 -->
<g id="node3" class="node">
<title>D4</title>
<polygon fill="none" stroke="black" points="161.03,-468 43.03,-468 43.03,-432 161.03,-432 161.03,-468"/>
<text text-anchor="middle" x="102.03" y="-446.3" font-family="Times,serif" font-size="14.00">char c = getchar();</text>
</g>
<!-- D0&#45;&gt;D4 -->
<g id="edge14" class="edge">
<title>D0&#45;&gt;D4</title>
<path fill="none" stroke="black" d="M102.03,-503.7C102.03,-495.98 102.03,-486.71 102.03,-478.11"/>
<polygon fill="black" stroke="black" points="105.53,-478.1 102.03,-468.1 98.53,-478.1 105.53,-478.1"/>
</g>
<!-- D1 -->
<g id="node2" class="node">
<title>D1</title>
<path fill="none" stroke="black" d="M465.03,-36C465.03,-36 435.03,-36 435.03,-36 429.03,-36 423.03,-30 423.03,-24 423.03,-24 423.03,-12 423.03,-12 423.03,-6 429.03,0 435.03,0 435.03,0 465.03,0 465.03,0 471.03,0 477.03,-6 477.03,-12 477.03,-12 477.03,-24 477.03,-24 477.03,-30 471.03,-36 465.03,-36"/>
<text text-anchor="middle" x="450.03" y="-14.3" font-family="Times,serif" font-size="14.00">end</text>
</g>
<!-- D6 -->
<g id="node4" class="node">
<title>D6</title>
<polygon fill="none" stroke="black" points="153.03,-396 51.03,-396 51.03,-360 153.03,-360 153.03,-396"/>
<text text-anchor="middle" x="102.03" y="-374.3" font-family="Times,serif" font-size="14.00">int x = 0, f = 1;</text>
</g>
<!-- D4&#45;&gt;D6 -->
<g id="edge1" class="edge">
<title>D4&#45;&gt;D6</title>
<path fill="none" stroke="black" d="M102.03,-431.7C102.03,-423.98 102.03,-414.71 102.03,-406.11"/>
<polygon fill="black" stroke="black" points="105.53,-406.1 102.03,-396.1 98.53,-406.1 105.53,-406.1"/>
</g>
<!-- D8 -->
<g id="node5" class="node">
<title>D8</title>
<polygon fill="none" stroke="black" points="102.03,-324 -0.03,-306 102.03,-288 204.08,-306 102.03,-324"/>
<text text-anchor="middle" x="102.03" y="-302.3" font-family="Times,serif" font-size="14.00">(c &lt; &#39;0&#39; || c &gt; &#39;9&#39;)?</text>
</g>
<!-- D6&#45;&gt;D8 -->
<g id="edge2" class="edge">
<title>D6&#45;&gt;D8</title>
<path fill="none" stroke="black" d="M102.03,-359.7C102.03,-351.98 102.03,-342.71 102.03,-334.11"/>
<polygon fill="black" stroke="black" points="105.53,-334.1 102.03,-324.1 98.53,-334.1 105.53,-334.1"/>
</g>
<!-- D13 -->
<g id="node6" class="node">
<title>D13</title>
<polygon fill="none" stroke="black" points="102.03,-252 37.01,-234 102.03,-216 167.05,-234 102.03,-252"/>
<text text-anchor="middle" x="102.03" y="-230.3" font-family="Times,serif" font-size="14.00">(c == &#39;&#45;&#39;)?</text>
</g>
<!-- D8&#45;&gt;D13 -->
<g id="edge9" class="edge">
<title>D8:s&#45;&gt;D13:n</title>
<path fill="none" stroke="black" d="M102.03,-288C102.03,-288 102.03,-272.86 102.03,-262.22"/>
<polygon fill="black" stroke="black" points="105.53,-262 102.03,-252 98.53,-262 105.53,-262"/>
<text text-anchor="middle" x="97.03" y="-263.91" font-family="Times,serif" font-size="14.00">Y</text>
</g>
<!-- D20 -->
<g id="node9" class="node">
<title>D20</title>
<polygon fill="none" stroke="black" points="318.03,-252 185.81,-234 318.03,-216 450.24,-234 318.03,-252"/>
<text text-anchor="middle" x="318.03" y="-230.3" font-family="Times,serif" font-size="14.00">(c &gt;= &#39;0&#39; &amp;&amp; c &lt;= &#39;9&#39;)?</text>
</g>
<!-- D8&#45;&gt;D20 -->
<g id="edge3" class="edge">
<title>D8:e&#45;&gt;D20:n</title>
<path fill="none" stroke="black" d="M205.03,-306C205.03,-306 281.79,-269.32 308.78,-256.42"/>
<polygon fill="black" stroke="black" points="310.51,-259.47 318.03,-252 307.49,-253.15 310.51,-259.47"/>
<text text-anchor="middle" x="251.9" y="-285.01" font-family="Times,serif" font-size="14.00">N</text>
</g>
<!-- D16 -->
<g id="node7" class="node">
<title>D16</title>
<polygon fill="none" stroke="black" points="129.03,-180 75.03,-180 75.03,-144 129.03,-144 129.03,-180"/>
<text text-anchor="middle" x="102.03" y="-158.3" font-family="Times,serif" font-size="14.00">f = &#45;1;</text>
</g>
<!-- D13&#45;&gt;D16 -->
<g id="edge6" class="edge">
<title>D13:s&#45;&gt;D16:n</title>
<path fill="none" stroke="black" d="M102.03,-216C102.03,-216 102.03,-200.86 102.03,-190.22"/>
<polygon fill="black" stroke="black" points="105.53,-190 102.03,-180 98.53,-190 105.53,-190"/>
<text text-anchor="middle" x="97.03" y="-191.91" font-family="Times,serif" font-size="14.00">Y</text>
</g>
<!-- D18 -->
<g id="node8" class="node">
<title>D18</title>
<polygon fill="none" stroke="black" points="147.53,-108 56.53,-108 56.53,-72 147.53,-72 147.53,-108"/>
<text text-anchor="middle" x="102.03" y="-86.3" font-family="Times,serif" font-size="14.00">c = getchar();</text>
</g>
<!-- D13&#45;&gt;D18 -->
<g id="edge4" class="edge">
<title>D13:e&#45;&gt;D18:n</title>
<path fill="none" stroke="black" d="M168.03,-234C168.03,-234 167.03,-216 167.03,-216 167.03,-216 138.03,-144 138.03,-144 138.03,-144 119.83,-125.8 109.31,-115.29"/>
<polygon fill="black" stroke="black" points="111.57,-112.6 102.03,-108 106.62,-117.55 111.57,-112.6"/>
<text text-anchor="middle" x="143.31" y="-173.33" font-family="Times,serif" font-size="14.00">N</text>
</g>
<!-- D16&#45;&gt;D18 -->
<g id="edge5" class="edge">
<title>D16&#45;&gt;D18</title>
<path fill="none" stroke="black" d="M102.03,-143.7C102.03,-135.98 102.03,-126.71 102.03,-118.11"/>
<polygon fill="black" stroke="black" points="105.53,-118.1 102.03,-108.1 98.53,-118.1 105.53,-118.1"/>
</g>
<!-- D18&#45;&gt;D8 -->
<g id="edge7" class="edge">
<title>D18&#45;&gt;D8</title>
<path fill="none" stroke="black" d="M90.44,-108.06C79.91,-123.55 66.03,-144 66.03,-144 66.03,-144 28.03,-216 28.03,-216 28.03,-216 28.03,-252 28.03,-252 28.03,-252 53.53,-270.27 74.59,-285.35"/>
<polygon fill="black" stroke="black" points="72.8,-288.37 82.97,-291.35 76.88,-282.68 72.8,-288.37"/>
</g>
<!-- D25 -->
<g id="node10" class="node">
<title>D25</title>
<polygon fill="none" stroke="black" points="400.03,-180 278.03,-180 278.03,-144 400.03,-144 400.03,-180"/>
<text text-anchor="middle" x="339.03" y="-158.3" font-family="Times,serif" font-size="14.00">x = x * 10 + c &#45; &#39;0&#39;;</text>
</g>
<!-- D20&#45;&gt;D25 -->
<g id="edge12" class="edge">
<title>D20:s&#45;&gt;D25:n</title>
<path fill="none" stroke="black" d="M318.03,-216C318.03,-216 327.73,-199.37 333.94,-188.71"/>
<polygon fill="black" stroke="black" points="337.01,-190.4 339.03,-180 330.96,-186.87 337.01,-190.4"/>
<text text-anchor="middle" x="320.98" y="-191.16" font-family="Times,serif" font-size="14.00">Y</text>
</g>
<!-- D29 -->
<g id="node12" class="node">
<title>D29</title>
<polygon fill="none" stroke="black" points="491.03,-108 409.03,-108 409.03,-72 491.03,-72 491.03,-108"/>
<text text-anchor="middle" x="450.03" y="-86.3" font-family="Times,serif" font-size="14.00">return x * f;</text>
</g>
<!-- D20&#45;&gt;D29 -->
<g id="edge8" class="edge">
<title>D20:e&#45;&gt;D29:n</title>
<path fill="none" stroke="black" d="M451.03,-234C451.03,-234 450.35,-148.4 450.11,-118.31"/>
<polygon fill="black" stroke="black" points="453.61,-117.97 450.03,-108 446.61,-118.03 453.61,-117.97"/>
<text text-anchor="middle" x="445.57" y="-179.96" font-family="Times,serif" font-size="14.00">N</text>
</g>
<!-- D27 -->
<g id="node11" class="node">
<title>D27</title>
<polygon fill="none" stroke="black" points="339.53,-108 248.53,-108 248.53,-72 339.53,-72 339.53,-108"/>
<text text-anchor="middle" x="294.03" y="-86.3" font-family="Times,serif" font-size="14.00">c = getchar();</text>
</g>
<!-- D25&#45;&gt;D27 -->
<g id="edge10" class="edge">
<title>D25&#45;&gt;D27</title>
<path fill="none" stroke="black" d="M327.9,-143.7C322.67,-135.56 316.33,-125.69 310.55,-116.7"/>
<polygon fill="black" stroke="black" points="313.37,-114.62 305.02,-108.1 307.49,-118.41 313.37,-114.62"/>
</g>
<!-- D27&#45;&gt;D20 -->
<g id="edge11" class="edge">
<title>D27&#45;&gt;D20</title>
<path fill="none" stroke="black" d="M285.98,-108.06C278.67,-123.55 269.03,-144 269.03,-144 269.03,-144 269.03,-180 269.03,-180 269.03,-180 283.52,-195.67 296.74,-209.98"/>
<polygon fill="black" stroke="black" points="294.5,-212.7 303.85,-217.67 299.64,-207.95 294.5,-212.7"/>
</g>
<!-- D29&#45;&gt;D1 -->
<g id="edge13" class="edge">
<title>D29&#45;&gt;D1</title>
<path fill="none" stroke="black" d="M450.03,-71.7C450.03,-63.98 450.03,-54.71 450.03,-46.11"/>
<polygon fill="black" stroke="black" points="453.53,-46.1 450.03,-36.1 446.53,-46.1 453.53,-46.1"/>
</g>
</g>
</svg>
